/* XPM */
static char *_f64050f767b4972c3806fefe3271ef3F3RxGGOaZW9cXNVB[] = {
/* columns rows colors chars-per-pixel */
"64 64 49 1 ",
"  c #010101",
". c #080707",
"X c #070807",
"o c #080807",
"O c #070708",
"+ c #080708",
"@ c #070809",
"# c #0B0B0C",
"$ c #0C0A0C",
"% c #0D0B0C",
"& c #0B0C0D",
"* c #0B0E0D",
"= c #0D0C0C",
"- c #0D0F0C",
"; c #120D0E",
": c #120E0F",
"> c #0D110F",
", c #12110E",
"< c #11120F",
"1 c #0D0D12",
"2 c #100C10",
"3 c #110F11",
"4 c #120F13",
"5 c #0D1112",
"6 c #101210",
"7 c #121313",
"8 c #151313",
"9 c #161611",
"0 c #121416",
"q c #141514",
"w c #161516",
"e c #1A1415",
"r c #181717",
"t c #161817",
"y c #1C1A17",
"u c #151619",
"i c #17141A",
"p c #17161B",
"a c #1A1718",
"s c #1B171A",
"d c #151818",
"f c #181919",
"g c #1A181C",
"h c #1F1A1C",
"j c #211D17",
"k c #23241F",
"l c #1C1F20",
"z c #201D20",
"x c #1B2220",
/* pixels */
"                      O    O       O        0     .      O      ",
" Ou .. .                          Od        wO                  ",
"    .j       .   O  O  O             @O   *             X       ",
"       =O              O                  O    O                ",
"       $O    .        @       O +   @=$              O@         ",
"   >O       O         .    O        @                 @         ",
"   *                         O     @        #                   ",
"O      @     O   $8 #        O                .O                ",
"       =<    O   .6@                    O  O  .O             +$ ",
"  X O  @<         =9   O          O       hwO                +@ ",
"                  O  +  O           @ O   2@          O@        ",
"O          O .      +    O   @          @                       ",
"  OO      0*             .   O   @  +                           ",
"    O    $l   O O O     @       @jO           *       +@        ",
"  @   =O@@        r@                     o    6    O  +5     +@ ",
"  @w@ 6O+       O   O  O          0d   @ @O                  $g ",
"   2@    OO  O@ + O               df  $f                        ",
"  @6d                   O   O               2          O  O   OO",
"   +@          $   +                        $         .;        ",
"          O  X@6f            = .      o         O      O        ",
"  O  +          =        O       O         @    X               ",
" O  +@ O            @=             .  OO  <=   .             @  ",
"           O@ .      +                      O  @  O    o    .<O ",
"           #0 .      @           O               =.     @  .=<  ",
"          O   Oo=        O                      X >     . sza   ",
" @   O  2     o$=      O   O   @  O      O            OO  @+.   ",
"           $  O@    @f     O    O1     OOO          O           ",
"      O        @     @           #    O            #@    69    +",
"O      O          6                       O      O O   w+ +@    ",
" O@   .           O  X   @O .                    O  @ O@  @6 @  ",
"      @O         O      O     O               X       @       O ",
"      @XOO              . OX           O           O   =O       ",
"    XX                     @@@O                      O 6@       ",
"    =t                        6  O              .  OO    O      ",
"  O <9                  @     o. d*                        .    ",
"    Oo           OO                  O       O   .   .      O   ",
" .    =o        O O            .  ;>          @                 ",
" O    =         .  . ++     @  @  t@        O O      O    @     ",
"O                  @  @           O      O                   o  ",
"                                               +  O    O  O     ",
"     O @>                   @    .  Ow            O    O        ",
"  .O  O.             o         =     @        .                 ",
"           =.                  @@                            0* ",
" @       @ 2@    =@      O       X     @            O    =   O  ",
" .       +                                   6@     O   Oy  X   ",
"  @  OO      <      O             O >x  X   .o   OO            O",
"             ;      OO   OO       + OO                          ",
"                  O         Oo                               O  ",
"          +O              +       #        +                    ",
"                 r                O   .                         ",
"  .      +  .    8           .=                 O O       *<    ",
"                    .      X  @      .    .@               $    ",
"                   +  O  O                       o              ",
"                           5            +                       ",
"             O.  $ u+      O      1                          +  ",
"     Ou   @   oO + 1+.      O O  Xw           @      a$      .  ",
"      O                 O    @r                         .  @    ",
" @                                               +   @  ko  O  @",
"      O  O        O           $        O             9 @f   @  @",
"     =O          O6    O           O  @              O  .    =6.",
"     O         O  6            O@ O               O8 O        + ",
"                            ++ O6 X      @        .o            ",
"   .      O                              22  O                  ",
" $@                           +   X  <5 XO  #     O             "
};
