/* XPM */
static char *result[] = {
/* columns rows colors chars-per-pixel */
"64 64 169 2 ",
"   c #000000",
".  c #0E0E0F",
"X  c #0F0E10",
"o  c #110F10",
"O  c #121011",
"+  c #181416",
"@  c #1E1A1D",
"#  c #261B15",
"$  c #2D1F16",
"%  c #201C1F",
"&  c #2E2017",
"*  c #2B211B",
"=  c #35271E",
"-  c #1D1C22",
";  c #211E22",
":  c #232125",
">  c #292527",
",  c #28282E",
"<  c #302520",
"1  c #54371F",
"2  c #66350A",
"3  c #6A370B",
"4  c #6B380D",
"5  c #703C0E",
"6  c #6E3C12",
"7  c #743E12",
"8  c #5B3E29",
"9  c #77420F",
"0  c #78410F",
"q  c #6C421E",
"w  c #764111",
"e  c #7A4313",
"r  c #72431C",
"t  c #7C471A",
"y  c #7F4C1F",
"u  c #6E4622",
"i  c #724926",
"p  c #7D4D23",
"a  c #754D2B",
"s  c #784F2E",
"d  c #7B512F",
"f  c #814812",
"g  c #854A14",
"h  c #834E1E",
"j  c #894F1E",
"k  c #87521F",
"l  c #91531F",
"z  c #9B561F",
"x  c #9E5D1E",
"c  c #A35E1D",
"v  c #A85F1A",
"b  c #A6601B",
"n  c #A86119",
"m  c #B3671D",
"M  c #B2681E",
"N  c #BA6C1F",
"B  c #BA7E17",
"V  c #834E20",
"C  c #855123",
"Z  c #885223",
"A  c #865428",
"S  c #88562B",
"D  c #935522",
"F  c #9B5622",
"G  c #9F5B27",
"H  c #975B2C",
"J  c #9F5F2A",
"K  c #8E5B33",
"L  c #955E35",
"P  c #A05D2B",
"I  c #9F602A",
"U  c #AB6522",
"Y  c #A96524",
"T  c #A2612C",
"R  c #AA672C",
"E  c #B26620",
"W  c #B26A22",
"Q  c #BA6D21",
"!  c #B46E2A",
"~  c #B7712C",
"^  c #B9722C",
"/  c #A66834",
"(  c #B67334",
")  c #C1732A",
"_  c #C47831",
"`  c #CA7F3D",
"'  c #B17A4A",
"]  c #B97E50",
"[  c #CC803E",
"{  c #D8863F",
"}  c #F1E60B",
"|  c #F9F601",
" . c #F7EC11",
".. c #FCF411",
"X. c #F6DC3F",
"o. c #BA8546",
"O. c #BA824F",
"+. c #BF8958",
"@. c #C68B4E",
"#. c #C88C4E",
"$. c #D58641",
"%. c #C78D51",
"&. c #C88C51",
"*. c #C48D5C",
"=. c #C5935A",
"-. c #CA945B",
";. c #D39B5D",
":. c #C79667",
">. c #D69E62",
",. c #D89E62",
"<. c #D79F68",
"1. c #DAA166",
"2. c #DAA66B",
"3. c #E0AB77",
"4. c #E1AC79",
"5. c #EBB67C",
"6. c #F8D849",
"7. c #4D688F",
"8. c #456693",
"9. c #496793",
"0. c #4D6A93",
"q. c #516B91",
"w. c #617EB5",
"e. c #6184BD",
"r. c #738AB4",
"t. c #6587C6",
"y. c #648BCE",
"u. c #6D92CE",
"i. c #7A97C6",
"p. c #668DD4",
"a. c #688ED6",
"s. c #6C9CF4",
"d. c #6F9FFA",
"f. c #729FF4",
"g. c #75A0F3",
"h. c #7AA4F3",
"j. c #71A1FC",
"k. c #7EAAF8",
"l. c #948987",
"z. c #998D88",
"x. c #9C938E",
"c. c #A5968B",
"v. c #A7988B",
"b. c #A8988B",
"n. c #B59F8B",
"m. c #BAA28B",
"M. c #C5A485",
"N. c #D2AE87",
"B. c #D7B188",
"V. c #EBB780",
"C. c #EDB981",
"Z. c #F5BE83",
"A. c #F6C085",
"S. c #FCC384",
"D. c #FFC887",
"F. c #F4C289",
"G. c #819BCA",
"H. c #85A1D4",
"J. c #8CA6D5",
"K. c #81A9F3",
"L. c #8DB1F4",
"P. c #92B4F5",
"I. c #9ABBF6",
"U. c #9CBDFA",
"Y. c #A2BFF5",
"T. c #9FC0FD",
"R. c #A1C1F7",
"E. c #A6C6FD",
"W. c #A9C7FC",
/* pixels */
"                                                                                                                                ",
"                                                                                                                                ",
"                                                                                                                                ",
"                                                                                                                                ",
"                                                                                                                                ",
"                                o O O O O O O o O O o o O O O O O O O X O O O O O X O O O O O o                                 ",
"                                ; ; - - - - - - - - - - - - - - : , , : - - - - - - - - - - ; %                                 ",
"                                % 8 s s s s s r u d i q q q q q i a a u q q q q u q q q u r 1 @                                 ",
"                                - L { ` $.$.` N ) $._ N Q Q Q Q ^ ^ Q N N N N N N N N N Q N k @                                 ",
"                              . @ K ` D j j g f g Z g f f f g Z Z h f f f f e g f f f e g M h @                                 ",
"                                @ K [ e 2 3 3 3 4 3 3 3 4 6 r r 6 4 3 4 3 4 4 3 3 3 4 3 w M y @                                 ",
"                                - K [ f 4 l D l l D l D H H H l D l l l l l l l l l l 9 9 M h @                                 ",
"                                @ K ` e 6 F G J J I I / / / P P J J P T I I G G I G z w 0 M C @                                 ",
"                              . @ K ` e 6 F J ' ' ] ' ' ' ' ' ' ' ' ' ' ' ' ' ' ' I l 7 w M g @                                 ",
"                                @ K ` t 4 F T O.+.:.:.:.*.*.*.-.*.*.*.-.*.-.*.*.O./ z 5 w m h @                                 ",
"                                @ L ` t 5 v ! %.<.F.F.F.S.S.S.5.Z.S.5.S.5.S.Z.1.@.~ b 0 e m h @                                 ",
"                                ; S _ e 4 n ! @.1.A.B.n.m.m.m.m.m.m.m.m.m.N.A.1.@.~ v 7 9 M g @                                 ",
"                              . @ y M 0 5 n ~ @.;.S.c.0.q.7.q.q.0.0.q.q.8.x.S.<.@.~ v 0 e M h @                                 ",
"                                - y M 0 4 b ! @.>.S.b.0.r.G.t.t.i.i.t.w.8.x.D.<.@.^ v 7 w m h @                                 ",
"                                @ h M 0 5 b ~ @.1.S.b.7.J.W.h.d.E.U.j.a.8.x.D.1.@.~ b 0 0 m h @                                 ",
"                              . @ y M 9 5 n ~ @.>.S.b.0.u.k.L.P.K.g.s.p.9.x.D.1.@.~ v 7 9 m h @                                 ",
"                                - h M 9 5 n ~ @.>.S.b.7.y.s.I.R.f.s.f.p.9.x.S.1.@.! n 7 w m h @                                 ",
"                                * p M 9 4 n ! @.>.S.v.9.H.T.h.g.s.g.U.H.8.x.D.,.#.^ n 9 0 M g @                                 ",
"                              . @ p M 9 4 b ~ @.>.S.v.0.H.T.g.s.s.h.W.J.9.x.S.,.#.^ v 7 w M V @                                 ",
"                                @ y M 9 4 n ~ @.>.S.v.0.y.d.s.f.I.R.W.J.8.x.D.1.@.! v e 9 m h @                                 ",
"                                - y M 9 9 n ~ @.>.A.v.0.y.s.f.h.I.Y.U.H.8.x.S.1.#.~ v 7 9 m h %                                 ",
"                              . @ h M 9 4 n ~ @.,.S.v.0.p.j.U.W.W.I.j.a.0.x.S.1.#.! v 7 9 m h @                                 ",
"                                - y M 9 4 b ! @.;.S.b.0.t.a.i.J.J.H.a.e.0.x.S.1.#.^ n e 9 m h %                                 ",
"                                @ y M 0 4 n ! @.1.S.v.9.q.0.0.0.0.0.0.q.8.x.S.1.@.~ v 7 e m Z >                                 ",
"                              . @ y M 0 5 n ~ @.;.S.M.l.z.z.z.z.z.z.x.z.l.m.S.1.%.^ v 5 e ! S :                                 ",
"                                - h M 0 5 n ~ @.1.A.5.3.4.4.4.4.4.4.4.4.3.5.A.1.&.! v 7 e ! A %                                 ",
"                                @ y M w 5 n ~ @.>.Z.Z.5.C.V.V.V.C.5.V.C.5.5.S.1.%.^ Y V y M Z %                                 ",
"                              . % y M 9 4 n ! @.;.A.Z.Z.Z.Z.Z.Z.A.A.Z.Z.Z.Z.Z.1.#.~ R p V E h @                                 ",
"                                @ h M 9 5 c B }  ...6.Z.Z.Z.Z.Z.Z.Z.Z.Z.Z.Z.A.1.#.^ U h 7 E h @                                 ",
"                                - y M 9 5 b B | | | X.Z.Z.Z.Z.Z.Z.Z.Z.Z.Z.Z.A.1.#.! v 7 7 m V %                                 ",
"                              . @ y M 9 4 n W o.-.3.5.A.Z.Z.Z.Z.Z.A.Z.Z.Z.Z.A.1.#.^ v 7 e m V %                                 ",
"                                @ y M 7 5 n ! O.=.5.C.A.Z.Z.Z.Z.Z.Z.Z.Z.Z.Z.Z.1.#.~ v 7 7 m h @                                 ",
"                                - h m 9 5 n ! @.1.5.A.A.Z.Z.Z.Z.Z.Z.Z.Z.Z.Z.A.1.#.~ v 7 e m h @                                 ",
"                              . - y M 9 5 n ! &.>.Z.Z.Z.Z.Z.Z.Z.Z.Z.Z.Z.Z.Z.A.1.#.! v e 7 m h @                                 ",
"                                % V m 9 5 n ! @.,.Z.Z.Z.Z.Z.Z.Z.Z.Z.Z.Z.Z.Z.A.1.#.^ v 7 e m h @                                 ",
"                                @ y m 9 5 n ! #.,.Z.Z.Z.Z.Z.Z.Z.Z.Z.Z.A.Z.Z.Z.1.@.^ v 7 e m V %                                 ",
"                              . @ y m 9 5 n ! @.,.Z.Z.Z.Z.Z.Z.Z.Z.Z.Z.A.Z.Z.Z.1.@.^ v w 7 m h %                                 ",
"                                - t E 9 7 n ! &.>.Z.Z.Z.Z.Z.A.S.Z.Z.Z.A.Z.Z.A.1.@.~ n 7 e m h @                                 ",
"                                % h M 7 4 n ! @.>.Z.Z.Z.A.Z.Z.Z.Z.Z.Z.Z.Z.S.A.1.@.~ v e 7 m h @                                 ",
"                                @ y M 0 5 n ~ @.;.A.Z.Z.Z.A.5.Z.Z.Z.Z.Z.Z.Z.A.1.#.! v 7 e m h @                                 ",
"                              . @ p M 0 5 n ~ @.1.Z.Z.Z.Z.S.S.A.Z.Z.Z.Z.Z.Z.A.1.#.! v e e m h @                                 ",
"                                - y M 0 4 b ! @.>.A.Z.Z.A.Z.Z.A.Z.Z.A.Z.Z.Z.Z.1.#.~ v 7 e m h @                                 ",
"                                @ y M 0 9 b ! @.>.Z.Z.Z.Z.Z.A.A.A.Z.Z.Z.Z.Z.Z.1.#.~ v 7 9 M V @                                 ",
"                                @ y M 9 5 n ! @.,.A.F.F.A.A.A.S.Z.Z.Z.Z.Z.Z.A.1.@.~ v w 9 m h @                                 ",
"                                @ y M 5 5 n ! &.>.A.F.F.F.S.A.5.Z.Z.Z.Z.Z.Z.A.1.@.~ v e e m h @                                 ",
"                              . @ p M 9 5 n ! &.>.F.F.Z.5.S.5.A.Z.Z.Z.Z.Z.Z.A.1.@.~ n 0 e m h @                                 ",
"                                @ h M 9 5 n ! &.1.F.F.Z.A.A.S.A.Z.Z.Z.Z.Z.Z.A.1.%.! b 0 9 m h @                                 ",
"                                @ p M 9 5 b ~ =.2.F.A.A.A.S.A.F.Z.A.A.S.A.A.S.1.@.^ v w w m h @                                 ",
"                                @ y M 9 e U ( -.-.1.1.1.1.1.1.1.1.1.1.1.1.1.1.;.&.! n 7 0 m h @                                 ",
"                              . - y M 0 r R ( @.@.@.@.@.@.@.@.@.@.@.@.@.@.@.@.@.%.~ v w e m h @                                 ",
"                                @ V ! h w n W ~ ~ ^ ~ ~ ^ ^ ~ ~ ~ ^ ^ ^ ~ ^ ~ ~ ~ Q n 7 9 m h @                                 ",
"                                ; p / p r x b c c c c c P c c c c c c c c P c c c Y x 6 7 b p @                                 ",
"                                + * = < * & & & & & $ & & & & & & & & & & & & & & & $ # # $ # +                                 ",
"                                                                                                                                ",
"                                                                                                                                ",
"                                                                                                                                ",
"                                                                                                                                ",
"                                                                                                                                ",
"                                                                                                                                "
};
