/* XPM */
static char *_ddb6ba249224d46a526fafcc8f69853rSikLd6vpgVkuOS4[] = {
/* columns rows colors chars-per-pixel */
"64 64 160 2 ",
"   c #000000",
".  c #0A0404",
"X  c #0C0708",
"o  c #060A0A",
"O  c #0C0C0C",
"+  c #110505",
"@  c #1D0303",
"#  c #120D0D",
"$  c #1C0D0D",
"%  c #100F10",
"&  c #0C1010",
"*  c #131212",
"=  c #1B1515",
"-  c #151919",
";  c #1B1A1A",
":  c #240404",
">  c #2D0303",
",  c #230D0D",
"<  c #2B0B0B",
"1  c #340707",
"2  c #340708",
"3  c #2D1717",
"4  c #261818",
"5  c #211D1D",
"6  c #341313",
"7  c #3B1414",
"8  c #301817",
"9  c #351C1C",
"0  c #391919",
"q  c #2D2322",
"w  c #420606",
"e  c #4D0707",
"r  c #4E0A09",
"t  c #530707",
"y  c #520A0A",
"u  c #5B090A",
"i  c #4F1010",
"p  c #4F1918",
"a  c #551717",
"s  c #650908",
"d  c #6D0B0B",
"f  c #760909",
"g  c #780B0B",
"h  c #651414",
"j  c #6C1717",
"k  c #731B1B",
"l  c #850D0D",
"z  c #8E0F0F",
"x  c #920D0D",
"c  c #9F0D0D",
"v  c #9C100F",
"b  c #841313",
"n  c #8E1313",
"m  c #951414",
"M  c #A30C0B",
"N  c #AE0E0E",
"B  c #B50E0E",
"V  c #BB0F0E",
"C  c #A31515",
"Z  c #BA1312",
"A  c #C20D0D",
"S  c #CE0D0D",
"D  c #D00E0E",
"F  c #DE0F0F",
"G  c #D4100F",
"H  c #C51212",
"J  c #CC1212",
"K  c #D71110",
"L  c #DC1110",
"P  c #EF0000",
"I  c #E30E0D",
"U  c #EB0E0D",
"Y  c #F60101",
"T  c #FB0202",
"R  c #FD0B05",
"E  c #F40D0D",
"W  c #FE0C0B",
"Q  c #E3100F",
"!  c #ED100F",
"~  c #F4100F",
"^  c #FE110F",
"/  c #F40E13",
"(  c #FB0D11",
")  c #E51110",
"_  c #EE1110",
"`  c #F51312",
"'  c #FD1110",
"]  c #F51817",
"[  c #DB0F2C",
"{  c #CF0F36",
"}  c #D30E36",
"|  c #EB0E20",
" . c #E20E29",
".. c #EB2928",
"X. c #980C6B",
"o. c #EF4C4C",
"O. c #F14747",
"+. c #F14B4A",
"@. c #EF5757",
"#. c #F2605F",
"$. c #EC6262",
"%. c #F26C6B",
"&. c #F3706F",
"*. c #EC7171",
"=. c #EA7778",
"-. c #EA7A7A",
";. c #740C8A",
":. c #620C9C",
">. c #5C0DA4",
",. c #560CA9",
"<. c #580DA8",
"1. c #1E0BDA",
"2. c #280CD2",
"3. c #0003FC",
"4. c #010DFE",
"5. c #0412FD",
"6. c #1725E6",
"7. c #1722EF",
"8. c #1924EC",
"9. c #1E28F4",
"0. c #2124E3",
"q. c #252FF3",
"w. c #3C43E1",
"e. c #574FDA",
"r. c #6055D7",
"t. c #505EE7",
"y. c #5B66E6",
"u. c #6B72E2",
"i. c #7479E1",
"p. c #EC8B8B",
"a. c #EC9293",
"s. c #EB9D9D",
"d. c #F19797",
"f. c #F59D9D",
"g. c #EFA09F",
"h. c #EEA5A5",
"j. c #ECA8A8",
"k. c #F6A1A0",
"l. c #EEB1B1",
"z. c #F0B7B8",
"x. c #F1BABA",
"c. c #D7B2CB",
"v. c #E6BECC",
"b. c #F1C1C1",
"n. c #F1CBCC",
"m. c #FACECB",
"M. c #F4CFD0",
"N. c #F3D4D5",
"B. c #FCD5D1",
"V. c #F6DDDD",
"C. c #E1DEEF",
"Z. c #DFE2F7",
"A. c #F6E7E7",
"S. c #E2E3F7",
"D. c #EDEBF3",
"F. c #EBECF8",
"G. c #ECF4FB",
"H. c #FAF1F1",
"J. c #F9F7F9",
"K. c #FEFEFE",
/* pixels */
"                                                                                                                                ",
"                                                                                                                                ",
"                                                                                                                                ",
"                                                                                                                                ",
"                                                                                                                                ",
"                                                                                                                                ",
"                                                                                                                                ",
"                                                                                                                                ",
"                                                                                                                                ",
"                                                  . O O & O O O O O O O O O                                                     ",
"                                                  * * . X X X . . . X . % &                                                     ",
"                                                  O o                     o                                                     ",
"                                        * * * & & 4 j f f f f g f f f f g 0 & * * * *                                           ",
"                                      . ;   . .   < ) W W W W W W W W W ' s   . .   O                                           ",
"                                      O ;         @ G W E W W W W W W E ` y         o                                           ",
"                                  * * ; k M M M M B U W W W W W W W W W W A M M M M n 4 * *                                     ",
"                                  ;     v W W W W W W W W R W W W W W W W W W W W W L @                                         ",
"                              X o 5 X   v W W W W W R W W W W W W W W W W W W E W W K @   X X o                                 ",
"                            ; ; * j J S U W W W W W W W W W W W W W W W W W W W W W E D K m 5 = O                               ",
"                            -     f ' W W W W W W W W W W W W W W W W W W W W W W W W W W B                                     ",
"                        & o q < @ l W R W W W W W W W W W W W W W W W W W W W W W W W W W Z > : $ O O .                         ",
"                      * ; & a ) I U E W W W W W W W W W W W W W W W W W W W W W W W W W W E I U b & & O                         ",
"                      O #   y ' R W W W W W W W W W W W W W W W W W W W R W W W W W W W W W W W x     .                         ",
"                      * *   y ' R W W W W W W W W W W W W W W W W W W W W W W W W W W W W W W ' m     O                         ",
"                      * %   y ' W W W W W W W W W W W W W W W W W W W W W W W W W W ^ W W W W W x     O                         ",
"                      * *   y ^ R W W W T T T T T T W W W W W W W W W W W T T T T T T W W W W W x     O                         ",
"                      % %   y ' W W W W O.&.%.%.%.#.] W W W W W W W W W W +.&.%.%.%.#.~ W W W ( x     O                         ",
"                      # %   y ^ W W ( P j.K.K.K.K.H...T W W W W W W W W E l.K.K.K.K.A...T W W W m     O                         ",
"                      - &   r ^ W T T P s.K.J.K.K.V...Y T W W W W W T T P h.K.K.J.K.V.) T R W W z     o .                       ",
"                . ; * 9 n x B ^ T o.f.d.N.K.K.K.K.H.k.f.-.E W W W T @.k.d.V.K.K.K.K.H.k.f.&.E W S z c p - - O                   ",
"                o *   1 ! W W W T -.K.K.K.K.K.K.K.K.K.K.N._ W W ^ Y a.K.K.K.K.K.K.K.K.K.K.b.~ W W W ^ d   . O                   ",
"                . *   2 Q W W W T -.K.K.K.K.K.K.K.K.K.K.n._ W W W Y p.K.J.K.K.K.K.K.K.K.K.z.E W W W ^ d   . O                   ",
"                X *   1 Q W W W T =.K.K.J.K.K.K.J.K.K.K.n./ W W W Y p.K.K.K.K.J.K.K.J.K.K.z.E W W W W d   . o                   ",
"                o *   1 ! W W W Y -.K.K.K.K.K.K.K.K.K.K.n.U W W W T p.K.K.K.K.K.K.K.K.K.K.z.E W W W ' d     #                   ",
"                . *   1 Q W W ^ T -.K.K.F.S.S.Z.S.S.J.K.n.U W W ^ Y p.K.K.F.S.S.S.S.S.J.K.x.~ W W W W d   . O                   ",
"                . *   1 Q W W W Y =.K.K.i.7.q.q.q.w.C.K.n./ W W W Y p.K.K.u.7.q.q.9.w.D.K.z.~ W W W ' d   . O                   ",
"                o *   2 Q W W W T -.K.K.y.3.4.4.3.8.Z.K.N.U W W W Y a.K.K.t.3.4.4.3.6.G.K.v./ R W W ' d   . O                   ",
"                . *   2 Q W W ^ T $.N.m.r.3.5.5.4.0.c.B.g.U W W W T *.M.m.e.3.4.5.4.0.v.B.a.E W W W W d     O                   ",
"                X *   1 ) W W W W W E E :.4.5.4.4.2.{ R E W W W W W W E / >.4.5.5.4.2.[ R W W W W W W d     O                   ",
"                o *   1 ) R W W W W W W >.4.4.4.4.1.} R W W W W W W W W / ,.4.4.4.4.1. .R W W W W W ' d   . .                   ",
"                . *   2 Q W W W W W W W X.,.>.>.<.;. .R W W W W W W W W E X.,.>.>.<.;.| R W W W W W W d     o                   ",
"                . *   2 Q W W W W W W W W W W R W R W W W W W W W W W W W W W W W W W W W W W W W W ' d   . #                   ",
"                . *   2 ! W W W W W W W R W W W W W W W W W W W W W W W W W W W W W W R W W W W W W ^ d   . #                   ",
"                o *   2 Q W W W W W W W W W W W W W W W W W W W W W W W W W W W W W W R W W W W W W ' d     O                   ",
"                . *   2 Q W W W W W W W W W W R W W W W W W W W W W W W W W W W W W W W W W R W W W W d   . o                   ",
"                X *   2 Q W W W W W W W W W W W W W W W W W W W W W W W W W W W W W R W W W W W W W ^ d     O                   ",
"                o *   1 ) W W W W N t t V W W W W W W W K u t t t e N W W W W W W W I s e l ( W W W W d   . O                   ",
"                . =   1 ) W W W W l     x W W W W W W W H           l W W W W W W W L .   w / W W W ' d     O                   ",
"                . *   1 ) W E U ~ b o O m E U E W W U E Z $ o O # o b ~ U E W W U U J , o i ) U E W W d     o                   ",
"                o *   2 ) W V > > 3 O O 8 > 1 A W F e > 0 & o O X O $ > > B W U u > 6 O o $ 2 : l W ' d   . O                   ",
"                X *   1 ! W N     *     *     Z W L @   - .               M W _ >   .           d W W d     .                   ",
"                  ; o 7 H ) m O O ;   . ; O $ C Q Z 6 o ; .         X * O m I H 7 o *     O * o h L L h o & .                   ",
"                      * = . = X             o = . = *   .             . . X . # O           .   * + . X .                       ",
"                      O o   * .             O *   % O                         . .               o                               ",
"                      O * O *               . * X * O                     X O & .               O % O X                         ",
"                                                                                                                                ",
"                                                                                                                                ",
"                                                                                                                                ",
"                                                                                                                                ",
"                                                                                                                                ",
"                                                                                                                                ",
"                                                                                                                                ",
"                                                                                                                                ",
"                                                                                                                                "
};
