/* XPM */
static char *_a13a71a8b704ce2b3588ea4b0f023e24eDFwj6L6piy3laE[] = {
/* columns rows colors chars-per-pixel */
"64 64 157 2 ",
"   c #000000",
".  c #0B0202",
"X  c #060608",
"o  c #0E0708",
"O  c #060A0B",
"+  c #0D090A",
"@  c #130304",
"#  c #1B0003",
"$  c #150708",
"%  c #190709",
"&  c #130A0B",
"*  c #1B0B0C",
"=  c #1C0F10",
"-  c #220004",
";  c #2A0005",
":  c #24090C",
">  c #2E090C",
",  c #300103",
"<  c #3B0005",
"1  c #3B0E10",
"2  c #420002",
"3  c #4C0006",
"4  c #4C050A",
"5  c #44080D",
"6  c #540006",
"7  c #5A0005",
"8  c #5C090E",
"9  c #4C0C12",
"0  c #600004",
"q  c #6D0005",
"w  c #64040B",
"e  c #6D030B",
"r  c #740107",
"t  c #7B0104",
"y  c #75030B",
"u  c #820000",
"i  c #8D0006",
"p  c #8F040B",
"a  c #910006",
"s  c #97060D",
"d  c #9D060E",
"f  c #A30005",
"g  c #AC0002",
"h  c #A20009",
"j  c #AA010A",
"k  c #B10003",
"l  c #BD0006",
"z  c #B50309",
"x  c #BB0008",
"c  c #C50002",
"v  c #CA0106",
"b  c #D40003",
"n  c #DB0003",
"m  c #D50008",
"M  c #DC0008",
"N  c #E40005",
"B  c #EC0004",
"V  c #F40103",
"C  c #FE0000",
"Z  c #FF0800",
"A  c #F0070B",
"S  c #FF0B0C",
"D  c #E2001A",
"F  c #EF1216",
"G  c #F91415",
"H  c #F91A1B",
"J  c #CA0031",
"K  c #F52224",
"L  c #F62528",
"P  c #F63234",
"I  c #F83436",
"U  c #F93D3D",
"Y  c #95005C",
"T  c #99015C",
"R  c #A50043",
"E  c #A7004E",
"W  c #AB024D",
"Q  c #A20451",
"!  c #C12F5C",
"~  c #F83F40",
"^  c #AA5F61",
"/  c #EF4547",
"(  c #EA4748",
")  c #F14143",
"_  c #EB5254",
"`  c #EB5B5C",
"'  c #F45555",
"]  c #DE6065",
"[  c #EA6465",
"{  c #E96C6F",
"}  c #FA6863",
"|  c #F26669",
" . c #F3686A",
".. c #FA686C",
"X. c #F77269",
"o. c #EA7677",
"O. c #FD7679",
"+. c #F77C7D",
"@. c #FE7A7E",
"#. c #0600A4",
"$. c #0E09A8",
"%. c #3C04A5",
"&. c #61029D",
"*. c #5602A2",
"=. c #5A56A5",
"-. c #0000EC",
";. c #1207E4",
":. c #170EE0",
">. c #0400F2",
",. c #0A02F4",
"<. c #0301FC",
"1. c #0A05FA",
"2. c #0008FF",
"3. c #0B08FE",
"4. c #1106FF",
"5. c #150AFE",
"6. c #190EFF",
"7. c #2116E7",
"8. c #2319E9",
"9. c #7773E8",
"0. c #7E7AED",
"q. c #A35196",
"w. c #7A80F1",
"e. c #B9BBB9",
"r. c #EC898A",
"t. c #F18688",
"y. c #F78788",
"u. c #FC8A8B",
"i. c #F2A9AA",
"p. c #F1B8B9",
"a. c #928EDE",
"s. c #AC91D0",
"d. c #8582E5",
"f. c #9895E0",
"g. c #8480F9",
"h. c #ABA5EA",
"j. c #B4AFE9",
"k. c #B1B3F6",
"l. c #EFC8CC",
"z. c #F1C4C5",
"x. c #F2C6C8",
"c. c #F0CCCC",
"v. c #FFD6CE",
"b. c #F1D0D0",
"n. c #F6DBDC",
"m. c #C4C4EC",
"M. c #DDDCEF",
"N. c #DAD8F1",
"B. c #F8E4E5",
"V. c #F9E7E9",
"C. c #FAEEEF",
"Z. c #EBEBF5",
"A. c #F2F0F7",
"S. c #FDF7F7",
"D. c #FFFFF7",
"F. c #F8F7F9",
"G. c #FDFDFD",
/* pixels */
"                                                                                                                                ",
"                                                                                                                                ",
"                                                                                                                                ",
"                                                                                                                                ",
"                                                                                                                                ",
"                                                                                                                                ",
"                                                                                                                                ",
"                                                                                                                                ",
"                                                        & @ & @ @ o o $ $ o o                                                   ",
"                                                      . @ o . o o o . o o o . %                                                 ",
"                                                                              *                                                 ",
"                                            . . . . . @ 2 2 2 2 2 2 2 2 2 2 2 > . . . . .                                       ",
"                                            o .   .   < V C C C C C C C C C C r   . .   . .                                     ",
"                                          .           ; V C C C C C C C C C C q           .                                     ",
"                                      .   @ 4 6 6 6 3 t C C C C C C C C C C C d 3 6 6 6 6 > $ .                                 ",
"                                      @   # M C C C C C C C C C C C C C C C C C C C C C C 4   $ o                               ",
"                                      X   . b C C C C C C C C C C C C C C C C C C C C C C 2   O *                               ",
"                                . + = 8 0 q N C C C C C C C C C C C C C C C C C C C C C C i 7 w :   o                           ",
"                                .   @ m S C C Z Z C C C C C C C C C C C C C C Z C S C C C C C V ;   @ .                         ",
"                                X     c C C C C C C C C C C C C C C C C C C C C C C C C C C C N -   X .                         ",
"                          & = & 8 u t ] @.O.O.@...Z C C C C C C C C C C I @.O.@.O.+.L C C C C V a t y : $ $                     ",
"                          &   X z C S n.G.G.G.G.A.F C C C C C C C C S C o.G.G.G.G.G.` C S C C C C C V ;   @                     ",
"                          &     g C B x.G.S.S.G.n.B C C C C C C C C C V [ G.S.S.F.G.( V C C C C C C N -   .                     ",
"                          &     ^ u.t.B.G.G.G.G.C.r.y. .C C C C C I y.+.p.G.G.G.G.G.i.+.y.K C C C C N -   .                     ",
"                          &     e.G.G.G.G.G.G.G.G.G.G.b.V C C C C | G.G.G.F.G.G.G.G.G.G.G./ C Z C C N -   .                     ",
"                        X &     e.G.D.G.G.G.G.G.G.S.G.z.V C C Z C } G.D.G.G.G.G.G.G.G.S.G.) C C C C N -   . .                   ",
"                          &     =.g.0.0.0.d.Z.G.G.G.G.x.B C C C C ! w.0.0.0.9.m.G.G.G.G.G./ C C C C N ;   .                     ",
"                        X &     #.<.<.<.<.;.N.G.G.D.G.x.V C C C C Y >.<.<.<.-.a.G.F.G.G.G./ C C C C N -   @                     ",
"                        X +     $.5.5.6.5.8.M.G.G.S.G.x.V C C V C T 1.5.5.6.,.f.G.G.G.G.G./ C C C C N #   o .                   ",
"                    @ . O e g f %.3.4.5.4.7.M.G.G.G.G.x.V C C C C T ,.5.5.5.>.f.G.F.G.S.G./ C C C C C k f p @   .               ",
"                    $     j C C &.3.5.5.4.8.N.G.G.S.G.x.V C C C C T 1.5.5.6.>.f.G.G.G.F.G./ C C C C C C C N @   .               ",
"                    $     h C V *.2.3.,.>.:.N.G.F.G.G.c.V C C C C Y 2.3.1.,.-.a.G.F.G.G.G./ C C C C C C C b @   .               ",
"                    &     h C C J E Q s.k.j.A.G.V.` ' ) C C C C C D W R q.k.h.N.G.G.r.( ' H C C C C C C C m @   .               ",
"                    % .   h C C C C Z v.G.G.G.G.B.V C C C C C C C C C C X.G.G.G.G.G.( C C C C C C C C C C m @   .               ",
"                    $     h C V C C A l.G.F.F.G.n.F C C C C C C C C Z V { G.F.G.S.G._ C Z C C C C C C C C b @   .               ",
"                    $     h C C C C C P ~ U ~ ~ I C C C C C C C C C C C H U U U U U G C C C C C C C C C C m @   .               ",
"                    $     h C C C C C C C C C C C C C C C C C C C C C C C C C C C C C C C C C C C C C C C m @   .               ",
"                    %     h C C C C C C C C Z C C C C C C C C C C C C C C C C C C C C C C C C C C C C C C m @   .               ",
"                    &     h C C C C C C C C C C C C C C C C C C C C C C C C Z C C C C C C C C C C C C C C m @   .               ",
"                    @ .   h C V C C C C C C C C C C C C C C C C C C C C C C C C C C C C C C C C C C C C C m @   .               ",
"                    & .   h C C C C C C C C C C C C C C C C C C C C C C C C C C C C C C C C C C C C C C C m @   .               ",
"                    @     h C C C C C C C C C C C C C C C C C C C C C C C C C C C C C C C C C C C C C C C m @   .               ",
"                    %     h C C C C C C C C C C C C C C C C C C C C C C C C C C C C C C C C C C C C C C C m @   .               ",
"                    %     h C C C C C C C C C C C C C C C C C C C C C C C C C C C C C C C C C C C C C C C b @   .               ",
"                    $ .   h C V C C C C C C C C C C C C C C C C C C C C C C C C C C C C C C C C C C C C C m @   .               ",
"                    $     h C C C C C C C C C C C C C C C C C C C C C C C C C C C C C C C C C C C C C C C m @                   ",
"                    %     h C C C C C n b m C C C C C C C C V b b b b b B C C C C C C C C N b b V C C C C m @   .               ",
"                    &     h C C C C V <   # b C C C C C C C x . . . .   r C C C C C C C C 4   # m C C C C b @   .               ",
"                    %     h C C C C V ,   @ N C C C C C C C c           r C C C C C C C C 3   @ b C C C C m @   .               ",
"                    %     h C C N n v 1 & : k n b C C V b n s = = = * + w n b B C C N b m 9 & * j n n V C b @   .               ",
"                    $     h C C 6   @ % o @ @ . ; N C v # . % % o o o . $ @   a C C 7   . % o & % . - m C m @   .               ",
"                    $     h C C 6     .     o   ; N C m     .           $     i C C 7     .   . &   # N C N @   .               ",
"                    @ % + y c x 5 . @ .     @ & : j c s & @ @           @ % + e c l 4 + % .     @ & : h c d * . @               ",
"                        X &     .               . .   .                       o     o               . . X . .                   ",
"                          $     .               . o   .                       .                     . .   .                     ",
"                          o   . .               X o   .                       . . . .                 o   .                     ",
"                                                                                                                                ",
"                                                                                                                                ",
"                                                                                                                                ",
"                                                                                                                                ",
"                                                                                                                                ",
"                                                                                                                                ",
"                                                                                                                                ",
"                                                                                                                                "
};
