/* XPM */
static char *aced0eca9bd544f1fce6e8e32a2e7acaCAhcky45yIMvE2FP[] = {
/* columns rows colors chars-per-pixel */
"64 64 139 2 ",
"   c #000000",
".  c #0B0203",
"X  c #0D0708",
"o  c #040809",
"O  c #0E090B",
"+  c #140204",
"@  c #1C0102",
"#  c #130709",
"$  c #1E0708",
"%  c #130A0B",
"&  c #1A0A0C",
"*  c #1E1315",
"=  c #240103",
"-  c #2B0104",
";  c #250608",
":  c #230B0D",
">  c #300103",
",  c #2F1317",
"<  c #4F070D",
"1  c #55040A",
"2  c #5A050B",
"3  c #5B0810",
"4  c #650207",
"5  c #6A0006",
"6  c #64030A",
"7  c #6C070E",
"8  c #650A0F",
"9  c #6B090E",
"0  c #740006",
"q  c #7D0006",
"w  c #75020A",
"e  c #7D010A",
"r  c #6D0A12",
"t  c #72171B",
"y  c #08036C",
"u  c #1F046D",
"i  c #130B6A",
"p  c #71707B",
"a  c #7C7879",
"s  c #830006",
"d  c #8A0006",
"f  c #850109",
"g  c #8B0008",
"h  c #9F0007",
"j  c #91000A",
"k  c #9A000A",
"l  c #AF0001",
"z  c #B50005",
"x  c #BD0003",
"c  c #C20004",
"v  c #D60003",
"b  c #DD0003",
"n  c #E20003",
"m  c #EA0001",
"M  c #F30102",
"N  c #FE0000",
"B  c #F90109",
"V  c #FB0A0B",
"C  c #FC0E11",
"Z  c #FA1314",
"A  c #F41C1D",
"S  c #FD1A1D",
"D  c #FB2E2F",
"F  c #A8004E",
"G  c #A10057",
"H  c #8A0063",
"J  c #87006F",
"K  c #8B076D",
"L  c #910063",
"P  c #840072",
"I  c #EE595B",
"U  c #E36467",
"Y  c #EE6364",
"T  c #E4646D",
"R  c #ED6669",
"E  c #E56A6F",
"W  c #EC6A6B",
"Q  c #E76E72",
"!  c #EC7172",
"~  c #ED7678",
"^  c #ED797B",
"/  c #F37273",
"(  c #F1797A",
")  c #3501C6",
"_  c #3105C8",
"`  c #351AD7",
"'  c #371DDA",
"]  c #1208EC",
"[  c #0300F6",
"{  c #0302FB",
"}  c #0C05FE",
"|  c #0008FF",
" . c #0D09FF",
".. c #1004FF",
"X. c #140AFE",
"o. c #180EFF",
"O. c #1616F2",
"+. c #1F16F1",
"@. c #2116F5",
"#. c #2219F4",
"$. c #2F26E9",
"%. c #3E39F2",
"&. c #7670E1",
"*. c #7B74E2",
"=. c #817CDF",
"-. c #838281",
";. c #EC8384",
":. c #EF8D8E",
">. c #F18486",
",. c #EF9192",
"<. c #F19293",
"1. c #F19B9C",
"2. c #8E8BE5",
"3. c #908CE1",
"4. c #9492E4",
"5. c #F4CBCB",
"6. c #F9CDCD",
"7. c #F9D7D8",
"8. c #F7DBDB",
"9. c #FBDCDC",
"0. c #DEDFF1",
"q. c #E1DFF2",
"w. c #DFE1F5",
"e. c #F8E6E7",
"r. c #FDE7E9",
"t. c #F7ECEE",
"y. c #FBE9EB",
"u. c #FAEDEE",
"i. c #E1E3F5",
"p. c #ECEDF7",
"a. c #E2EEFF",
"s. c #EEEFFC",
"d. c #FAF5F6",
"f. c #FDF6F7",
"g. c #FDF9F9",
"h. c #FBFCFD",
"j. c #FCFCFD",
"k. c #FDFFFF",
"l. c white",
/* pixels */
"                                                                                                                                ",
"                                                                                                                                ",
"                                                                                                                                ",
"                                                                                                                                ",
"                                                                                                                                ",
"                                                                                                                                ",
"                                                                                                                                ",
"                                                          . . . . . o . . . .                                                   ",
"                                                      # X X # X X X X # X X # .                                                 ",
"                                                      %                                                                         ",
"                                            . . . . . ; @ @ @ @ @ @ @ @ @ @ @ @   . .   .                                       ",
"                                          . + . . .   w M m m m m m m m m m M 4   . + . . +                                     ",
"                                                      s N N N N N N N N N N N 5           X                                     ",
"                                      o . # @ + @ +   d N N N N N N N N N N N q . @ @ + @ +                                     ",
"                                    # X   w m n n n n M N N N N N N N N N N N m b n n n m 6   . .                               ",
"                                    :     f N N N N N N N N N N N N N N N N N N N N N N N 5                                     ",
"                                . . , ; @ j N N N N N N N N N N N N N N N N N N N N N N N f + - : O O                           ",
"                              # .   e B M N N N N N N N N N N N N N N N N N N N N N N N N B M B w o % .                         ",
"                              X     s N N N N N N N N N N N N N N N N N N N N N N N N N N N N N 0     .                         ",
"                          + . $ = @ g N N N N N C S S S S S V N N N N N N N N N N N V S S S S S e @ = & X #                     ",
"                        . # o f N m M N N N N M >.g.r.t.t.d.R N N N N N N N N N N N ~ g.r.r.y.f.U m B 7 o & X                   ",
"                        .     d N N N N N N N N :.k.k.k.k.k.W N N N N N N N N N N M ^ k.j.k.j.k.W N N 0     O                   ",
"                              f N N N N N Z D A 1.k.f.k.f.k.;.A D Z N N N N N A D A <.k.g.j.g.k.;.A D t   o X                   ",
"                          .   f N N N N M ~ k.u.f.k.k.f.k.k.d.u.k.W N N N N N :.k.t.f.k.j.k.j.k.d.u.k.a   X O                   ",
"                        .     g N N N N N ^ k.k.k.k.g.k.k.k.k.k.k./ N B N N N <.k.k.k.g.k.k.k.k.k.k.k.-.  . %                   ",
"                        .     g N N N N N ~ k.g.g.k.k.p.w.i.i.q.a.T N N N N M ,.k.g.g.k.k.p.i.i.i.0.s.p   o O                   ",
"                        .     f N N N N M ~ k.g.j.j.k.4.] #.@.@.O.K N N N N N <.k.g.h.j.k.=.] #.@.@.@.i     %                   ",
"                        .     s N N N V N ^ k.g.g.g.k.2.[ X.....[ P N N N N M <.k.g.k.j.g.*.[ ....} ..y   o O                   ",
"                        ; > = h N N N N B ^ k.g.k.d.k.3.[ o.X.X. .P N N N V N <.k.g.k.j.k.*.[ o.X.X...u - - : o .               ",
"                  . .   w N m N N N N N N ( k.g.h.h.k.3.[ o.X.X.} P N N N N N <.k.g.g.j.k.*.[ o.X.X.} H N B 6   . %             ",
"                  +     s N N N N N N N M ^ k.k.k.j.k.3.[ } }  .| P N N N N M 1.k.k.k.g.k.&.[ } }  .| L N N 5   . %             ",
"                  .     q N N N N N N N N Y 8.5.e.j.k.4.$.%.' ) _ G N N N N N ( 8.5.e.k.k.3.$.%.` ) _ F N N 5   . &             ",
"                  .     q N N N N N N N N N V M :.k.d.g.d.k.Q M M N N N N N N N V M ^ k.f.g.d.k.E m B N B N 5   . &             ",
"                  .     q N N N N N N N N N N M <.k.k.k.k.k.! N N N N N N N N N N M ;.k.k.k.k.k.Q N N N N N 5     &             ",
"                  .     q N N N N N N N N N N N / 9.5.6.6.7.I N N N N N N N N N N N R 9.6.6.6.7.I N N N N N 5   . &             ",
"                  .     q N N N N N N N N N N N B V V V V V N N N N N N N N N N N N N V V V V V B N N N N N 5   . &             ",
"                  .     q N N N N N N N N N N N N N N N N N N N N N N N N N N N N N N N N N N N N N N N N N 5     &             ",
"                  .     q N N N N N N N N N N N N N N N N N N N N N N N N N N N N N N N N N N N N N N N N N 5   . &             ",
"                  . .   q N N N N N N N N N N N N N N N N N N N N N N N N N N N N N N N N N N N N N N N N N 4   . &             ",
"                  .     q N M N N N N N N N N N N N N N N N N N N N N N N N N N N N N N N N N N N N N N N N 4     &             ",
"                  .     s N N N N N N N N N N N N N N N N N N N N N N N N N N N N N N N N N N N N N N N N N 5   . &             ",
"                  .     q N N N N N N N N N N N N N N N N N N N N N N N N N N N N N N N N N N N N N N N N N 5   . &             ",
"                  .     q N N N N N N N N N N N N N N N N N N N N N N N N N N N N N N N N N N N N N N N B N 5     &             ",
"                  . .   q N N N N N N N N N N N N N N N N N N N N N N N N N N N N N N N N N N N N N N N N N 5   X &             ",
"                  .     q N M N N N N N N N N N N N N N N N N N N N N N N N N N N N N N N N N N N N N N N N 4     &             ",
"                  .     q N N N N N N N N N N N N N N N N N N N N N N N N N N N N N N N N N N N N N N N N N 5   . &             ",
"                  .     q N N N N N n c x n N N N N N N N N b x c c c c n N N N N N N N N b x c n N N N N B 5   . &             ",
"                  .     q N N N N N w     q N N N N N N N N w           f N N N N N N N N 0     g N N N N N 5     &             ",
"                  .     s N N N N N e     f N N N N N N N N 0           g N N N N N N N N w     g N N N N N 4   . &             ",
"                  .     q N N v z x 2 # & 8 x z b N N v z c 1 . & * & % 9 x z n N N b l x 1 % & 7 x z b N N 5   . &             ",
"                  .     q N N w     % . o .     f N N e     %   . . . . X     j N N w     X . . .     s N N 5     &             ",
"                  + .   s N N s     %     .     j N N f     %                 k N N s     #     +     d N N 5   . &             ",
"                  + + # 3 z z 3 # & .     + & % 9 z z 2 # & .           . + # r z z 3 % & .     . + # 8 z z < X & #             ",
"                        .     X .               .     . .                     X     %                 .     %                   ",
"                        .     X                 +     +                       .     &                     . X                   ",
"                          .   .                 .   . .                       . . . X                 . .   .                   ",
"                                                                                                                                ",
"                                                                                                                                ",
"                                                                                                                                ",
"                                                                                                                                ",
"                                                                                                                                ",
"                                                                                                                                ",
"                                                                                                                                ",
"                                                                                                                                "
};
