/* XPM */
static char *_18d1be4e86b488abbcbcae90289a37bYxfho2E62IAIY7Nw[] = {
/* columns rows colors chars-per-pixel */
"64 64 155 2 ",
"   c #000000",
".  c #0B0304",
"X  c #060708",
"o  c #0C0708",
"O  c #0E0808",
"+  c #130506",
"@  c #1D0003",
"#  c #130708",
"$  c #140A0B",
"%  c #190E0E",
"&  c #1D1212",
"*  c #240205",
"=  c #2B0004",
"-  c #28070B",
";  c #230A0B",
":  c #2E080B",
">  c #3C0105",
",  c #37090C",
"<  c #211314",
"1  c #251718",
"2  c #271818",
"3  c #331819",
"4  c #4E0005",
"5  c #46070C",
"6  c #49050A",
"7  c #48080C",
"8  c #530206",
"9  c #5A0206",
"0  c #51060B",
"q  c #5C060A",
"w  c #590E12",
"e  c #5A161A",
"r  c #600207",
"t  c #6C0104",
"y  c #640509",
"u  c #680308",
"i  c #740003",
"p  c #7D0004",
"a  c #7C050A",
"s  c #840003",
"d  c #8A0004",
"f  c #83030A",
"g  c #950003",
"h  c #9B0003",
"j  c #960409",
"k  c #96031A",
"l  c #A30003",
"z  c #AC0004",
"x  c #A4080C",
"c  c #B50003",
"v  c #BC0104",
"b  c #BE0508",
"n  c #B50D0E",
"m  c #C30003",
"M  c #CC0005",
"N  c #C50509",
"B  c #CB0108",
"V  c #D40003",
"C  c #DB0004",
"Z  c #D9001E",
"A  c #E50003",
"S  c #EC0005",
"D  c #F30102",
"F  c #FE0000",
"G  c #F60009",
"H  c #F70C0C",
"J  c #F90C0C",
"K  c #EE0015",
"L  c #F10D10",
"P  c #EF1112",
"I  c #F11212",
"U  c #FB1212",
"Y  c #F51819",
"T  c #F81C1D",
"R  c #C1003C",
"E  c #E70025",
"W  c #EE292A",
"Q  c #F92424",
"!  c #F82B2B",
"~  c #ED3539",
"^  c #F23C3E",
"/  c #840448",
"(  c #85006D",
")  c #8A006F",
"_  c #900063",
"`  c #860077",
"'  c #CA494B",
"]  c #EE5557",
"[  c #EE5658",
"{  c #ED5A5B",
"}  c #F05658",
"|  c #EF6566",
" . c #F36A6B",
".. c #EF7679",
"X. c #6D0283",
"o. c #650197",
"O. c #65019A",
"+. c #4801B6",
"@. c #1E02DB",
"#. c #2B02CE",
"$. c #3C03C4",
"%. c #2A17DD",
"&. c #291EDC",
"*. c #3E30D5",
"=. c #0400E9",
"-. c #0500F4",
";. c #0A02F6",
":. c #0306FF",
">. c #0B03FE",
",. c #0308FF",
"<. c #0D09FF",
"1. c #1107F3",
"2. c #1309F4",
"3. c #1707FA",
"4. c #1807F8",
"5. c #140AFE",
"6. c #1808FB",
"7. c #291FE4",
"8. c #4124CE",
"9. c #9E6FBC",
"0. c #EE878B",
"q. c #F58689",
"w. c #ED9B9E",
"e. c #F6AEAF",
"r. c #E7A7B6",
"t. c #F4B5B7",
"y. c #FFBDB4",
"u. c #F2B7B9",
"i. c #FBB5BB",
"p. c #F3BEBF",
"a. c #FFBABC",
"s. c #8E87DD",
"d. c #A29ADF",
"f. c #8F90E7",
"g. c #A4A5E9",
"h. c #F3BFC0",
"j. c #F2C6C8",
"k. c #F6D4D5",
"l. c #F7D8D9",
"z. c #C4C3EE",
"x. c #CDCDEF",
"c. c #C7C6F1",
"v. c #EBE7EF",
"b. c #F7E3E4",
"n. c #F9E3E3",
"m. c #F6E6E9",
"M. c #F9E8E8",
"N. c #FAF3EF",
"B. c #E5E4F3",
"V. c #ECF5FB",
"C. c #FBF4F4",
"Z. c #FAF7F9",
"A. c #F9FEFE",
"S. c #FDFDFD",
"D. c white",
/* pixels */
"                                                                                                                                ",
"                                                                                                                                ",
"                                                                                                                                ",
"                                                                                                                                ",
"                                                                                                                                ",
"                                                                                                                                ",
"                                                                                                                                ",
"                                                                                                                                ",
"                                                      . . . O X o . o . . . .                                                   ",
"                                                      + . . . . . . . . . . . .                                                 ",
"                                                      X                     X .                                                 ",
"                                          . + + + + O 0 d s s s s s s s s s a - o + + + #                                       ",
"                                          + . . . .   h F F F F F F F F F F F >   . .   o                                       ",
"                                          .           d F D F F F F F D F F D =           .                                     ",
"                                    . .   7 d s d d s M F F F F F F F F F F D l s d s d a ;   X                                 ",
"                                    . .   f F F F F F F F F F F F F F F F F F F F F F F S @   o .                               ",
"                                    o     p F F F F F F F F F F F F F F F F F F F F F F A +   X X                               ",
"                              . # o 7 h h / o.o.o.o.o.R F F F F F F F F F F G ) O.o.o.O.X.k l f # + +                           ",
"                              . .   i F F ` :.,.,.,.,.) F F F F F F F F F F K $.,.:.:.:.@.E F A @   . .                         ",
"                          .   o     t F F ( <.6.6.6.;._ F F F F F F F F F F K +.<.3.3.5.#.Z F V .   . . .                       ",
"                        . o X 5 v c ' i.y.9.-.<.5.5.;.9.y.t.^ F F F F D q.a.e.8.<.5.5.>.%.r.i.w.n m j + o +                     ",
"                        . .   9 F F  .A.D.f.-.5.5.5.-.g.D.A.{ F F F F D j.D.D.*.>.5.5.>.7.V.D.b.U F V .   X .                   ",
"                        . .   9 F D | A.D.s.=.2.;.2.=.d.D.A.[ D F F F D p.D.N.*.;.1.1.;.&.v.D.k.P F B .   . .                   ",
"                        .     8 F F | A.D.B.z.c.c.c.z.B.D.A.[ F F F F D p.D.Z.x.c.c.c.c.x.Z.D.l.I F B .   .                     ",
"                        + .   9 J F | A.Z.S.D.D.D.D.D.D.D.D.] F F F F D h.D.D.D.D.D.D.D.D.C.D.l.I F B .   X .                   ",
"                        % .   9 F F | D.S.S.Z.S.Z.A.Z.D.D.A.] F H F F D h.D.A.C.D.C.A.D.A.D.D.l.I F B .   $ .                   ",
"                        < X   9 F F | A.C.D.D.A.S.S.D.D.Z.D.[ F F F F D p.D.D.D.A.D.Z.D.D.C.D.l.I F B .   & +                   ",
"                        & X   9 F F | D.S.D.A.Z.S.D.S.A.D.A.[ F F F F D p.S.S.S.A.D.D.D.S.S.D.l.I F B .   & X                   ",
"                        < +   9 J F | A.C.Z.D.D.S.S.D.C.C.A.] F F F F D u.D.C.Z.D.D.S.D.D.C.Z.k.I F M +   < #                   ",
"                  . +   6 C V A F F U ! Y 0.D.Z.S.C.D...Y ! H F F F F F T Q W k.D.A.C.D.b.~ Q Q F F F C C x o . %               ",
"                  + .   4 F F F F F F F F ..A.D.D.D.D.{ F F F F F F F F F F D k.D.D.D.D.m.H F F F F F F F N .   % .             ",
"                  . .   4 F F F F F F F F  .M.l.l.l.m.] F F F F F F F F F F D t.b.l.l.b.j.P F F F F F F F b     % .             ",
"                  . .   4 F F F F F F F F F H J H H H F F F F F F F F F F F F H H H H H J F F F F F F F F b X   % .             ",
"                  + .   4 F F F F F F F F F F F F F F F F F F F F F F F F F F F F F F F F F F F F F F F F b .   %               ",
"                  # .   4 F F F F F F F F F F F F F F F F F F F F F F F F F F F F F F F F F F F F F F F F b .   % X             ",
"                  + .   4 F F F F F F F F F F F F F F F F F F F F F F F F F F F F F F F F F F F F F F F F v .   %               ",
"                  # .   4 F F F F F F F F F F F F F F F F F F F F F F F F F F F F F F F F F F F F F F F F b .   %               ",
"                  # .   4 F F F F F F F F F F F F F F F F F F F F F F F F F F F F F F F F F F F F F F D F b .   % .             ",
"                  # .   4 F F F F F F F F F F F F F F F F F F F F F F F F F F F F F F F F F F F F F F F F b .   % X             ",
"                  # .   4 F F F F F F F F F F F F F F F F F F F F F F F F F F F F F F F F F F F F F F F F b .   %               ",
"                  # .   4 F F F F F F F F F F F F F F F F F F F F F F F F F F F F F F F F F F F F F F D F b .   % X             ",
"                  # .   4 F F F F F F F F F F F F F F F F F F F F F F F F F F F F F F F F F F F F F F F F v .   $ .             ",
"                  # .   4 F F F F F F F F F F F F F F F F F F F F F F F F F F F F F F F F F F F F F F F F b .   % X             ",
"                  + .   4 F F F F F F F F F F F F F F F F F F F F F F F F F F F F F F F F F F F F F F F F b .   %               ",
"                  + .   4 F F F F F F F F F F F F F F F F F F F F F F F F F F F F F F F F F F F F F F F F b .   %               ",
"                  + .   4 F F F F F F F F F F F F F F F F F F F F F F F F F F F F F F F F F F F F F F F F b .   % .             ",
"                  $ .   4 F F F F F V g g B F F F F F F F F v g g h g h A F F F F F F F D l g l D F F F F b X   % X             ",
"                  + .   4 F F F F F d     i F D F F F F D F 8           c F F F F F F F C +   @ A F D F F v .   %               ",
"                  + .   4 F F F F F j     f F F F F F F F F 9   .   .   B F F F F F F F S @   * D F F F F b .   % .             ",
"                  $ .   4 F F V s d w 1 & e d p m F F c s s , $ + + + $ y d d A F D g s a 3 2 3 a s h D F b .   $               ",
"                  + .   4 F F l       .   +     p F F r     $         .       N F A @   X .   .     = S F b .   $ .             ",
"                  + .   4 F F z   . .     $ o   d F F t   . +           +   . V F D =   +     . o   > F F N .   $               ",
"                  . + o : i i w o . .     . + O 7 i i , o o .           o + o 9 i u % . o       . o ; t i q O o o               ",
"                        o     $ .               o     .                     . X   X .               .     X .                   ",
"                        + . X #                 + . . +                     . $   + .               o o . + .                   ",
"                        X o + .                 X % $ X                       + % o                 . $ % X                     ",
"                                                                                                                                ",
"                                                                                                                                ",
"                                                                                                                                ",
"                                                                                                                                ",
"                                                                                                                                ",
"                                                                                                                                ",
"                                                                                                                                ",
"                                                                                                                                "
};
