/* XPM */
static char *c7cfae1e79854611e4db79094ea184cc8inLacZ8wnLdflxW[] = {
/* columns rows colors chars-per-pixel */
"64 64 147 2 ",
"   c #010101",
".  c #090505",
"X  c #070807",
"o  c #090807",
"O  c #060708",
"+  c #080709",
"@  c #05090A",
"#  c #0B0A0B",
"$  c #120203",
"%  c #1B0404",
"&  c #120E0F",
"*  c #0D110E",
"=  c #12110F",
"-  c #0E0C10",
";  c #110E11",
":  c #0D1111",
">  c #131313",
",  c #171816",
"<  c #1C1A17",
"1  c #16151A",
"2  c #1A1619",
"3  c #161818",
"4  c #1B191A",
"5  c #220405",
"6  c #2C0505",
"7  c #27090A",
"8  c #2F0808",
"9  c #330203",
"0  c #3C0303",
"q  c #310807",
"w  c #340A0B",
"e  c #3E0B0B",
"r  c #211D17",
"t  c #23241F",
"y  c #1E1E20",
"u  c #410405",
"i  c #4D0505",
"p  c #4D0808",
"a  c #5A0505",
"s  c #6D0405",
"d  c #730304",
"f  c #7A0405",
"g  c #770A0A",
"h  c #17294B",
"j  c #4F5564",
"k  c #72427C",
"l  c #746A6B",
"z  c #7B7C79",
"x  c #850506",
"c  c #890606",
"v  c #820B0B",
"b  c #970303",
"n  c #9B0303",
"m  c #881618",
"M  c #A80203",
"N  c #A30C0D",
"B  c #B30303",
"V  c #BC0304",
"C  c #B40C0D",
"Z  c #C50404",
"A  c #C60707",
"S  c #CC0506",
"D  c #C60909",
"F  c #CC0B0B",
"G  c #D40506",
"H  c #DD0202",
"J  c #DA0405",
"K  c #D30708",
"L  c #D60A0A",
"P  c #E20303",
"I  c #ED0202",
"U  c #F40102",
"Y  c #F90101",
"T  c red",
"R  c #FF0203",
"E  c #FC0708",
"W  c #FC090A",
"Q  c #FE090A",
"!  c #F70F12",
"~  c #F41516",
"^  c #FC1515",
"/  c #FC2728",
"(  c #F73436",
")  c #FD3636",
"_  c #FB3B3C",
"`  c #843356",
"'  c #AF2848",
"]  c #A33157",
"[  c #FB4141",
"{  c #FA5F5F",
"}  c #FB6666",
"|  c #FA6768",
" . c #FB6C6D",
".. c #FB7171",
"X. c #204DAB",
"o. c #2350AD",
"O. c #2C56AE",
"+. c #385CAF",
"@. c #2C57B1",
"#. c #2358B4",
"$. c #2E5CB6",
"%. c #325CB2",
"&. c #395EB1",
"*. c #2F60B7",
"=. c #2B63BD",
"-. c #3961B4",
";. c #3062B9",
":. c #3A65BB",
">. c #4E4690",
",. c #554E95",
"<. c #4D549F",
"1. c #54539B",
"2. c #4D71BB",
"3. c #5673B9",
"4. c #5678BE",
"5. c #5F7EBB",
"6. c #2167C3",
"7. c #6884BF",
"8. c #B296B5",
"9. c #FB8C8C",
"0. c #ED9090",
"q. c #F99797",
"w. c #FA9899",
"e. c #FAA3A3",
"r. c #FBA5A5",
"t. c #FCA9AA",
"y. c #FABDBE",
"u. c #8097C8",
"i. c #9EB2DA",
"p. c #A0B1D7",
"a. c #A3B5DB",
"s. c #ADBEE6",
"d. c #B9C7E1",
"f. c #F9CACB",
"g. c #FDD5D5",
"h. c #F5D7D8",
"j. c #FCDDDD",
"k. c #D4DDEE",
"l. c #F5E1E2",
"z. c #FCE4E4",
"x. c #FCE8E7",
"c. c #FBEAEB",
"v. c #F7F4F5",
"b. c #FCF5F5",
"n. c #F8F7F9",
"m. c #FDFFFF",
"M. c #FEFEFE",
/* pixels */
"                                            O         O               O                 >           .             O             ",
"  O 1   O .   .                                                     O ,                 > O                                     ",
"        . r               .     O       O     O                           # O       #     O                     X               ",
"              # O                             O                 O                   O         O         O                       ",
"              # O         .                 #               O   O       + # .                             O O                   ",
"      * X         O     X                             O                 + O O                             O O                   ",
"      #                                 O                 O           O               O #                                       ",
"O       O     O           O       # >   #                 O                                 . O                                 ",
"              # =         O       . > @                                               O     . O                           + #   ",
"    X   O     # =                   # ,       @                     O               4 3 O                                 + #   ",
"                                    O     .     O   .             O     #   O       ; +                     O O                 ",
"O                     O   .             O         O       # .                   O                                               ",
"    O O             1 #                           .       @       @     @         .                                             ",
"        O         # y       O   O   O           #   6 f d d d s g m d d s $                 #               O #                 ",
"    #       * O # o                 3 #             d T T T T T T T T T E %       O         >         O     O :           O #   ",
"    # > #   > X                 O       O   O .     s T Y Y T Y Y T Y T U % O X   # O                                     - 2   ",
"      & #         O O     O O   O   @     x G Z D Z J T T T T Y T Y T T Y S D F Z F e                                           ",
"    O > 3                                 M T T T T T T T T T T T T T T T T E T T T u   ;                     O     O       O O ",
"      + O O                   #     $ e 9 B T Y T Y Y T Y T T T T E T T T T Y Y Y T s q e                   . &                 ",
"                    O     o # ; <   u T Y Y T T T E T T E T T T T T T T Y T T T R T Y T J .   O O             O                 ",
"    O     O O                   #   w T T T T Y T T T T Y T T T Y T T T T T T T T Y T T H O     o                               ",
"  O       #                     x n B T T T T W w.r.e.e.r./ T T T T T T T Y T [ t.e.e.t.0.N M p                           #     ",
"                      O #     . J R T T T T T W b.m.m.m.m.) T T T T T T T T T } m.m.m.m.c.W T v     +         o         . > O   ",
"                      # >   O . S T Y T Y W W ^ z.m.m.m.v._ Y E T T T Y T W T } m.b.m.m.g.~ W g   # .           #     . # &     ",
"                            O # L T R R T q.v.z.m.m.m.M.m.z.c.y.W T R T E f.c.c.m.M.m.M.b.l.x.l   O #               2 r 2       ",
"  #       X   O &     O     o # L T T T T t.m.m.m.m.m.M.m.m.m.j.E T R T W z.m.m.M.M.m.m.m.m.m.z   O         O O     + O O       ",
"                      +     O # K T R R T r.m.b.m.m.k.p.a.a.s.8.Y T R T E j.m.m.m.M.d.i.a.p.s.j         O         .             ",
"              O               # S T Y T T r.m.m.m.m.p.X.@.X.#.>.Y T T T E j.m.m.m.m.5.X.O.O.$.h       # #         > >         O ",
"O             O                 K T Y R T r.m.m.M.M.a.O.-.&.;.,.Y T T T E j.m.m.m.M.7.O.-.&.:.h   O   O       > O     #         ",
"  O #         X           a Z V U T T T T r.m.b.M.M.a.O.-.&.;.,.Y T R T E j.m.m.m.m.7.O.-.&.;.` Z C %   #   O #     # >   #     ",
"            O             f T T T Y T R T t.m.m.v.m.a.X.%.%.=.,.Y R T T E z.m.m.m.m.7.o.$.%.6.] T T 5       O               O   ",
"            # X O O       f T Y T T T R T 9.z.g.b.m.s.2.4.1.1.k Y T T T E y.g.z.m.m.u.2.3.,.<.' T I % O       # O               ",
"        . O               f T Y T T R T T W T ^ z.m.b.b.v.( U E R T T T T W T | m.b.b.m.h.! U Y T U 5   O .   > O               ",
"        * >               f T Y Y T T T T T T W b.m.m.m.m.) T T T T T T Y T T | m.m.m.m.c.W T T T U % O O                       ",
"    .   = >       O       f T T T T T Y T R Y W |  . . . .^ T E T T T T T R T / .. . . .{ E Y T T U 5                 .         ",
"        O o               f T Y T T T T T T T T T T T Y T T T T T Y R T T T R Y Y T Y T T T T T T U 5     O             O       ",
"  .         # X           f T T R T R T T T T T E E T E W T T T T T T R T T T Y W T R W Y R T T T U 5                           ",
"  O         * .           f T Y Y T R T T T T T T T T T T T T T T R T T R T T T T T T T R T T T T U 5     O         #           ",
"O O                       f T Y T R T T Y T T T T T T T Y T T T T R T T T R T T R T T T T T T Y T U 5                     o     ",
"                          f T T T T T R E T T T T T T T T T T T T T R T T T T R T T R T R T T R T U 7         .     O           ",
"          X   # #   O     f T Y Y R T R T T T R T T T E T T T E R T T R T R T T R T R T R T T T T U 5   .     O                 ",
"      O     O             f T Y T T T T Y T T T T T T T T Y T T T T T Y T T T T T T Y T T T Y T T U 5                           ",
"                      ; O f T T R T T T Y T T T T T Y T T T Y T T Y T T R T T T T T T Y T T T T T U 5                     = #   ",
"  #               O   ; @ d T Y T Y T T T T T R T T T T T T T T T T T T T Y T T T T T T T Y T T T U % O .         #       #     ",
"  .               +       f T T T T U J J U T T T T T T T P J H J G U T T T T T R T P J P Y T T T U 5   O .     O <     O       ",
"    #     O O             v T Y Y T A . O M T U Y T T T Y 0   . .   n T Y Y T T Y Y i   q I T Y T U 7                         O ",
"                          v T T T T Z   O B T T T T T T Y 0         b T T T T T T R i   5 R T T T U 5                           ",
"                          f T U c s a     i d f U T Y T Y 0         n T Y Y T Z s f %   $ s s V T U 5                     O     ",
"                    . .   f T U 5               I T T T T 9       O N T Y T T n       O       x T U 5                           ",
"                          f T I w >           $ P Y U U U 9         n T U U T n               x T I 5 O                         ",
"    .             O       $ 8 6 . &             6 6 6 8 6 . #       % 6 6 6 6 %         .     % q 6 .           O   # >         ",
"                              O         .             O     O                       . O                               #         ",
"                                      O     O     O                   O                         . o                             ",
"                                    O                 :                         O                                               ",
"            O             O .     #   1 +             O O           #                                               O     O     ",
"      O   O 1       #       X X   O   - + .                 O       3                       O             2 #             .     ",
"            O                                   O         # 2                                                   O     #         ",
"  O                                             .                                                 .       X     t o           # ",
"            O     O                 O                       #                 O                           >   # 4       O O   # ",
"          # O                       >         O                       +     #                             O     O         # >   ",
"          O                   O     >                         O #   O                               O >   O                 O   ",
"                          O                             O .   O ;   X             o                   #                         ",
"      .             O                                                             ; &   O O                                     ",
"  # X                                                       O       O     * >   #       #           O .                         "
};
