/* XPM */
static char *_017654077ee43a3d3e77d4ee337a3b9apbUjJZVRh5K9eUU[] = {
/* columns rows colors chars-per-pixel */
"80 80 29 1 ",
"  c black",
". c #010000",
"X c #0D0A09",
"o c #120D0C",
"O c #140F0E",
"+ c #15100E",
"@ c #957167",
"# c #B6897E",
"$ c #BD8F83",
"% c #BF9084",
"& c #C29286",
"* c #C7968A",
"= c #CA988C",
"- c #E7AFA0",
"; c #F0B5A6",
": c #F1B6A7",
"> c #F2B7A8",
", c #F3B8A9",
"< c #F5BAAA",
"1 c #FBBEAE",
"2 c #FCBFAF",
"3 c #FDBFAF",
"4 c #FFC1B1",
"5 c #FFC3B3",
"6 c #FFC7B7",
"7 c #FFC8B8",
"8 c #FFC9B8",
"9 c #FFCCBB",
"0 c #FFD1C0",
/* pixels */
"                                                                                ",
"                                                                                ",
"                                                                                ",
"                                                                                ",
"                                                                                ",
"                                                                                ",
"                                                                                ",
"                                                                                ",
"                                                                                ",
"                                                                                ",
"                                                                                ",
"                                                                                ",
"                                                                                ",
"                                                                                ",
"                                                                                ",
"                                                                                ",
"                                                                                ",
"                                                                                ",
"                                                                                ",
"                                                                                ",
"                                                                                ",
"                                                                                ",
"                                                                                ",
"                                                                                ",
"                                                                                ",
"                                                                                ",
"                                                                                ",
"                                                                                ",
"                                                                                ",
"                                 ... ...                                        ",
"                                                                                ",
"                                O+OOOOOOOOOOOOOO                                ",
"                               .&1,,,,,,>,,,,><-o                               ",
"                               .=64455555555746<o                               ",
"                               .*61414442442124>O                               ",
"                               .*61444444444417;o                               ",
"                               .*81444444444445>o                               ",
"                               .*61444444444425>o                               ",
"                               .*84444444444425>o                               ",
"                                *81444444444445>o                               ",
"                                *71444444444445>O                               ",
"                                *82444444444425>O                               ",
"                                *72444444444445>o                               ",
"                                *82444444444425>O                               ",
"                                *71444444444445>O                               ",
"                                *71222212222114;o                               ",
"                                =088888688888892O                               ",
"                                @*$$$&$&%%%%%%&#X                               ",
"                                                                                ",
"                                                                                ",
"                                                                                ",
"                                                                                ",
"                                                                                ",
"                                                                                ",
"                                                                                ",
"                                                                                ",
"                                                                                ",
"                                                                                ",
"                                                                                ",
"                                                                                ",
"                                                                                ",
"                                                                                ",
"                                                                                ",
"                                                                                ",
"                                                                                ",
"                                                                                ",
"                                                                                ",
"                                                                                ",
"                                                                                ",
"                                                                                ",
"                                                                                ",
"                                                                                ",
"                                                                                ",
"                                                                                ",
"                                                                                ",
"                                                                                ",
"                                                                                ",
"                                                                                ",
"                                                                                ",
"                                                                                "
};
