/* XPM */
static char *c26ef1f342644368b968d837da4d2991vWwcqHmgLzpNF8Kj[] = {
/* columns rows colors chars-per-pixel */
"64 64 25 1 ",
"  c black",
". c #010000",
"X c #0A0706",
"o c #0D0907",
"O c #0E0A08",
"+ c #110C09",
"@ c #120D0A",
"# c #BD856A",
"$ c #C78C70",
"% c #CA8F72",
"& c #E5A281",
"* c #EFA887",
"= c #F0A987",
"- c #F1AA88",
"; c #F4AC8A",
": c #F6AE8B",
"> c #FAB18D",
", c #FDB28E",
"< c #FFB490",
"1 c #FFB590",
"2 c #FFB591",
"3 c #FFB692",
"4 c #FFB994",
"5 c #FFBA95",
"6 c #FFBD98",
/* pixels */
"                                                                ",
"                                                                ",
"                                                                ",
"                                                                ",
"                                                                ",
"                                                                ",
"                                                                ",
"                                                                ",
"                                                                ",
"                                                                ",
"                                                                ",
"                                                                ",
"                                                                ",
"                                                                ",
"                                                                ",
"                                                                ",
"                                                                ",
"                                                                ",
"                                                                ",
"                                                                ",
"                                                                ",
"                                                                ",
"                                                                ",
"                                                                ",
"                         oooOOooOOOOOOo                         ",
"                        @&;=**----***>#                         ",
"                        @;411111113116%                         ",
"                        @-1,<<<<111<14$                         ",
"                        @-11<<<<<<<<>4$                         ",
"                        @;11<<<<<<<<>4%                         ",
"                        @;11<<<<<<<<>6$                         ",
"                        @-11<<<<<<11,4%                         ",
"                        @-1<<<<<<<<<>4$                         ",
"                        @*1<<<<<<<<<,4%                         ",
"                        @;1<<<<<<<<<>6$                         ",
"                        O-1<<<<<<<<<,4%                         ",
"                        @;1111<<<<<<>4$                         ",
"                        @:611111111116%                         ",
"                        O&;*----*---*>#                         ",
"                         oooXOOOOOXOO@X                         ",
"                                                                ",
"                                                                ",
"                                                                ",
"                                                                ",
"                                                                ",
"                                                                ",
"                                                                ",
"                                                                ",
"                                                                ",
"                                                                ",
"                                                                ",
"                                                                ",
"                                                                ",
"                                                                ",
"                                                                ",
"                                                                ",
"                                                                ",
"                                                                ",
"                                                                ",
"                                                                ",
"                                                                ",
"                                                                ",
"                                                                ",
"                                                                "
};
