/* XPM */
static char *result[] = {
/* columns rows colors chars-per-pixel */
"64 64 164 2 ",
"   c #000000",
".  c #080707",
"X  c #070708",
"o  c #080708",
"O  c #0C0B0C",
"+  c #100F0F",
"@  c #17120E",
"#  c #0D0E12",
"$  c #100F10",
"%  c #151515",
"&  c #181617",
"*  c #1E1813",
"=  c #17171C",
"-  c #19171A",
";  c #1A1A1C",
":  c #27180C",
">  c #211913",
",  c #211E1F",
"<  c #20201F",
"1  c #2E231F",
"2  c #3B2616",
"3  c #161820",
"4  c #1D1C21",
"5  c #221E21",
"6  c #212121",
"7  c #282325",
"8  c #2B2B2B",
"9  c #342821",
"0  c #3A2C23",
"q  c #39322E",
"w  c #2E2E30",
"e  c #333435",
"r  c #3B3734",
"t  c #3E3934",
"y  c #363738",
"u  c #373839",
"i  c #383838",
"p  c #5D330F",
"a  c #402916",
"s  c #4F2E15",
"d  c #4E371F",
"f  c #553216",
"g  c #5F3613",
"h  c #53331B",
"j  c #5C3A1D",
"k  c #603716",
"l  c #613917",
"z  c #6D3F17",
"x  c #623C1A",
"c  c #6B3F19",
"v  c #453224",
"b  c #4C3423",
"n  c #473628",
"m  c #4D3A2C",
"M  c #5A3E25",
"N  c #543B28",
"B  c #403A34",
"V  c #413D3A",
"C  c #6C4017",
"Z  c #6D411A",
"A  c #73441D",
"S  c #7A4A1E",
"D  c #5D4026",
"F  c #59422E",
"G  c #604227",
"H  c #6B4727",
"J  c #7B4C21",
"K  c #734C28",
"L  c #794F29",
"P  c #7B512A",
"I  c #634630",
"U  c #674931",
"Y  c #7F5731",
"T  c #484847",
"R  c #7B634E",
"E  c #766356",
"W  c #825229",
"Q  c #8C5728",
"!  c #8E5A28",
"~  c #915927",
"^  c #915B29",
"/  c #835B35",
"(  c #8A5F3A",
")  c #9C632C",
"_  c #8B603B",
"`  c #966332",
"'  c #996736",
"]  c #9C6936",
"[  c #90623B",
"{  c #A1662D",
"}  c #A4692E",
"|  c #AA6D2F",
" . c #A56C32",
".. c #AB6E31",
"X. c #AA7035",
"o. c #AA733B",
"O. c #B17333",
"+. c #B1753D",
"@. c #84634A",
"#. c #9F7243",
"$. c #A17547",
"%. c #AC7541",
"&. c #AE7841",
"*. c #A27748",
"=. c #AF7D4B",
"-. c #B17D45",
";. c #BA7D46",
":. c #B27D4A",
">. c #BC7F49",
",. c #B68738",
"<. c #C7A426",
"1. c #FFFF1C",
"2. c #B7854E",
"3. c #BA8751",
"4. c #BC8A56",
"5. c #BD8C5A",
"6. c #BF915C",
"7. c #BC8960",
"8. c #C5854C",
"9. c #CB894D",
"0. c #C08F5B",
"q. c #C0915C",
"w. c #D2AE4C",
"e. c #C39562",
"r. c #C99B66",
"t. c #CC9E6B",
"y. c #CCA26F",
"u. c #D2A36F",
"i. c #CDA270",
"p. c #D2A570",
"a. c #DAAC77",
"s. c #D7A77C",
"d. c #DAAD79",
"f. c #E0B47F",
"g. c #DEC542",
"h. c #E9D050",
"j. c #F3DD5D",
"k. c #E2C161",
"l. c #EECC75",
"z. c #4C6691",
"x. c #6C778D",
"c. c #6E798E",
"v. c #5A75A7",
"b. c #6F91DA",
"n. c #749BEF",
"m. c #799FEF",
"M. c #749BF2",
"N. c #89888C",
"B. c #938E8F",
"V. c #A4978D",
"C. c #808AA3",
"Z. c #B4AAA6",
"A. c #E5B984",
"S. c #EABF8A",
"D. c #ECBF94",
"F. c #ECC484",
"G. c #ECC28C",
"H. c #F2C58D",
"J. c #EDC492",
"K. c #899AC7",
"L. c #8EA1D7",
"P. c #8CA2DA",
"I. c #94A6D8",
"U. c #B6BFC7",
/* pixels */
"                                                                                                                                ",
"                                                                                                                                ",
"                                                                                                                                ",
"                                                                                                  O + O $ $ O O                 ",
"                                                                                                . = ; 4 ; 4 5 5 .               ",
"                          % $ $ $ $ $ $ $ $ $ $ + + $ # O % = % % $ $ # $ $ $ $ $ O   O % # % O * D G D D D 9 ;                 ",
"                        . 7 5 4 4 , 5 4 4 5 ; 5 5 4 5 7 8 6 7 7 4 5 5 5 4 5 5 4 7 =   % 4 5 6 4 0 X.| X.X.O.v = .               ",
"                        . ; m [ ( _ _ _ P P _ / P P P / / Y L P P L P P P L P K h 2 # d P L L P W ) } ) ) } v ; .               ",
"                        o = U 9.2.;.;.;.}  .>.+.} }  .X.o.X.} }  .} } } } } | ^ A h < L O.} | | .. . .} } ..v =                 ",
"                        o = I 8.W C A Z Z Z Z z C C C C Z C C C c c z z z C c A ! Q W ) } ) } )  .4.4.0.o.} v ; .               ",
"                        o = I 8.W g j j j j j j j j j j j j j j j j j j j j l A ^ ` ^ ] X.X.o. .o.r.e.e.&.} v =                 ",
"                        o = I 8.W g t y i i i i i y i u u u u u i i i i i B p z ^ ^ Q &.q.5.5.4.e.S.a.0.&.} v = .               ",
"                        o = U 8.W k B y i i y y i i i i u u u u i i i i i V R @.^ ` ` 4.p.t.u.y.p.G.a.0.&.} v = .               ",
"                        o = I 8.W k t r i i i i i i i i u u u u i i i i e T U.Z.~ ' *.i.G.H.H.H.H.G.d.0.&.} v -                 ",
"                        o = I 8.W k B y i e 8 8 8 8 8 8 8 8 8 8 8 8 e i y F E R ~ ' $.y.G.V.B.B.V.G.d.0.&.} v - .               ",
"                        o = U 8.W k t y i e < < ; < < < < < < 6 ; ; 8 i i q 2 g ^ ' $.y.H.c.z.z.x.G.d.q.&.} v = .               ",
"                        o = D O.J l t i i e < 7 6 6 6 6 6 6 6 6 6 < w i y r f x ~ ' $.y.J.K.b.b.K.G.d.5.=. .n = .               ",
"                        o = M | S l B i i w < < 6 < 6 6 6 6 6 6 6 < 8 i y r s x ^ ' $.y.J.P.M.M.P.D.d.6.:.o.m = .               ",
"                        o = M | S l B e 7 6 < 6 < < < < 6 6 6 6 6 < 6 6 e t s j ~ ' $.y.H.L.n.n.P.J.d.e.:. .v =                 ",
"                        o 4 M X.S l B e < < 6 6 < < < < < < < < 6 6 < < e r s x ^ ' $.u.D.L.n.M.P.J.d.e.=.} v ; .               ",
"                        o = M | S l B e 6 6 6 6 < ; % % % % & < 6 < 6 < e r s x ^ ' $.i.G.P.n.n.P.D.A.6.*.} v ; .               ",
"                        o ; M ..S l B e 6 6 < < ; % % % % % % ; < 6 6 < e t s l ~ ' $.y.J.L.n.n.P.J.d.6.o.} v ;                 ",
"                        o ; M | S l B y 6 6 6 ; % % % % % % % % ; 6 6 < e i s l ^ ' $.y.H.P.n.m.P.J.s.6.&.} v ; .               ",
"                        O 5 M ..S l t e 6 6 6 ; % ; % % % % % % ; < 6 < e r s l ^ ' $.i.J.I.n.n.P.G.a.6.&.} v ; .               ",
"                        O 5 M ..S l t e 6 6 6 ; % % % % ; % % % ; 6 6 < e r s C ^ ' $.y.J.I.m.n.P.G.a.0.&.} v =                 ",
"                        o ; M ..S l B e 6 6 6 ; % * % % % % % % ; 6 6 6 e r s j ^ ' $.y.J.C.v.v.c.J.a.0.&.} v ; .               ",
"                        o 3 M ..S l B e 6 6 < < % % % % % % % % ; < < < e r s j ~ ' $.y.J.N.c.x.N.J.a.0.&.} v ;                 ",
"                        o ; M ..S l B e 6 < < ; % % % % % % % % ; < 6 < e r s C ^ ' $.y.G.G.G.G.S.J.a.0.&.} v = .               ",
"                        o = M ..S l B e 7 6 < ; % % & % % % % % ; 6 6 6 w r s x ~ ' $.y.G.S.S.G.S.G.d.q.-.} v - .               ",
"                        o = M ..S l B e 6 < < ; % % & % & % % % ; 6 6 < e r s x ^ ' $.y.H.S.S.S.S.D.s.7.o.} v -                 ",
"                        o = M ..S l t e 6 6 6 ; % % % % % % % % ; < 6 < e r s x ^ ' $.y.G.G.S.S.F.j.h.g.,.{ v - .               ",
"                        o 4 M ..J l t e 6 6 6 ; % % % % & % % % ; < < < e r s x ^ ' $.y.G.G.G.S.l.1.1.1.<.{ v = .               ",
"                        o ; M ..S l t e 6 < < < % % & % % % % % ; < 6 < e t s x ! ' #.i.J.G.S.S.F.l.k.w.,.{ v = .               ",
"                        o 4 M ..S x t e 6 < < ; % & % % % % % % ; < 6 < e V s x ^ ' #.i.H.G.G.F.S.D.s.5.&.} v = .               ",
"                        o = M ..S l B r 6 6 6 ; % % % % & % % % ; < < < e r s x ! ' #.i.G.G.G.G.G.G.a.6.&.} b =                 ",
"                        o 4 M ..S x t u 6 6 < ; % % & % % % % % ; < 6 < e r s x ` ] #.i.H.G.G.G.G.G.a.6.&.} v ; .               ",
"                        o = M ..J x t e 6 6 6 ; % % % % % % % % ; 6 6 < e r s x ^ ] #.i.G.S.S.G.G.G.a.6.&.) v = .               ",
"                        o = M ..S x B e 6 6 6 < % % % % % % & % ; 6 6 < e r s x ^ ' #.i.G.S.G.G.G.G.a.6.&.} n =                 ",
"                        o 4 M ..S l t r 6 6 < ; % ; & % % % % % ; < < < e r s x ^ ' #.y.J.F.S.G.G.G.a.6.&.} v = .               ",
"                        o ; M ..S l t e 6 < < ; % % % % % % % $ ; < < < e r s x ! ' #.y.G.G.G.G.S.G.a.6.&.} v = .               ",
"                        o = M ..S l t e < < < < % % % % < < < % ; 6 6 < e r s x ! ] ,.y.J.G.F.S.S.G.a.q.&.} v =                 ",
"                        o = M ..S l t u < < < < % % % % < 6 ; % ; < 6 < e t s l ! ] #.y.J.S.S.S.S.H.a.q.&.} v ; .               ",
"                        o = M ..S l t e < < < ; % % % < < ; % % ; 6 6 < e r s x ! [ $.y.G.F.S.S.G.G.a.0.&.} v =                 ",
"                        o 4 M ..S x t e < < < < $ % < < 6 % % % ; 6 6 < e t s l ! _ $.y.J.S.S.S.G.G.a.q.+.} v = .               ",
"                        X = D | S l t e < 6 6 < % < 6 ; % % % % ; < 6 < e t s l ! ] #.y.G.S.G.S.G.J.a.6.&.} v = .               ",
"                        X = D | S l t u 6 < 6 < < < ; % % % % % ; < 6 6 e t f C ! ] 2.i.G.S.S.S.S.G.a.6.&.} v -                 ",
"                        X = D | S l t e < < 6 8 ; ; % % % % % % ; < < < e e : 2 ! ] #.i.J.G.G.G.G.G.d.6.&.} v - .               ",
"                      . X ; D | S l t e 8 w 6 < % % % % % % % % ; < 6 < e w X @ ^ ] #.i.G.F.G.G.G.G.a.q.&.} v = .               ",
"                        o = D ..S l B y 8 8 w * % % % % % % % % ; 6 6 5 e y 2 s ^ ' #.i.H.S.G.S.G.G.d.6.&.} v = .               ",
"                        o = M ..S l B r 8 8 8 ; % % & % % % & % ; 6 6 6 e B x J ^ ' $.i.G.S.S.G.S.G.a.6.&.} v = .               ",
"                        o 4 M ..S k B e < 6 6 ; % % % % % % % % & 6 5 4 w B x A ^ ' #.i.H.G.G.G.G.G.a.6.&.} v ;                 ",
"                        o = M ..S l B e 6 6 6 < % & % & & % % % ; 6 5 5 e B x c ! ' #.t.S.A.A.A.A.G.a.6.%.} v ; .               ",
"                        o ; D ..S k B r 6 7 6 ; % % % % % % % % ; 6 6 < e V c J ^ ^ ^ 2.e.e.e.q.r.J.d.6.+.} v = .               ",
"                        o = M  .S k q w < < < ; & & ; * ; & & & ; < 6 < 8 q h x ^ ^ Q $.3.2.2.2.5.f.p.6.&.} v ;                 ",
"                        O = D O.W k 1 5 5 < 7 5 < < 6 < , 7 , 5 1 < 6 7 5 5 = v ` ^ ^ )  .)  .{ X.q.q.e.&.} v ; .               ",
"                        . ; 0 H b a @ + + + O + $ $ $ $ + O + + O + $ $ $ $ O > M H ^ )  .{ { {  .-.-.-.X.} v ; .               ",
"                        o 7 5 4 4 4                                           o 3 v ^ { .. ... .} ) } ) } } v -                 ",
"                          O O O O O                                             O > b b b m N  .}  .}  .{ } v - .               ",
"                                                                                  O 4 = 4 4 8 '  .) } { {  .d =                 ",
"                                                                                    . . . . o 9 0 0 0 0 0 0 7 , .               ",
"                                                                                              - = - ; = = = ; -                 ",
"                                                                                                .             .                 ",
"                                                                                                                                ",
"                                                                                                                                "
};
