/* XPM */
static char *result[] = {
/* columns rows colors chars-per-pixel */
"80 80 233 2 ",
"   c #000000",
".  c #0A0504",
"X  c #0A0807",
"o  c #07090A",
"O  c #0A0909",
"+  c #130A05",
"@  c #1A0D08",
"#  c #1E120C",
"$  c #0B1414",
"%  c #111213",
"&  c #151618",
"*  c #151D1E",
"=  c #1E1D1F",
"-  c #250D01",
";  c #2C1408",
":  c #161E20",
">  c #1E1F21",
",  c #201E21",
"<  c #142324",
"1  c #1E2122",
"2  c #142729",
"3  c #132E2E",
"4  c #193637",
"5  c #222527",
"6  c #292C2E",
"7  c #252E32",
"8  c #292E31",
"9  c #233236",
"0  c #2B3033",
"q  c #223539",
"w  c #293739",
"e  c #23393C",
"r  c #343B3A",
"t  c #450E00",
"y  c #480D00",
"u  c #441100",
"i  c #4A1905",
"p  c #4A1D06",
"a  c #531A00",
"s  c #671D00",
"d  c #721B00",
"f  c #4D230D",
"g  c #51240C",
"h  c #472A17",
"j  c #5B2A13",
"k  c #4E311C",
"l  c #672100",
"z  c #6B2300",
"x  c #6A2806",
"c  c #762903",
"v  c #742A03",
"b  c #792D05",
"n  c #7D3109",
"m  c #632F16",
"M  c #6A351C",
"N  c #7D3B19",
"B  c #4C3B2D",
"V  c #613624",
"C  c #5A4839",
"Z  c #6A4B36",
"A  c #724C36",
"S  c #233E40",
"D  c #184848",
"F  c #1A4F50",
"G  c #1C5253",
"H  c #214D4E",
"J  c #6D5148",
"K  c #775546",
"L  c #5D6350",
"P  c #6A6B54",
"I  c #596D70",
"U  c #6F7573",
"Y  c #697579",
"T  c #84340C",
"R  c #89350B",
"E  c #8A350C",
"W  c #833513",
"Q  c #8C3C16",
"!  c #873C18",
"~  c #843D1C",
"^  c #953E16",
"/  c #854218",
"(  c #8E411E",
")  c #92411D",
"_  c #9A4419",
"`  c #A34719",
"'  c #A4491A",
"]  c #AD4E1D",
"[  c #B04E1D",
"{  c #AE501D",
"}  c #B3521E",
"|  c #B9521D",
" . c #8C4321",
".. c #894525",
"X. c #944623",
"o. c #9A4622",
"O. c #934926",
"+. c #9C4923",
"@. c #934A28",
"#. c #9D4D2A",
"$. c #8E5333",
"%. c #985B39",
"&. c #A24C24",
"*. c #AA4E22",
"=. c #A34D28",
"-. c #A3532E",
";. c #AA5429",
":. c #B45322",
">. c #BA5925",
",. c #B75729",
"<. c #AB5735",
"1. c #B35A31",
"2. c #B55D39",
"3. c #9D6331",
"4. c #A26C36",
"5. c #B36B36",
"6. c #B7613E",
"7. c #C3531F",
"8. c #C15520",
"9. c #C45B27",
"0. c #CA5F2B",
"q. c #D35D25",
"w. c #C5602C",
"e. c #CC612C",
"r. c #D1642D",
"t. c #C76638",
"y. c #D26631",
"u. c #D96C37",
"i. c #D36D3B",
"p. c #DF713A",
"a. c #E5743C",
"s. c #F8793E",
"d. c #A36548",
"f. c #BA6949",
"g. c #B9765A",
"h. c #AC7D6A",
"j. c #C76946",
"k. c #CB6946",
"l. c #D47244",
"z. c #DD7847",
"x. c #D37349",
"c. c #D1734C",
"v. c #E97A46",
"b. c #F67B42",
"n. c #F97B42",
"m. c #928459",
"M. c #A3895B",
"N. c #AD816D",
"B. c #BC856B",
"V. c #A98474",
"C. c #B28977",
"Z. c #D2945B",
"A. c #ED814D",
"S. c #F78346",
"D. c #FD8246",
"F. c #F3834E",
"G. c #FC864D",
"H. c #FF894C",
"J. c #FF904F",
"K. c #EF8451",
"L. c #F28551",
"P. c #FC8751",
"I. c #FD8951",
"U. c #E79956",
"Y. c #C18467",
"T. c #D49A61",
"R. c #DA9C62",
"E. c #E39E63",
"W. c #DBA066",
"Q. c #E5A162",
"!. c #EAA467",
"~. c #F5A763",
"^. c #FCAA62",
"/. c #FEB366",
"(. c #FFB569",
"). c #FFB869",
"_. c #5B7A80",
"`. c #2FA4A3",
"'. c #3AA5A5",
"]. c #3AB5B5",
"[. c #38B8B7",
"{. c #37B8B9",
"}. c #38B9B9",
"|. c #5D838A",
" X c #539399",
".X c #69878C",
"XX c #708388",
"oX c #6C8891",
"OX c #6C8C94",
"+X c #6D8F98",
"@X c #6D9097",
"#X c #67979D",
"$X c #6C939B",
"%X c #72969D",
"&X c #669CA4",
"*X c #6B9AA2",
"=X c #719BA3",
"-X c #719FAA",
";X c #4BB6B7",
":X c #67A5AB",
">X c #66A4AC",
",X c #69A5AC",
"<X c #72A1A8",
"1X c #65ACB3",
"2X c #6AAAB2",
"3X c #66B3B9",
"4X c #63B4BB",
"5X c #65B9BF",
"6X c #50BFC2",
"7X c #65BCC2",
"8X c #68BFC5",
"9X c #3DCACA",
"0X c #48C7C7",
"qX c #5DC4C9",
"wX c #57CFD2",
"eX c #49DADA",
"rX c #57D7D9",
"tX c #63C4C9",
"yX c #61D0D3",
"uX c #46E1DF",
"iX c #53DFE0",
"pX c #46E1E0",
"aX c #4CE6E6",
"sX c #52E2E3",
"dX c #53E6E9",
"fX c #53EBEC",
"gX c #59E8E9",
"hX c #53EEF0",
"jX c #4FF3F3",
"kX c #53F3F4",
"lX c #56F6F7",
"zX c #54FCFD",
"xX c #B5968A",
/* pixels */
"                                                                                                                                                                ",
"                                                                                                                                                                ",
"                                                                                                                                                                ",
"                                                                                                                                                                ",
"                                                                                                                                                                ",
"                                                                                                                                                                ",
"                                                                          .   .   .     + # @ @ # @ +                                                           ",
"                                                                      .   4 D D D D G < x _ ) ! T ) j X                                                         ",
"                                                                .   4 G D 9XhXrXsXdXeXP q.J.(.3.[ A.#.p O                                                       ",
"                                                            X o 4 4 ;XlXgXgX7X#X#XoXK r.I.~.E.~ :.F.O.T M O                                                     ",
"                                                          . 4 4 0XkX:X$X%X+XiXyXXXA 9.n./.^.v.~ } P.X.:.u.j O                                                   ",
"                                                      . 3 D ;XgXaXqX$X$X=X_.'.'.V 9.G.G.U.U.v...} G.o.{ A.-.p                                                   ",
"                                                    X 4 9XkX>X+XOXwXtX.XI 4 X o u 0.D.).4.] K.~ } P.o.{ K.#.k 4 .                                               ",
"                                                  . 3 0XkX4X$X#X*X.X0XG   1 8 6 m r.D./.4.[ L.~ } G.o.{ K._ P '.* .                                             ",
"                                                  4 0X2X$XwXtX|.I 7 o 1 8 8 8 f e.D.s.).4.[ G.^ } I.o.] K.#.d U ].<                                             ",
"                                              X 4 6X2X@X$X*X;X4   5 8 7 8 8 8 f w.H.S./.3.[ G.^ { P.+.] F.-.d A tX'.< X                                         ",
"                                              O 9X7X+X$X*X.X< > 0 6 8 8 6 6 6 j y.n.^.W.W :.P. .{ P.X.{ P.;.c $..XwX`.                                          ",
"                                            O 2 0XhX1X*X.X< > 8 6 6 8 8 0 0 g 9.H.n.^.Q.W :.P.^ } F. .{ I.&.*.9.L zX'.& o                                       ",
"                                            $ eX1X*XrX X1 > 8 8 8 8 8 8 6 8 g 9.H.n.^.R.W :.P.) } K. .] H.+.{ 0.Z *XtX'.                                        ",
"                                          X 4 eX:XOX*X> : 0 8 8 8 6 8 6 6 9 f 9.H.n.^.R.W :.P.( { L. .[ I.+.] q.Z $X7X].< $                                     ",
"                                          $ eX&XOX$X.X: > 0 6 6 8 8 8 8 6 6 j e.G.b.^.R.W :.P.^ } L. .{ P.&.*.e.Z $X.X7X}.                                      ",
"                                          3 eX3X,X%X: 1 8 8 8 8 8 8 8 6 0 f 9.H.n./.R.k.) :.H.) { G.X.] G.&.' A._ Z >XqX6X* .                                   ",
"                                        $ 0X:XrXfX X& 1 8 8 8 8 8 8 6 8 8 f e.H.b.(.T.k.) | K.~ } I.o.{ H.&.' L._ L zXqX5X[.o                                   ",
"                                        $ 0X1X#X#X< 1 8 6 8 8 8 6 6 8 8 6 g e.H.s./.R.k.) :.K.~ } H.o.] P.&._ P.*.Z $XOX5X}.X                                   ",
"                                        o 0X4XOX#X* 1 8 8 6 8 8 8 8 8 6 8 g e.H.n.).W.k.X.[ K./ } P.o.] I.&.` S.,.y w %X7X{.                                    ",
"                                      X 2 0X:X@X.X: 1 0 8 8 8 8 8 8 8 8 8 f e.H.a.Q.Z.<.W >.L.~ } L. .] P.+.' F.1.y 9 %X1X;X& o                                 ",
"                                      $ eX4X&X>X< 1 8 6 8 8 6 8 8 8 6 6 0 g w.D.' n T T z [ z.N :.L. .} F.O.' A.=.t e ,X&XtX].X .                               ",
"                                    . $ pXjXjXkX3 = 0 8 8 8 8 8 8 8 8 8 8 g r.:.>.S.b.H.] c T z :.v.~ } L.O.' A.-.y G zXaXzX{.o                                 ",
"                                      $ pX3X*X&X: 1 0 6 8 8 8 0 8 8 8 8 8 g y.*.>.A.f.f.x.v.v.:.n Q v *.z. .' F.-.t w ,X#XtX[.X .                               ",
"                                    . $ pX,X+X$X* 1 0 8 8 6 8 8 8 6 8 6 8 f y.:.>.x.<.V.N.t.f.x.v.b.,.n E v _ z.#.t q =XOX5X[.X                                 ",
"                                      $ pX,X$X$X* 5 6 6 8 8 8 8 8 8 8 8 8 g 9.I.' v v @.f.6.N.C.6.f.x.b.F.w.c T T u 9 *XoX7X{.X .                               ",
"                                      $ pX1X*X&X: 1 8 6 8 8 8 8 8 8 8 8 8 g e.H.S.] z b b z  .f.5.N.C.j.f.c.a.b.9.z J &X&X8X[.X                                 ",
"                                    . $ pXhXdXsX3 , 8 8 8 8 8 8 8 8 0 6 8 g e.H.n.~.T.) z b b b v  .f.<.N.C.j.f.c.8.P hXiXzX[.. .                               ",
"                                      $ pX1X#X*X: , 0 8 8 8 0 8 8 8 8 6 8 g 0.H.n./.R.j.^ ,.t.l c c v v ( f.5.h.xX*.A &X+X7X[.o                                 ",
"                                      $ pX:X+X$X: , 0 8 8 8 8 8 8 8 6 8 8 g 0.H.n./.R.k.) :.F.W >.,.l v v b v  .g.&.A *XOX5X{.X .                               ",
"                                      $ uX1X+X$X: > 8 8 8 8 8 8 8 8 8 8 8 g 0.H.n./.E.k.~ :.L.~ :.A.~ { w.x b b T a 0 =XoX7X[.X                                 ",
"                                      $ pX1X&X&X: > 0 8 8 8 8 8 8 8 8 8 8 g e.H.n./.E.k.~ :.v.~ } L...} F. .] w.c u e -X$XtX[.. .                               ",
"                                      $ pXkXfXfX3 > 0 8 8 8 8 8 8 8 8 8 7 g 0.H.b.(.E.j.! :.L.~ } L.( { L.@.' A.-.y G lXdXzX{.X                                 ",
"                                    X $ pX7X&X,X: > 8 8 8 8 8 8 8 8 8 8 7 g 0.H.b.(.R.$.k 8.K.~ } I.+.{ L.O.' A.-.t 4 2X&XtX{.X .                               ",
"                                      $ pX,X+X$X: > 0 8 8 8 8 8 8 8 8 8 8 g 0.H.b.(.M.U I %.L.~ } I.+.{ L.O.' A.-.u 7 =XoX7X[.X                                 ",
"                                      $ aX,X$X$X: > 0 8 8 8 8 8 8 8 6 8 8 g 0.H.b.).m.Y Y %.v.~ } G.o.{ F.O.' F.1.t 9 =XOX7X{.X .                               ",
"                                      $ pX2X$X*X: > 0 7 8 8 8 8 8 8 8 8 7 g 0.H.n.).m.Y Y %.L.~ } I.o.{ F.X.' F.1.t q =XOX7X}.X                                 ",
"                                      $ pXjXdXsX3 > 8 8 8 8 8 8 8 8 6 8 8 g 0.H.n.(.R.J B :.L.( } I.o.{ I.=.` F.1.y F kXdXlX[.X .                               ",
"                                    . $ pX4X&X>X: > 0 8 8 8 8 8 8 6 8 8 8 g 0.H.n.(.E.J h 9.P.^ :.H.o.] I.&.` G.1.t e 2X&XqX}.X                                 ",
"                                      $ pX>X+X$X: , 0 8 8 8 8 8 8 8 8 8 8 g 0.H.n.^.~.K h 7.P.X.} L. .] P.=.` G.1.t 9 =XoX5X[.X .                               ",
"                                      $ pX>XOX#X: > 0 8 8 8 8 0 8 8 8 8 8 g 0.H.n.(.~.A h 8.L.( } L. .{ P.=.' F.-.t 9 *XOX5X[.X                                 ",
"                                    . $ pX1X$X*X: , 0 8 8 8 8 8 8 8 8 6 8 g e.H.n.(.E.K h 8.P.^ } L. .{ L.o.*.v.;.t 4 -X+X7X[.X .                               ",
"                                      $ pXjXhXhX3 > 0 8 8 8 8 8 8 8 6 0 8 g 0.H.n.(.E.K h >.L.X.} I.o.] L.O.' L.1.y G lXfXzX[.X                                 ",
"                                      $ pX7X2X1X< = 8 6 8 8 8 8 8 8 8 8 8 g 0.H.n.^.E.J k 8.L.Q { I.o.{ L.O.` S.1.t e 3X>XyX[.X .                               ",
"                                      $ pX,XoX$X* 5 8 8 8 8 8 8 8 8 8 8 8 g 0.H.n./.M.U I %.P.X.} I.o.[ L.@.' F.1.t 9 %X.X5X[.X                                 ",
"                                      $ pX2X$X$X* 5 0 8 8 8 8 8 8 8 8 8 7 g 0.H.n.(.m.Y U $.L...} P.+.] P.=.' S.1.t 9 =XOX7X[.X .                               ",
"                                    X $ pX,X+X$X* , 8 8 8 8 8 8 8 8 8 8 8 g 0.H.b.).m.Y Y %.b.~ :.I.o.{ P.=.' F.1.t q =XOX7X[.O                                 ",
"                                    . $ uXfXsXsX3 , 0 8 8 8 8 8 8 8 6 8 8 g 0.I.n./.T.J B ,.v.~ } L. .} P.=.' F.;.y H hXrXlX{.O .                               ",
"                                      $ uXtX1X1X< > 0 8 8 8 8 8 8 8 6 8 8 g 0.H.n.(.R.f.~ | L...>.L. .[ L.O.' A.;.y D 3X>XwX{.O                                 ",
"                                      $ pX:XOX@X* , 8 8 8 8 8 8 8 8 8 8 8 g 0.G.n./.T.k.) } L.^ } L. .[ F...' K.-.t 9 %XoX3X{.X .                               ",
"                                      $ uX2X$X#X: , 8 8 8 8 8 8 8 8 6 8 8 g 0.G.n./.E.x.X.:.I.^ } L. .[ F.O.] u.n s C =XOX7X[.O                                 ",
"                                      $ pX,X@X$X: 1 8 8 6 8 8 8 8 8 6 8 8 g 0.H.n./.Q.k.Q } I.X.} L.( :.i.v b *.p.,.v P OX7X{.X .                               ",
"                                    . $ pXfXsXiX3 > 0 8 8 8 0 8 8 8 0 6 8 g 0.H.n.(.Q.k.Q } L.~ >.i.x b :.p.u.i.c.j._ Z sXkX[.X                                 ",
"                                    X $ pXtX1X4X< , 0 8 8 8 8 8 0 8 6 6 8 g 0.H.n./.Q.k./ >.l.x b :.u.u.i.c.i.Y.V.f.;.Z 3XyX[.X .                               ",
"                                      $ pX:XOX+X* > 8 8 8 8 8 0 6 8 8 0 8 g 0.H.b.(.!.&.v n :.y.r.i.l.l.B.V.6.g.d.W A XXoX3X{.X                                 ",
"                                      $ pX1X$X$X* > 8 8 8 8 8 8 8 8 6 8 7 g 0.I.,.( ! *.p.r.i.x.l.B.V.2.g.d.T W T y r -XOX7X}.O .                               ",
"                                      $ uX:XOX$X* > 8 8 8 8 8 8 8 8 8 8 8 g e.w.:.y.e.i.l.l.B.h.6.g.d.W Q T l l c u 9 %XoX3X[.O                                 ",
"                                      $ pXfXaXrX3 , 0 8 8 8 8 8 8 8 8 6 8 g y.*.9.L.l.C.h.6.g.d.Q Q b l z l _ t.o.y H gXrXlX[.X .                               ",
"                                    . $ pXqX4X5X2 , 8 8 8 6 8 8 6 8 8 8 8 g y.*.>.z.f.g.%.T Q b l z l ' t.! ' P.1.y D tX4XyX}.X                                 ",
"                                      $ uX,XOXOX* 5 0 6 8 8 8 8 8 6 8 8 8 g e.v.*.Q Q Q b l l l ' i.Q } I.=.' F.1.t 9 %X.X3X}.X                                 ",
"                                      $ uX2X@X$X* = 8 6 8 6 8 8 8 8 8 6 8 g 0.H.p.R s l l ' t.N >.I.+.] G.&.' F.<.u q =XOX7X}.X                                 ",
"                                    . $ aX2X$X=X* 5 6 6 8 6 6 8 8 6 8 8 8 g 0.H.G.U.5.1.n >.I.) :.P.o.] G.=.` A.-.u q <X+XtX}.+ .                               ",
"                                      $ H e 0 w o % % % % % % $ % % % $ $ i e.H.s.).!.x. .:.I.^ :.L.X.] H.=.` A.-.a $ w 0 S D +                                 ",
"                                        .       o X o X X X o X X . o X o p e.H.n.^.R.k.) } P.) } F. .} L.X.*.a.M # X   .                                       ",
"                                                                          p e.H.n./.R.k.) } I.) } K...} F.#.E A +                                               ",
"                                                                          f 0.H.n./.R.k.) :.I.) :.F.( :.a.m - @                                                 ",
"                                                                          p e.H.n./.R.k._ } L.~ } K.@.E ~ +                                                     ",
"                                                                          p e.H.n./.R.t.Q :.K.~ >.a.m ; @                                                       ",
"                                                                          p e.H.n.^.R.f.~ :.K. .^ N +                                                           ",
"                                                                        o p e.H.n.^.R.f.~ >.v.g - +                                                             ",
"                                                                          p w.G.b./.R.f.) _ / .                                                                 ",
"                                                                          f r.H.n.).W.<.m ; #                                                                   ",
"                                                                          # / :.*.1.-.j .                                                                       ",
"                                                                            + - - - - +                                                                         ",
"                                                                                                                                                                "
};
