/* XPM */
static char *_8866decfa87493ea0e3d7055b321c37tyroeN4ANrrrTqiG[] = {
/* columns rows colors chars-per-pixel */
"64 64 98 2 ",
"   c #010101",
".  c #080606",
"X  c #070807",
"o  c #0B0B02",
"O  c #050509",
"+  c #080709",
"@  c #070909",
"#  c #0B0A0B",
"$  c #110E0D",
"%  c #0E110E",
"&  c #131302",
"*  c #1B1B04",
"=  c #13130C",
"-  c #0E0C10",
";  c #0E0F19",
":  c #110E11",
">  c #100B1C",
",  c #0D1111",
"<  c #131313",
"1  c #181516",
"2  c #171816",
"3  c #1B1B17",
"4  c #16151A",
"5  c #1A1619",
"6  c #1A191B",
"7  c #211D17",
"8  c #202000",
"9  c #252504",
"0  c #23241F",
"q  c #1C1F20",
"w  c #201D20",
"e  c #1F2520",
"r  c #424101",
"t  c #464600",
"y  c #575600",
"u  c #595803",
"i  c #5F5D00",
"p  c #5C5B06",
"a  c #52500B",
"s  c #605E00",
"d  c #615F01",
"f  c #646201",
"g  c #656400",
"h  c #686600",
"j  c #6D6B01",
"k  c #7E7C00",
"l  c #7E7D00",
"z  c #838200",
"x  c #858300",
"c  c #848303",
"v  c #858500",
"b  c #898700",
"n  c #8B8A02",
"m  c #8D8A00",
"M  c #918E00",
"N  c #918E0B",
"B  c #939000",
"V  c #949202",
"C  c #969400",
"Z  c #989600",
"A  c #9C9A01",
"S  c #A19E00",
"D  c #A4A101",
"F  c #A9A600",
"G  c #B7B600",
"H  c #B8B600",
"J  c #CFCD00",
"K  c #D2CE00",
"L  c #D5D100",
"P  c #D5D300",
"I  c #DADA00",
"U  c #DDDB00",
"Y  c #DCDA01",
"T  c #DEDC00",
"R  c #DFDC00",
"E  c #E1DD01",
"W  c #E5E300",
"Q  c #E8E600",
"!  c #E9E700",
"~  c #EAE800",
"^  c #EBE900",
"/  c #EDEA00",
"(  c #ECEB00",
")  c #EFED00",
"_  c #F0EE00",
"`  c #F1EF00",
"'  c #F0EE01",
"]  c #F2F000",
"[  c #F5F300",
"{  c #F6F300",
"}  c #F8F500",
"|  c #F9F600",
" . c #FAF700",
".. c #FCF900",
"X. c #FCFA00",
"o. c #FDFA00",
"O. c #FDFB00",
"+. c #FFFD00",
/* pixels */
"    O                                       O         X               O     .           < O         .             O             ",
"  O 4   . .   .                                                     . 4                 4                       .               ",
"        . 7               .     O       O     .                           # .       #                                           ",
"              # O                             O                 O                   O         O         O                       ",
"              # O         .                 #               O   O       O X #           O                 O @                   ",
"      % X         O     O                             O                 # O O                               @                   ",
"      #                                 O                 X           O               O X                                       ",
"O       O     X           O       # <   #                 O                                 . .                                 ",
"              # =         O       . < X                                               O     . O   O                       O #   ",
"    X   O     # <                   # 2       O                     O               6 4 O                                 # #   ",
"                                    O     X     O                 O     X           < .                     O X                 ",
"O                     O   .             O       . O       # .           O     . O                                               ",
"    O O             4 #                           .       X .     # O   # .       .                                             ",
"                  # q       O   O   O           O                 >                         #               O #                 ",
"    #     O # X # X                 2 #         9 f i f d d d d f f i i i i f 8   X         <         O     O ,           + #   ",
"    @ 1 #   < X                 X       . . .   y +.{ { } } } } { } { } [ [ +.u   $ o                                     # 6   ",
"      $ #         O O     O .   O   O           t ] ^ ^ ^ ^ ^ ^ ^ ! ^ ! ! ^ { a                           O                     ",
"    O < 4                 . O       & l x z x l F ) ^ ^ ^ ) ^ _ ) ^ ) ) ) ^ _ F l z z v l X                         O       O O ",
"      + X O                   # .   * _ +.o.o.o.} ^ ^ ) _ ^ _ ^ ) ^ ) ^ ) ) ^ } o.o.o.+.^ &                 . $                 ",
"                    O     O X : ;   o I ^ ! ^ ! ^ ) ) _ ^ _ ^ _ ) ) ) ^ ) ^ ) ^ ! ^ ! _ P .     O             .                 ",
"    O     X O                 X N m C Q ) ! ) ^ _ ^ ) ^ _ ^ _ _ ) ) ) ! ^ ) ) ^ ^ ) ^ ) W M m x &                               ",
"  O       #                   & ^ +.} ) ) ) ^ ) ^ ^ ^ _ ^ _ ^ ^ ^ ) ) ) ) ^ ^ ) ) ^ ) ) _ } +.) &                         #     ",
"                      X #     & I ^ ^ ) ) ^ ) ) _ _ _ _ _ _ ^ _ ) ^ ) ^ ) ) ) ^ ^ ) ^ ) ) ! ^ U &   .         X         . < O   ",
"                      # <   O & E _ ^ ) ^ ) ^ ) ^ _ ^ ^ _ ^ _ _ ) ) ) ) ^ ) ) ) ) ) ) ^ ^ ) _ U & # X           #     . # =     ",
"O                     O     O * E ] ^ ) ) ^ ) ) ^ ) ^ ) _ ^ _ ^ ^ ) ) ^ ) ) ^ ) _ ^ _ ' ^ ^ _ E *   $               5 6 6       ",
"  O       X   O $     O     X * E _ ) ^ ^ ) ) ) ) ) ) ^ ^ _ ^ _ ^ ) ^ ) ) ^ ) ) ^ ' ' ^ ^ _ _ E &           O O     X O #       ",
"                      O o S H H ! ) ^ ) ) ) ) ^ ) ) ^ ) _ ^ ^ ^ ^ ) ) ) ^ ) ^ ) ^ _ _ ^ ' ^ ' ! H G S o O         .             ",
"              O         o U o.{ ^ ) ) ^ ^ ) ) ) ) ^ ) ) ^ _ _ ) _ _ ^ ^ ^ ) ^ ) _ ^ ' _ ^ ' ^ ' { o.U = X         < <         O ",
"O             X         o K _ ! ) ) ^ ) ) ) ) ) ^ ) ) ^ ) ) Q I I Q ) ^ ) ) ^ ) ^ _ ^ ^ _ ^ _ ^ ! _ K =     O 4 O     #         ",
"  . #                   o K { ^ ^ ^ ) ^ ^ ) ^ ) ) ) ^ ) ! o.C o O C o.^ ^ _ ^ ) _ _ _ ' ^ _ ^ ^ ^ _ P o O     X     # <   #     ",
"            @ .         o P { ^ ) ) ^ ) ) ^ ) ) ^ ^ ) ^ ! ..n     b o.! ^ ) ^ _ _ ^ ^ _ _ ^ _ _ ^ { P o     O               O   ",
"            # O . X     o P { ^ ) ) ) ) ) ) ) ( ) ) ^ ) ^ o.v     m o.^ ^ ) ) ^ ^ _ _ ^ _ _ ^ _ ^ ] P =       # O               ",
"        X O             o K { ^ ) ^ ) ) ^ ) ) ^ ) ^ ) ^ ^ o.m     b ..Q ^ ) ) ) ) ^ ) ^ ) ) ) ^ ^ ] P o   #   < .               ",
"        $ <             & P _ ( ^ ) ) ! ) ) ) ) ^ ) ) ) ) +.N     m +.) ) ^ ) ! ) ) ) ) ^ ) ) ) ^ [ P &           O             ",
"    .   = <       O     o K [ ( ) ) ) ) ) ) ) ^ ) ^ ) W P W c     c Q L W ) ^ ) ) ^ ) ) ) ^ ) ^ ) ] P &               .         ",
"        O X             o P _ _ ( ( ) ) ^ ) ) ! ) ^ o.m O & o     o & . C ..^ ^ ) ) ^ ) ) ) ) ) ( ] P o   .             O       ",
"  .         # .         o P { ^ ) ^ ) ) ) ) ) ) ) ! +.v       .     - O n ..^ ) ^ ) ) ^ ^ ) ) ^ ( _ P o                         ",
"  O         , .         o P _ ^ ( ) ! ) ^ ) ) ^ ^ ^ o.n   X   O     2 O M o.! ^ ) ^ ) ) ) ) ^ ) _ _ P o   .         #           ",
"O O                     o K _ ^ ) ) ) ^ ( ) ) ( ^ ^ ..b             O   M ..^ ) ^ ) _ ^ ^ _ ) ^ ^ _ P &                   X     ",
"                        o E +.} ^ ! ) ) ) ) ( ) ( ^ o.b                 M ..Q ) ) ) ^ ) ^ ) ^ ) } o.E o       .   O O           ",
"          X   # #   O   . m S S ! ) ^ ) ) ) ) ^ ) ^ ..n O         O     B o.^ ^ ) ^ ) ^ ^ ) ) ^ D S M o       #                 ",
"      O     O                 o U ) ) ^ ) ^ ^ ) ^ W [ v       #         M } Q ^ ^ ) ) ) ) ^ _ U o                               ",
"                      # .     & U ] _ ) ) ^ ) ) _ o.+.B   O   # #       A +.} ] ^ ) ^ ) ^ ) ) U &                         = #   ",
"  #               O   : #     & U [ ^ ) ) ) ^ _ J C D p           .     i D B J ] ^ ) ^ _ ^ ) U &     . O         #       #     ",
".         .       O           & I ) ! ) ) ^ ^ ..C                             B o.^ ^ ) ^ ^ ) I &       O       O 3     O       ",
"    #     O O             =   & ^ +.| ^ ! ) ^ ..Z                   O   = e   C o.! ) ) ^ ..+.^ &   O                         O ",
"                          =   X z v B Q ) ^ ! X.Z   O               @   O X   Z ..^ ^ ^ Q m n z o                             O ",
"                                    = I ) ^ ! [ C   .   O .                   C [ ^ ^ ) P .                           O         ",
"                    O O             8 ( o.} } +.S   O               #     X   S +.[ } o.Q &                                     ",
"                                  1 o d f f h j r                   X         r j f g g i .                                     ",
"    .             O               <                   .   . #                                   O   O .         O   # <         ",
"                              O       . #     .       O     O             O     X   # X .                             #         ",
"                                      O     O     O                                               X                             ",
"                                    O       .         ,                         .                                             O ",
"            O             O .     #   6 +             @ O           -                                     O             . #     ",
"      O   O 5     O #       X O     O # . O                 O     . 4                       O             6 O                   ",
"            O                                   O         # 3                                                   O     #         ",
"  O                                             .                                                 .       X     0 .           # ",
"            O     O                 O                       #                 O                           <   # 6       O O   # ",
"          # O                       <         O                       X     #                             O     X         # <   ",
"          O                   O     <                         . #   O                               O <   O                 O   ",
"                          O                             X     O :   X             X                   #                         ",
"      .             O                                     .                       : $   O O           .                         ",
"  # O                                       O               O       O     % <   #       #           .                           "
};
