/* XPM */
static char *bae3a9f46adb491af68bea725493fd72Las6udbnPY7i98OU[] = {
/* columns rows colors chars-per-pixel */
"80 80 113 2 ",
"   c black",
".  c #030300",
"X  c #030400",
"o  c #040400",
"O  c #070702",
"+  c #0B0B00",
"@  c #090902",
"#  c #0E0E02",
"$  c #111103",
"%  c #131402",
"&  c #191903",
"*  c #1C1C02",
"=  c #1C1C05",
"-  c #222203",
";  c #242403",
":  c #262603",
">  c #282803",
",  c #292903",
"<  c #292A04",
"1  c #2C2C04",
"2  c #303003",
"3  c #323203",
"4  c #373703",
"5  c #303104",
"6  c #363604",
"7  c #373804",
"8  c #393A04",
"9  c #3E3E04",
"0  c #434305",
"q  c #464704",
"w  c #484803",
"e  c #484805",
"r  c #4C4D05",
"t  c #4E4F04",
"y  c #525204",
"u  c #545404",
"i  c #565704",
"p  c #5B5B02",
"a  c #5A5B03",
"s  c #585904",
"d  c #5C5C04",
"f  c #5F6005",
"g  c #626301",
"h  c #636301",
"j  c #646503",
"k  c #616105",
"l  c #646504",
"z  c #676804",
"x  c #6A6B03",
"c  c #6C6D01",
"v  c #696A04",
"b  c #6A6B04",
"n  c #6D6D04",
"m  c #737400",
"M  c #707104",
"N  c #747504",
"B  c #767704",
"V  c #777805",
"C  c #797A04",
"Z  c #7B7C04",
"A  c #858603",
"S  c #808105",
"D  c #8A8B04",
"F  c #888907",
"G  c #828308",
"H  c #858508",
"J  c #949503",
"K  c #969703",
"L  c #919207",
"P  c #979903",
"I  c #999A03",
"U  c #999A04",
"Y  c #9C9D04",
"T  c #9FA004",
"R  c #A6A703",
"E  c #A3A405",
"W  c #A7A804",
"Q  c #AAAB03",
"!  c #AAAB04",
"~  c #B2B304",
"^  c #B4B504",
"/  c #BBBC03",
"(  c #BDBE04",
")  c #BFC003",
"_  c #C6C703",
"`  c #C2C304",
"'  c #C7C804",
"]  c #CBCC04",
"[  c #CDCD04",
"{  c #D0D103",
"}  c #D2D303",
"|  c #D6D703",
" . c #D4D504",
".. c #D7D803",
"X. c #D9DA03",
"o. c #DBDC03",
"O. c #DCDC03",
"+. c #D9DA05",
"@. c #DDDE05",
"#. c #E0E203",
"$. c #E3E403",
"%. c #E7E903",
"&. c #ECED01",
"*. c #EDEE02",
"=. c #EFF000",
"-. c #F1F201",
";. c #F2F402",
":. c #F5F702",
">. c #F6F702",
",. c #F7F901",
"<. c #FAFB00",
"1. c #FBFC00",
"2. c #FFFF01",
/* pixels */
"                                                                                                                                                                ",
"                                                                                                                                                                ",
"                                                                                                                                                                ",
"                                                                                                                                                                ",
"                                                                                                                                                                ",
"                                                                                                                                                                ",
"                                                                                                                                                                ",
"                                                                                                                                                                ",
"                                                                                                                                                                ",
"                                                                                                                                                                ",
"                                                                                                                                                                ",
"                                                                  o                       X o                                                                   ",
"                                                            o           o @ @ # # @ @ X           o                                                             ",
"                                                      o         , k K ( | $.*.=.*.%.O.{ ( Y x 2 o       X                                                       ",
"                                                          ; C ' 2.2.2.2.2.2.2.2.2.2.2.2.2.2.2.1.} A 7       o                                                   ",
"                                                o     9 R :.2.2.2.<.<.1.2.1.1.2.2.1.1.2.1.<.1.2.2.2.2.( y                                                       ",
"                                                  , ! 2.2.2.1.1.1.2.1.2.2.1.1.1.2.1.1.1.1.2.2.1.1.,.2.2.2._ q                                                   ",
"                                          o     Z :.2.2.1.1.1.2.2.1.2.1.2.2.2.2.2.2.2.2.2.2.1.2.2.2.1.1.1.2.2.T %   o                                           ",
"                                        X   ; ` 2.2.1.1.2.1.2.1.1.2.2.2.2.1.2.2.2.1.2.2.2.1.2.1.2.1.2.1.1.1.1.2.$.0                                             ",
"                                      o   e *.2.1.1.2.2.1.2.1.2.2.2.1.2.2.2.1.2.2.2.1.2.2.2.1.2.2.2.1.2.1.2.2.,.2.2.n                                           ",
"                                        k 2.2.<.2.1.2.1.2.1.2.1.1.2.1.2.2.2.2.2.2.2.2.1.2.2.2.2.2.2.1.2.1.2.2.2.1.2.2.F                                         ",
"                                  X   l 2.2.1.2.2.1.1.2.2.2.2.2.2.2.2.2.1.2.1.2.1.2.2.2.1.2.1.2.2.1.2.2.2.1.1.2.2.1.1.2.L                                       ",
"                                X   s 2.2.1.2.1.2.1.2.2.1.2.2.2.2.2.1.2.2.2.2.1.2.1.2.1.2.2.2.1.2.2.2.2.2.2.1.1.1.2.2.<.2.S   o                                 ",
"                              o   7 1.2.1.2.2.2.2.1.2.1.2.2.1.2.2.1.2.2.1.2.2.2.2.2.2.2.1.2.2.2.2.1.2.1.2.1.2.2.2.1.2.1.2.2.k   o                               ",
"                                $ O.2.1.2.1.2.2.2.2.2.1.2.2.2.2.1.2.2.2.1.2.1.2.2.2.2.2.2.1.2.2.2.1.2.1.2.1.2.1.1.2.1.2.1.2.,.5                                 ",
"                                W 2.<.2.1.2.1.2.1.2.2.2.1.2.1.2.2.2.2.1.2.2.2.2.1.2.1.2.2.2.1.2.2.2.2.2.2.2.2.2.2.2.2.1.2.1.2.] o                               ",
"                              u 2.1.2.1.2.1.2.1.2.1.2.1.2.2.2.1.1.2.1.2.2.2.1.2.2.2.2.1.2.2.2.2.2.1.2.2.2.1.2.2.1.2.1.2.1.2.,.2.C   o                           ",
"                            @ X.2.1.2.2.1.2.2.2.2.2.2.2.1.2.2.2.2.2.2.2.2.1.2.2.1.2.2.2.1.2.1.2.2.2.1.2.2.2.1.2.2.2.2.1.2.2.1.2.<.;                             ",
"                        o   N 2.,.2.1.2.2.1.2.2.2.1.2.2.2.1.2.2.2.2.2.2.1.2.1.2.2.2.2.2.2.1.2.1.2.2.2.1.2.2.2.2.2.1.2.1.2.1.2.1.2.U                             ",
"                          # O.2.2.1.2.1.2.2.1.2.2.2.1.2.2.2.1.2.2.1.2.1.2.2.2.2.1.2.1.2.2.2.2.2.1.2.2.2.1.2.1.2.2.2.2.2.1.2.2.1.2.-.;                           ",
"                          d 2.1.1.2.1.2.2.2.2.2.2.2.2.2.2.2.2.2.1.2.2.2.2.2.1.2.2.2.2.1.2.1.2.2.2.1.2.1.2.2.2.1.2.1.2.2.2.1.1.2.<.2.A   o                       ",
"                          / 2.1.2.1.2.2.1.2.1.2.1.2.1.2.1.2.1.2.2.2.2.1.2.1.2.2.1.2.2.2.2.2.1.2.2.2.2.2.1.2.2.2.2.2.1.2.2.2.2.1.2.2.$.$                         ",
"                        * :.2.2.1.2.2.1.2.1.2.1.2.1.2.1.2.1.2.1.1.2.2.2.1.2.1.2.2.1.2.1.2.2.2.1.2.1.2.2.2.1.2.1.2.2.2.1.2.1.2.1.1.1.2.t                         ",
"                    o   M 2.<.1.2.1.2.2.2.2.2.2.2.2.2.2.2.2.2.2.2.2.2.1.2.2.2.2.2.2.2.2.1.2.2.2.2.2.1.2.2.2.2.2.1.2.2.2.2.2.2.2.2.1.2.I   X                     ",
"                        Q 2.1.2.1.2.2.2.2.1.2.2.2.1.2.2.2.1.2.2.1.2.1.2.2.2.1.2.2.1.2.2.2.1.2.1.2.2.2.2.2.1.2.2.2.1.2.1.2.2.1.2.1.1.2.{ o                       ",
"                      @ @.2.1.1.1.2.1.2.2.2.1.2.2.2.1.2.2.2.1.2.2.2.2.2.2.1.2.2.2.2.1.2.2.2.2.2.1.2.1.2.2.2.1.2.2.2.2.2.1.2.2.1.2.1.2.:.;                       ",
"                      1 ,.2.2.2.2.2.1.2.2.2.2.2.2.2.2.1.2.2.2.2.2.2.2.2.1.2.1.2.2.1.2.1.2.1.2.1.2.2.2.1.2.2.2.1.2.2.2.2.2.1.2.2.1.2.1.2.p                       ",
"                  o   w 2.1.2.1.2.2.2.2.1.2.1.2.1.2.2.2.1.2.1.2.1.2.1.2.2.2.2.2.2.2.2.2.2.2.2.2.1.2.2.2.1.2.2.2.1.2.1.2.2.2.1.2.2.1.<.2.m   o                   ",
"                      p 2.1.1.2.2.2.1.2.2.2.2.1.2.1.2.1.2.2.2.1.2.2.2.1.2.2.1.2.2.1.2.2.2.1.2.2.2.1.2.1.2.1.2.1.2.2.2.1.2.2.2.2.2.2.<.2.C   o                   ",
"                  o   h 2.1.2.1.2.1.2.2.1.2.2.2.2.2.2.2.1.2.2.2.1.2.2.2.1.1.2.1.1.2.1.1.2.2.1.2.2.2.2.2.2.2.2.2.1.2.2.2.1.2.1.2.1.2.<.2.H   o                   ",
"                  o   l 2.1.2.2.1.2.2.2.1.2.1.2.2.2.2.2.2.1.2.2.2.1.2.1.2.2.2.<.2.2.2.1.1.2.2.2.1.2.1.2.1.2.1.2.2.2.2.1.2.1.2.2.1.2.,.2.F   o                   ",
"                  o   b 2.1.1.2.2.2.2.1.2.2.2.2.1.2.1.2.2.2.1.2.2.2.2.2.<.2.<.2.2.<.2.1.2.2.1.2.2.2.2.2.2.2.2.2.1.2.2.2.2.2.1.2.2.2.<.2.D   o                   ",
"                  o   b 2.1.2.2.1.2.1.2.2.2.1.2.2.2.2.1.2.2.2.2.2.1.1.2.2.<.2.^ V 2.1.2.1.2.1.2.2.2.1.2.2.2.1.2.2.1.2.1.2.2.2.2.2.1.,.2.H                       ",
"                      h 2.1.2.1.2.2.2.2.2.1.2.2.1.2.2.2.1.2.1.2.2.2.2.1.2.2.2.8   #.2.1.1.2.2.2.2.1.2.2.2.1.2.2.2.2.2.2.1.2.1.2.2.1.<.2.Z   o                   ",
"                  o   s 2.1.2.2.2.2.2.2.1.2.1.2.2.2.2.2.2.1.2.1.2.1.1.2.1.2.!     M 2.<.2.1.2.2.2.2.2.2.1.2.2.2.1.2.1.2.2.1.2.2.2.1.1.2.N   o                   ",
"                  o   q 2.2.1.1.2.1.2.1.2.2.2.2.1.2.1.2.2.2.2.2.2.2.2.1.2.1.5     @ o.2.1.2.1.2.2.1.2.1.2.2.2.1.2.2.2.2.2.2.1.2.2.1.1.2.c   o                   ",
"                      < ,.2.1.2.1.2.2.2.2.2.1.2.2.2.2.1.2.1.2.2.1.1.2.<.2.Y   X     b 2.<.2.1.1.1.2.2.2.1.2.1.2.2.2.1.2.1.2.2.2.1.2.2.2.y   o                   ",
"                      o +.2.1.2.1.2.2.1.2.1.2.2.1.2.2.2.2.2.1.2.1.2.2.2.,.<         # X.2.1.2.2.2.2.2.1.2.2.2.2.2.1.2.2.2.2.2.1.2.1.2.-.=                       ",
"                    X   W 2.<.2.1.2.2.1.2.2.2.1.2.1.2.2.1.2.2.2.1.2.<.2.Y   o     o   b 2.<.2.1.2.2.1.2.2.1.2.1.2.2.2.1.2.1.2.1.1.1.2._                         ",
"                    o   b 2.<.2.2.1.2.2.1.2.2.2.2.2.1.2.2.2.2.1.2.2.2.1.1             o ..2.1.2.1.2.2.2.2.2.2.2.1.2.2.2.2.2.2.2.2.<.2.F                         ",
"                        & :.2.2.2.2.2.2.2.1.2.1.2.2.2.2.1.2.1.2.1.1.2.U   o         o   j 2.<.2.2.1.1.2.2.1.2.2.2.1.2.1.2.1.1.2.2.1.2.9   o                     ",
"                          Q 2.<.1.1.2.1.2.2.2.2.1.2.1.2.2.2.2.1.2.2.,.<                 o | 2.1.1.2.1.2.2.2.1.2.2.2.2.2.2.2.2.1.2.2...@                         ",
"                      X   y 2.1.2.1.2.2.2.2.2.2.2.2.2.1.2.1.1.2.,.2.U   o             o   b 2.<.2.1.2.2.1.2.2.1.2.1.2.1.2.2.1.2.<.2.N   o                       ",
"                          o { 2.1.1.1.2.1.2.1.2.1.2.2.2.2.2.2.1.2.<.<                     o  .2.1.2.1.2.2.2.2.2.2.2.2.2.1.1.2.1.2.*.-                           ",
"                        o   l 2.<.2.1.2.2.2.2.1.2.1.2.1.1.2.2.1.2.I   X                 o   f 2.1.1.2.2.1.1.2.1.2.1.2.2.1.2.2.<.2.K   o                         ",
"                              ] 2.1.2.1.1.2.2.2.2.2.2.2.2.1.1.2.:.;                         o { 2.1.1.2.2.2.2.2.2.2.2.1.2.1.1.2.;.-                             ",
"                              q 2.2.1.1.2.2.2.1.2.1.2.1.2.1.<.2.I   o                     o   k 2.1.2.1.1.2.2.2.2.1.1.2.2.2.1.2.M                               ",
"                                P 2.<.2.1.2.2.2.2.2.2.2.1.2.2.:.,                             o { 2.1.2.2.2.1.2.2.2.2.1.2.,.2.] o                               ",
"                                @ { 2.<.2.1.2.1.2.1.1.2.2.<.2.K   o                         X   s 2.<.1.1.2.2.1.1.2.1.2.1.2.,.5                                 ",
"                              o   < -.2.<.2.1.2.1.2.2.1.2.2.,.;                                   [ 2.1.2.1.2.1.2.1.2.1.2.2.u   o                               ",
"                                o   t 2.2.1.2.2.2.1.2.1.<.2.K   o                             o   s 2.2.1.2.1.2.2.2.2.1.2.V                                     ",
"                                  o   u 2.2.<.2.1.2.1.2.2.:.<                                       _ 2.1.2.2.1.2.1.1.2.F                                       ",
"                                        u 2.2.<.2.2.2.1.2.K                                         t 2.1.1.1.2.,.2.2.Z                                         ",
"                                      X   8 $.2.,.1.1.2.,.;   o                                       ) 2.1.2.<.2.<.k   o                                       ",
"                                        o   & ( 2.2.:.2.K                                         o   e 2.<.2.2.+.6                                             ",
"                                          o     M *.2.,.-                                               ~ 2.1.F #   o                                           ",
"                                                  * E H   o                                         o   6 ^ 4     o                                             ",
"                                                                                                                                                                ",
"                                                                                                                                                                ",
"                                                                                                                                                                ",
"                                                                                                                                                                ",
"                                                                                                                                                                ",
"                                                                                                                                                                ",
"                                                                                                                                                                ",
"                                                                                                                                                                ",
"                                                                                                                                                                ",
"                                                                                                                                                                ",
"                                                                                                                                                                ",
"                                                                                                                                                                ",
"                                                                                                                                                                "
};
