/* XPM */
static char *f029650f90734dbab3cfa1f81329801eVwo0p0InV6zvALL7[] = {
/* columns rows colors chars-per-pixel */
"64 64 95 2 ",
"   c #010101",
".  c #080605",
"X  c #070806",
"o  c #0B0B02",
"O  c #060609",
"+  c #080709",
"@  c #070909",
"#  c #0B0B0A",
"$  c #100F02",
"%  c #120E0E",
"&  c #0D110E",
"*  c #131202",
"=  c #1D1D04",
"-  c #13120C",
";  c #1A1909",
":  c #0E0C10",
">  c #110E11",
",  c #0E1111",
"<  c #131313",
"1  c #171816",
"2  c #1C1A17",
"3  c #16151A",
"4  c #1A1619",
"5  c #161818",
"6  c #1A191B",
"7  c #211D17",
"8  c #232302",
"9  c #25210B",
"0  c #3F3E01",
"q  c #23241F",
"w  c #1C1F20",
"e  c #201D20",
"r  c #454403",
"t  c #4B4902",
"y  c #555402",
"u  c #585702",
"i  c #5B5A00",
"p  c #615F00",
"a  c #625F00",
"s  c #626101",
"d  c #656401",
"f  c #646207",
"g  c #696702",
"h  c #6B6B04",
"j  c #797700",
"k  c #7F7E00",
"l  c #7F7F03",
"z  c #807F00",
"x  c #858200",
"c  c #868500",
"v  c #858402",
"b  c #8A8700",
"n  c #888800",
"m  c #8C8B00",
"M  c #8E8B00",
"N  c #918E00",
"B  c #949200",
"V  c #969301",
"C  c #989600",
"Z  c #9D9A00",
"A  c #9F9B00",
"S  c #93930A",
"D  c #A29F00",
"F  c #A29E03",
"G  c #A3A101",
"H  c #A9A702",
"J  c #B9B700",
"K  c #B9B800",
"L  c #CEC900",
"P  c #CDCB00",
"I  c #D1CD00",
"U  c #D5D003",
"Y  c #D6D600",
"T  c #D8D500",
"R  c #DBD900",
"E  c #DDDB00",
"W  c #DDDD00",
"Q  c #DEDC00",
"!  c #E2DF00",
"~  c #E5E200",
"^  c #E7E400",
"/  c #E9E700",
"(  c #EAE800",
")  c #ECE900",
"_  c #ECE801",
"`  c #EDEC00",
"'  c #F0EE00",
"]  c #F3F100",
"[  c #F4F200",
"{  c #F7F500",
"}  c #F8F500",
"|  c #FAF700",
" . c #FAF900",
".. c #FDFB00",
"X. c #FFFE00",
/* pixels */
"                                            O         X               O                 <           .             O             ",
"  O 3   O .   .                                                     O 5   .             5 O                     .               ",
"        . 7               .       O     O     .                           # O       #                                           ",
"              # O                             O                                     O         O                                 ",
"              # O         .                 #               O   O       + # #                             O O                   ",
"      & X               O                             O             O   +   O                               #                   ",
"      #                                                   X                             #                                       ",
"O       O     X           O       # 5   #                 O                                 . .                                 ",
"              # -         O       . < X                                               O     . O                           + #   ",
"    X   O     # -                   # 1       O                     O               6 5 O                                 + #   ",
"                                          X     O         .       O     #   O       > .                     O @                 ",
"O                     O   .             O                                       O                                               ",
"    O O             3 #                       . o o o o o o o o o * o o - o       .                                             ",
"                  # w       O   @   O .       b E P I I I I I I I I I P T F           .     #               O #                 ",
"    #       & O # #                 < O       D X.' [ [ [ ] [ [ [ [ ] ] ..K       O         <         O     O ,           + #   ",
"    # < #   < O                 O o * * * * o F { _ ) ) ) ) ) ) ( ) ) ( [ J * * o ; * o                                   # 6   ",
"      % #         O O     O   .   l ) E W W W / ) ` ` ` ` ` ) ` ` ) ` ) ) / W ! E E ) x   .                                     ",
"    O < 5                         v X.) ' ' ' ) ) ' ' ) ) ' ' ) ` ' ` ' ) ' ' ' ' ) X.m O                     O     O       O O ",
"      + #               .   . 9 . m  ./ ` ) ) ) ' ) ) ' ' ) ' ' ' ) ` ) ' ) ) ` ) /  .V > = o               . %                 ",
"                    O       f ) E ^ ) ` ' ) ' ` ` ` ) ` ) ' ` ` ` ' ) ' ` ` ` ` ` ) ) / Y ( z   .             O                 ",
"    O     @                 d  .) ' ) ) ` ) ` ) ` ' ) ) ' ) ` ' ` ' ) ` ' ) ) ) ` ` ) ' ) X.n   #                               ",
"  O       #   O             p } ( ` ` ` ) ' ) ' ) ' ` ' ) ' ` ) ' ) ) ' ` ` ' ` ' ) ' ) /  .v                             #     ",
"                      + #   f [ / ( ( ( ) ` ` ` ' ) ` ' ' ` ` ' ) ' ' ` ) ' ' ) ` ) ) ` / ..v   o   @         .         . < O   ",
"                      # 5   h X.} }  . .[ ) ' ) ` ` ) ) ` ) ) ' ` ) ' ` ' ` ` ` ' ' ) ` / ..x     @ .           #     . # -     ",
"                      O     r H F Z Z V P ] ( ` ` ` ` ` ` ` ' ` ' ) ` ' ) ' ` ` ) ' ) ' ) } H r y 8 @ .             4 7 6       ",
"  #       O     >           @   O       N { ^ ( ( ( ( ( ) ) ` ) ) ' ` ' ' ) ) ' ' ) ` ` ) ) ' ' X.d   .     O O     # . O       ",
"                      #     O # .       G X. . ... . ... .` ` ` ` ' ) ` ) ` ) ' ` ' ` ) ` ' ) ( [ p     O                       ",
"            . O               #         i N v n n n n v m ~ ' ) ) ` ) ` ` ' ` ) ' ) ' ` ` ` ` ) } p   # #         < <         O ",
"O             X                     <                   . I ` ( / / ) ) ' ) ` ` ) ' ) ` ` ) ` ( } g   #       < O     #         ",
"  O #         X                     O     X . X   # .   * ~ X.........) ) ' ) ' ' ) ` ' ` ` ` ) } d     .   O #     # <   #     ",
"            @                     O             #   O   o l m b m N V ~ ' ` ` ) ` ' ' ) ' ) ) ) } p         O               O   ",
"            # O O .                                 O X             . E ' ) ` ` ` ' ) ' ` ` ` / } s   #       # O               ",
"        . O                                           # #           . W ' ) ` ` ` ' ) ' ` ) ` ) } p       O   < X               ",
"        - <                                             O j S v x x M ~ ) ) ' ` ` ' ' ) ' ` ` ) } d   o O         .             ",
"    O   - 5                                   . #       * ! X.}  ...} ) ) ) ` ) ' ) ` ` ) ` ` ) } p   .               .         ",
"        . O                     . O O                   . I ' / / / / ) ` ) ' ` ` ' ) ' ` ) ) ) } d       O             O       ",
"  .         # O                     o   i C N N N N N m V ! ' ) ` ) ` ) ' ` ` ' ' ) ' ) ` ` ) ( [ d                             ",
"  O         & .                 .       F X.} ..X. .} ....` ) ` ' ` ' ' ` ) ` ) ` ` ) ` ` ) ` / [ p       .         #           ",
"O O                                     V } / ( / / / ( ) ` ' ) ) ) ` ) ) ' ` ' ) ' ` ` ) ) ` [ ..d   .                   .     ",
"                            0 Z B B B N P ' ) ) ) ' ` ) ) ` ) ) ) ' ) ' ` ) ' ) ' ` ` ` ) } H t u 8           .     O           ",
"          o   # #   O       g X.{  ... .' ) ` ` ` ' ) ' ) ` ` ' ` ` ` ' ` ` ' ) ' ) ` ` / X.l       O         #                 ",
"      O     O               p [ ~ / ( ) ) ) ` ) ` ) ` ) ) ' ` ` ` ' ' ) ' ) ) ' ) ` ' ) ( ..b   .                               ",
"                      # o   s } ) ) ` ` ' ' ' ` ` ' ) ` ' ' ) ' ' ) ` ` ) ' ' ) ` ) ` ) (  .x     .                       - #   ",
"  #               +   > #   d ..` ` ` ` ) ) ` ) ` ) ' ' ` ` ' ) ` ' ) ' ' ` ` ' ` ' ) ' ) X.b         . O         #       #     ",
"  O               +         i / Y / ) ` ` ` ` ) ` ` ' ) ) ' ` ` ` ' ) ' ) ` ) ` ` ) ) ~ T ) z           O       O 2     O       ",
"    #     O O             - o * + m } ( ` ) ) ' ` ) ) ` ' ) ' ' ' ) ' ) ` ` ` ) ` ( } V $ = o     X O                         O ",
"                          %       v X.) ' ' [ ) ` ' ) ' ` ` ` ` ) ` ) ' ) ` ' ' ' ) X.m                                         ",
"                            .     z ) T E W W ( ) ) ' ) ) ' ` ` ' ` ` ) ' / W ! ! W ) x                                   O     ",
"                    O O           . * $ * $ o F [ ( ) ) ) ) ) ) ) ) ) / [ K * * * * * o                                         ",
"                                . <           D X.) ] ] [ ' ] ] ] ] [ ' ..K                                         .           ",
"    .             O     .         <     .     m ~ U T Y T T T Y T Y T T ! H           O         O   O .             # <         ",
"                                        .     o o $ o * $ o $ o * o o o $ o         . @                               #         ",
"                                      @                                                           .                             ",
"                                            O         ,                         O                                               ",
"            O             O .     #   4 +             @             :                                                     O     ",
"          O 3       #       . O   @   # @ .             O   O       5                       O             6 +             .     ",
"            O                                   O         # 2                                                   O     #         ",
"  O                                             .                                                 .       X     q .           # ",
"            O     O                 O                       #                 O                           <   # 6       #     # ",
"          # O                       <         O                       @     #                             O     .         # <   ",
"          O                   #     <                         . #   O                               O <   O                 O   ",
"                                                        O     O >   X             .                   o                         ",
"      .             O                                     .                       > %   O O     O                               ",
"  # O                                                       O       O     & <   #       #             +                         "
};
