/* XPM */
static char *aeaa8af680524951806c2424dd10489dU15mAZ7J67fuNkyS[] = {
/* columns rows colors chars-per-pixel */
"80 80 121 2 ",
"   c black",
".  c #020202",
"X  c #030400",
"o  c #040400",
"O  c #040402",
"+  c #090903",
"@  c #0B0B02",
"#  c #0E0E02",
"$  c #101003",
"%  c #1A1A03",
"&  c #1B1B03",
"*  c #1E1E03",
"=  c #1F1F04",
"-  c #212103",
";  c #262602",
":  c #272704",
">  c #282803",
",  c #2B2B03",
"<  c #282804",
"1  c #2A2A04",
"2  c #2D2D04",
"3  c #2F3004",
"4  c #323303",
"5  c #323304",
"6  c #363704",
"7  c #373804",
"8  c #3A3B04",
"9  c #3B3B04",
"0  c #3E3E04",
"q  c #414204",
"w  c #444504",
"e  c #484804",
"r  c #4D4D05",
"t  c #4F5003",
"y  c #535303",
"u  c #515104",
"i  c #525304",
"p  c #575804",
"a  c #5B5B02",
"s  c #5B5B03",
"d  c #5B5C03",
"f  c #595A04",
"g  c #5F6003",
"h  c #636304",
"j  c #656504",
"k  c #676804",
"l  c #6C6D01",
"z  c #6A6B05",
"x  c #6B6C04",
"c  c #707104",
"v  c #737404",
"b  c #7A7A03",
"n  c #7A7A07",
"m  c #7B7C05",
"M  c #7C7D05",
"N  c #828305",
"B  c #858507",
"V  c #8A8B04",
"C  c #888906",
"Z  c #8A8B07",
"A  c #8D8E04",
"S  c #858508",
"D  c #909007",
"F  c #959604",
"G  c #979803",
"H  c #979804",
"J  c #989904",
"K  c #9A9B04",
"L  c #9B9C04",
"P  c #9E9F04",
"I  c #9FA004",
"U  c #A6A704",
"Y  c #AAAB03",
"T  c #A9A904",
"R  c #ADAD05",
"E  c #B0B104",
"W  c #B3B405",
"Q  c #BCBD03",
"!  c #BBBC04",
"~  c #C0C003",
"^  c #C5C503",
"/  c #C6C703",
"(  c #C1C204",
")  c #C7C805",
"_  c #CACB04",
"`  c #CCCD04",
"'  c #CDCE04",
"]  c #D0D103",
"[  c #D2D303",
"{  c #D4D503",
"}  c #D4D603",
"|  c #D6D703",
" . c #D0D104",
".. c #D3D404",
"X. c #D7D803",
"o. c #DADB03",
"O. c #DBDC03",
"+. c #DCDC03",
"@. c #DDDF03",
"#. c #D9DA05",
"$. c #DDDE04",
"%. c #E0E103",
"&. c #E2E303",
"*. c #E3E403",
"=. c #E5E702",
"-. c #E7E903",
";. c #EBED02",
":. c #ECED01",
">. c #EFF002",
",. c #F1F301",
"<. c #F1F302",
"1. c #F2F302",
"2. c #F6F700",
"3. c #F4F502",
"4. c #F6F802",
"5. c #F8F901",
"6. c #F9FB01",
"7. c #F8F902",
"8. c #FBFC00",
"9. c #FBFC02",
"0. c yellow",
/* pixels */
"                                                                                                                                                                ",
"                                                                                                                                                                ",
"                                                                                                                                                                ",
"                                                                                                                                                                ",
"                                                                                                                                                                ",
"                                                                                                                                                                ",
"                                                                                                                                                                ",
"                                                                                                                                                                ",
"                                                                                                                                                                ",
"                                                                      o o   o X   o o                                                                           ",
"                                                                                            o                                                                   ",
"                                                      o o       + 1 w d h k z k h s e 2 +         o                                                             ",
"                                                  X       % x U #.5.0.0.0.0.0.0.0.0.0.4.$.Y c =                                                                 ",
"                                              o     o u E <.0.0.0.0.0.8.8.8.8.8.5.0.8.0.0.0.0.<.! d $                                                           ",
"                                                  j ..0.0.0.8.4.0.0.8.8.8.8.8.8.0.8.8.0.0.5.8.0.0.0.+.v +                                                       ",
"                                        o     w ' 0.0.8.8.8.0.0.0.8.0.0.0.0.0.0.0.0.0.8.0.8.0.8.8.8.0.0.O.y     o                                               ",
"                                      o   + J 0.0.5.8.0.8.0.0.0.8.0.0.0.0.0.0.0.0.0.0.0.0.0.8.0.0.0.8.5.0.0.U $                                                 ",
"                                        2 [ 0.0.8.0.0.8.8.0.8.0.0.0.8.0.8.0.8.0.8.0.8.0.8.8.0.0.0.8.0.0.8.8.0.+.8   o                                           ",
"                                      r <.0.5.0.0.8.0.8.0.8.0.8.0.0.0.8.0.0.0.8.0.0.0.8.0.0.0.8.0.8.0.8.0.8.5.0.0.f                                             ",
"                                o   f 0.0.5.0.8.8.0.8.0.0.0.0.0.0.8.0.0.8.0.0.0.8.0.0.0.8.0.0.0.0.0.0.8.8.0.0.5.0.0.h                                           ",
"                              X   p 0.0.8.0.8.0.8.0.0.0.0.0.0.0.0.0.0.0.0.8.0.8.0.8.0.0.0.8.0.8.0.8.0.0.8.0.0.0.5.0.0.d   o                                     ",
"                                8 0.0.8.0.0.0.8.0.0.0.8.8.0.8.0.0.8.0.8.0.0.0.0.0.0.8.0.0.0.0.0.0.0.8.0.0.8.8.0.0.0.0.0.e   o                                   ",
"                          o   % =.0.8.8.0.0.0.0.0.8.0.0.0.0.0.8.8.0.0.0.0.8.0.0.0.0.0.0.0.8.0.0.0.0.0.0.0.8.0.8.0.0.0.0.;.-                                     ",
"                              Q 0.5.0.0.8.8.0.8.0.0.8.0.8.0.0.0.0.0.0.8.0.0.8.0.8.0.8.0.0.0.8.0.8.0.8.0.0.0.0.8.0.8.0.5.0.(                                     ",
"                            v 0.5.0.8.8.8.0.0.0.0.0.0.0.0.8.0.8.0.0.8.0.0.0.0.0.0.8.0.8.0.0.0.8.0.0.0.0.0.0.0.0.8.0.0.0.4.0.m   O                               ",
"                          * >.0.0.0.8.0.0.0.0.8.0.8.0.8.0.0.0.0.0.8.0.0.0.8.0.8.0.0.0.0.8.0.0.0.8.0.8.0.8.0.8.0.0.8.8.0.0.0.2.1   o                             ",
"                          P 0.2.8.0.0.8.0.8.8.0.8.0.0.0.0.8.0.0.0.0.0.0.8.0.0.0.0.8.0.0.0.8.0.8.0.0.0.8.0.0.0.8.0.8.0.8.0.5.0.T                                 ",
"                          n 5.0.0.8.8.0.0.8.0.0.0.0.0.8.0.0.8.0.0.8.0.8.0.0.0.8.0.0.8.0.0.0.0.0.8.0.0.0.8.0.0.0.0.0.0.8.0.5.0.0.9   o                           ",
"                            ; F <.0.0.5.0.0.0.8.0.8.0.0.8.0.0.8.8.0.8.0.0.0.0.0.0.8.0.8.0.0.0.0.0.8.0.0.0.8.0.8.0.0.0.0.8.0.8.0.U                               ",
"                          o     ; H 4.0.0.5.0.0.8.0.0.8.0.0.0.0.0.0.0.0.0.8.0.8.0.0.0.0.8.0.8.0.0.0.8.0.0.0.0.0.8.0.8.8.0.8.8.0.<.:                             ",
"                              o     > G 2.0.0.5.0.0.8.0.8.8.0.0.0.0.8.0.8.0.0.0.0.8.0.0.0.0.0.8.0.0.0.0.0.8.0.0.0.0.0.0.0.8.0.5.0.v   o                         ",
"                                  o     ; H 5.0.0.5.0.8.8.0.0.8.0.8.0.0.0.0.0.8.0.0.8.0.8.0.0.0.8.0.8.0.0.0.8.0.8.0.0.8.0.0.5.0.0._ X                           ",
"                                      o     > J 2.0.0.5.8.0.8.0.0.8.8.0.0.0.0.0.0.8.0.8.0.0.0.8.0.8.0.0.0.8.0.8.0.0.0.8.0.8.8.0.0.5.>                           ",
"                                          o     ; J 5.0.0.8.0.0.8.0.0.0.0.8.0.8.0.0.0.0.8.0.0.0.0.0.8.0.0.0.0.0.8.0.0.0.0.0.0.8.8.0.g   X                       ",
"                                              o     > P 4.0.0.5.0.0.0.8.8.0.0.0.0.8.0.0.0.8.0.8.0.0.0.0.0.8.0.0.0.8.0.8.8.0.8.0.8.0.J                           ",
"                                                X       1 J 8.0.0.4.8.0.0.8.0.8.0.0.8.0.0.0.0.0.8.0.8.0.0.0.8.0.0.0.0.0.0.0.0.8.8.0.!                           ",
"                                                      o     2 I 4.0.0.8.8.8.0.8.8.0.0.8.0.0.0.0.0.0.0.8.0.0.0.8.8.0.8.0.0.0.0.8.8.0.{ o                         ",
"                                                          o     1 I 0.0.0.8.0.0.0.8.0.0.0.8.0.8.8.0.0.0.8.0.0.0.0.0.0.0.0.8.0.0.8.0.%.+                         ",
"                                                              o     4 T 0.0.8.0.0.0.0.0.8.0.0.0.0.8.0.8.0.8.0.8.0.0.8.0.8.0.8.0.5.0.;.#                         ",
"                                                                X       7 W 0.8.8.8.0.8.0.0.0.8.0.0.0.0.0.0.0.0.0.8.0.0.0.0.0.8.0.0.<.#                         ",
"                                                                  X       n 0.0.8.8.0.0.0.0.8.0.8.0.8.0.8.0.8.0.0.0.8.0.0.0.0.8.0.0.;.#                         ",
"                                                                    + c %.0.0.8.0.0.8.0.0.8.0.0.0.0.0.0.0.0.0.0.0.8.0.0.0.8.0.0.8.0.-.@                         ",
"                                                          o     + z +.0.0.8.8.0.8.0.0.0.0.0.0.0.0.0.8.0.0.0.8.0.0.0.0.0.8.0.8.0.0.0.$.+                         ",
"                                                            + x O.0.0.5.8.0.0.8.8.0.8.0.0.8.0.8.0.8.0.0.0.8.0.0.0.8.0.8.0.0.0.8.8.0. .o                         ",
"                                                  X     + j | 0.0.5.8.0.8.0.8.0.0.0.0.0.8.0.0.0.0.0.0.0.8.0.0.0.8.0.8.0.0.0.8.0.8.0.!                           ",
"                                              o     o x X.0.0.8.0.0.8.0.0.8.0.0.0.0.0.8.0.0.0.8.0.8.0.8.0.0.0.8.0.0.0.0.0.8.0.8.5.0.L                           ",
"                                          o     X g | 0.0.5.8.0.0.8.0.8.0.0.0.0.8.0.8.0.8.0.8.0.8.0.0.0.8.0.8.0.0.0.8.0.8.0.0.8.8.0.x   o                       ",
"                                      o     o j ..0.0.8.8.0.8.8.0.8.0.0.0.8.0.8.0.0.0.0.0.0.0.0.0.0.0.8.0.0.0.0.0.8.0.0.0.0.8.0.0.0.5                           ",
"                                  o       d  .0.0.5.8.0.8.0.8.0.8.0.0.0.0.0.0.0.0.0.0.0.0.0.0.0.0.0.0.0.8.0.0.0.0.0.0.0.0.0.0.8.0. .o                           ",
"                                      f ' 0.0.5.8.0.0.8.0.8.0.0.0.8.0.8.0.8.0.8.0.8.0.8.0.8.0.8.0.8.0.8.0.0.0.8.0.8.8.0.8.8.0.5.0.N   o                         ",
"                          o       r ) 0.0.5.0.0.8.0.8.0.0.0.0.8.0.0.0.0.8.0.0.0.8.0.0.0.8.0.0.0.8.0.0.0.8.0.8.0.0.0.0.0.0.8.8.0.8.6   o                         ",
"                              e ( 0.0.8.8.0.0.8.0.8.0.0.8.0.0.0.8.0.0.8.0.0.0.8.0.0.0.8.0.0.0.8.0.0.0.8.0.0.0.0.0.8.0.8.8.0.8.0.!                               ",
"                          7 W 0.0.8.8.8.0.8.0.8.8.0.0.0.0.8.0.0.0.8.0.0.0.0.8.0.8.0.8.0.0.0.8.0.0.0.8.0.0.0.8.0.8.0.0.0.0.8.8.0.t                               ",
"                      o   R 0.4.8.0.8.0.8.0.8.0.0.0.8.0.0.0.8.0.0.0.8.0.0.8.0.0.0.0.0.0.0.8.0.0.0.8.0.0.0.8.0.0.0.0.8.8.0.8.0.^                                 ",
"                          8 5.0.0.8.8.0.0.0.8.0.0.0.0.0.0.0.0.0.0.0.0.0.0.0.0.0.0.0.8.0.0.0.0.0.0.0.0.0.0.0.0.0.0.8.8.0.0.8.0.w   o                             ",
"                            A 0.4.0.0.8.8.0.0.0.8.0.8.0.8.0.8.0.8.0.8.0.0.8.0.8.0.8.0.0.0.8.0.8.0.8.0.8.0.8.0.8.8.0.0.0.5.0.P   X                               ",
"                            # #.0.5.0.8.0.0.0.0.0.0.0.0.0.0.0.0.0.0.0.8.0.8.0.0.0.0.8.0.8.0.0.0.0.8.0.8.0.0.0.0.0.8.0.8.0.%.$                                   ",
"                          o   6 5.0.0.0.0.8.8.0.0.8.0.8.0.8.0.8.8.0.0.0.0.0.8.0.0.8.0.0.0.0.0.8.0.0.0.0.8.0.8.8.8.0.8.0.0.q   X                                 ",
"                                h 0.8.8.0.8.8.8.8.0.0.0.8.0.0.0.0.8.0.8.0.0.0.0.0.0.0.0.8.0.8.0.0.8.0.0.0.0.8.0.0.0.8.0.x   X                                   ",
"                              o   M 0.0.8.0.0.0.8.0.0.8.0.0.0.8.0.0.0.0.8.0.8.0.0.8.0.8.0.0.0.0.0.0.8.0.0.8.0.0.8.8.0.C                                         ",
"                                    C 0.0.8.0.0.0.8.0.0.0.0.8.0.0.0.0.0.0.8.0.0.0.0.8.0.0.8.0.8.0.0.8.0.8.0.0.8.8.0.D                                           ",
"                                X     n 0.0.5.0.8.0.8.8.0.0.0.0.8.0.8.0.0.0.8.0.0.8.0.0.0.0.0.0.8.0.0.8.0.0.5.0.0.N                                             ",
"                                        p 4.0.4.8.0.0.8.0.8.0.0.0.0.0.8.0.0.0.0.0.0.0.0.0.8.0.0.0.8.8.0.0.4.0.5.d     X                                         ",
"                                          5 ' 0.0.8.8.0.8.0.8.8.8.0.0.0.8.0.8.0.0.8.0.0.8.0.8.0.8.0.8.8.0.0._ 3   o                                             ",
"                                        o     c 2.0.0.5.0.8.0.8.8.0.8.0.0.0.0.0.8.0.8.0.5.0.8.8.8.8.0.0.2.n o   o                                               ",
"                                                - F <.0.0.0.5.8.0.8.0.8.8.8.0.0.8.0.0.8.0.0.5.0.0.0.1.J -                                                       ",
"                                              o     ; v #.0.0.0.0.0.8.5.8.4.5.5.5.4.8.8.0.0.0.0.*.N ;     o                                                     ",
"                                                        + 0 A / <.0.0.0.0.0.0.0.0.0.0.0.2.[ J r #                                                               ",
"                                                      o         = u l v M S V A B b v s > X       o                                                             ",
"                                                            o                                 o                                                                 ",
"                                                                  o o o o   o   X o o                                                                           ",
"                                                                                                                                                                ",
"                                                                                                                                                                ",
"                                                                                                                                                                ",
"                                                                                                                                                                ",
"                                                                                                                                                                ",
"                                                                                                                                                                ",
"                                                                                                                                                                ",
"                                                                                                                                                                ",
"                                                                                                                                                                "
};
