/* XPM */
static char *_c13649b31944296ade0373f0a425c52KRDUtWoMKAoCDi1I[] = {
/* columns rows colors chars-per-pixel */
"80 80 123 2 ",
"   c black",
".  c #030300",
"X  c #020202",
"o  c #030400",
"O  c #050500",
"+  c #070702",
"@  c #090902",
"#  c #0D0D01",
"$  c #121202",
"%  c #191A03",
"&  c #1C1D03",
"*  c #1B1B05",
"=  c #212103",
"-  c #212202",
";  c #252502",
":  c #262702",
">  c #252504",
",  c #262704",
"<  c #292A02",
"1  c #2C2C03",
"2  c #2E2E03",
"3  c #292904",
"4  c #333303",
"5  c #363602",
"6  c #313104",
"7  c #363604",
"8  c #363704",
"9  c #3A3A03",
"0  c #3E3E04",
"q  c #3E3F04",
"w  c #454603",
"e  c #474703",
"r  c #474704",
"t  c #4F4F03",
"y  c #4B4C05",
"u  c #4C4C04",
"i  c #4F5004",
"p  c #505002",
"a  c #545503",
"s  c #515104",
"d  c #575704",
"f  c #575803",
"g  c #585903",
"h  c #5E5E03",
"j  c #5D5D04",
"k  c #5F6003",
"l  c #616203",
"z  c #646503",
"x  c #616105",
"c  c #656604",
"v  c #676803",
"b  c #6A6A01",
"n  c #6A6B05",
"m  c #6B6C04",
"M  c #6C6D04",
"N  c #6F7001",
"B  c #727200",
"V  c #717104",
"C  c #777704",
"Z  c #7A7A03",
"A  c #797905",
"S  c #7B7B04",
"D  c #7D7E04",
"F  c #818205",
"G  c #838407",
"H  c #878805",
"J  c #898A03",
"K  c #8A8B06",
"L  c #8D8D06",
"P  c #939403",
"I  c #969703",
"U  c #959604",
"Y  c #979803",
"T  c #999A03",
"R  c #999A04",
"E  c #9B9C04",
"W  c #9D9E04",
"Q  c #9FA004",
"!  c #A5A503",
"~  c #A7A804",
"^  c #A8A902",
"/  c #ABAC03",
"(  c #A8A904",
")  c #B3B403",
"_  c #B2B204",
"`  c #B3B304",
"'  c #B8B903",
"]  c #BABA03",
"[  c #BFC003",
"{  c #C3C502",
"}  c #C0C104",
"|  c #C7C805",
" . c #C9CA03",
".. c #CBCC03",
"X. c #CDCE03",
"o. c #CBCC04",
"O. c #CFD002",
"+. c #D0D103",
"@. c #D3D403",
"#. c #D5D603",
"$. c #D2D304",
"%. c #D7D803",
"&. c #D8D902",
"*. c #D9DA03",
"=. c #DDDE03",
"-. c #DADB04",
";. c #DDDE04",
":. c #DEE003",
">. c #E1E203",
",. c #E2E303",
"<. c #E5E602",
"1. c #E7E802",
"2. c #EBEC02",
"3. c #EEEF02",
"4. c #EFF102",
"5. c #F1F302",
"6. c #F2F401",
"7. c #F2F402",
"8. c #F4F502",
"9. c #F7F902",
"0. c #F8FA02",
"q. c #FAFC02",
"w. c yellow",
/* pixels */
"                                                                                                                                                                ",
"                                                                                                                                                                ",
"                                                                                                                                                                ",
"                                                                                                                                                                ",
"                                                                                                                                                                ",
"                                                                                                                                                                ",
"                                                                                                                                                                ",
"                                                                                                                                                                ",
"                                                                                                                                                                ",
"                                                                          O O O   O   O   O O                                                                   ",
"                                                                O                                   O                                                           ",
"                                                            O       O > f N Z F J K G A B b t *         O                                                       ",
"                                                              # y R O.8.w.w.w.w.w.w.w.w.w.w.w.4. .L q @                                                         ",
"                                                    O     ; F ,.w.w.w.w.w.0.0.0.0.0.0.0.w.0.q.w.w.w.w.&.C -     O                                               ",
"                                                      - I 6.w.w.w.0.w.w.w.q.w.w.w.w.q.q.w.w.q.w.q.0.w.w.w.3.P =                                                 ",
"                                              O   O A 6.w.w.0.w.w.q.w.q.q.w.w.q.w.w.w.w.w.q.w.q.w.w.w.0.0.w.w.6.N     O                                         ",
"                                            o   2  .w.w.0.w.w.q.q.w.w.w.q.w.w.q.w.w.w.w.w.q.w.q.w.w.q.w.w.q.q.w.w.X.6                                           ",
"                                              j 9.w.0.w.w.w.w.q.w.q.w.q.w.w.w.w.w.q.w.w.w.w.w.w.w.q.q.w.q.w.w.q.0.w.9.d                                         ",
"                                      O     D w.w.q.w.w.q.w.w.w.w.w.w.w.w.w.w.w.w.q.w.q.w.w.w.w.w.w.w.w.q.w.w.q.w.0.w.w.C     O                                 ",
"                                          L w.w.q.w.q.q.w.q.w.q.q.w.w.w.q.w.w.q.w.w.w.w.w.q.w.q.w.q.w.w.w.w.q.w.w.w.w.q.w.L                                     ",
"                                        H w.0.w.w.q.w.w.q.w.w.q.w.w.q.w.w.q.w.w.w.w.w.w.w.q.w.w.w.q.w.w.q.w.w.q.w.q.w.q.0.w.A   O                               ",
"                                  o   n w.q.w.w.w.w.q.w.w.w.w.w.w.w.w.w.w.w.w.w.w.q.q.w.w.w.w.w.w.w.w.w.w.w.w.w.w.w.w.w.w.w.w.j   O                             ",
"                                    q w.w.q.w.q.w.q.w.w.w.w.w.w.q.w.w.q.q.w.w.q.w.w.w.w.q.w.w.q.w.w.w.q.w.w.w.w.w.q.w.q.w.w.w.0.7   O                           ",
"                                  $ :.w.q.w.w.w.w.q.w.w.q.w.w.q.w.w.w.w.w.w.w.w.w.q.w.w.w.w.w.w.w.q.w.w.q.w.w.q.w.w.q.w.w.w.0.w.-.#                             ",
"                                  W w.0.w.q.w.q.w.w.q.w.w.q.w.w.w.w.w.w.w.w.w.w.w.w.w.w.w.w.w.w.q.w.w.q.w.w.q.w.w.q.q.w.w.w.w.9.w.L   o                         ",
"                            O   w w.q.w.q.w.w.w.w.w.w.w.w.w.w.w.q.w.q.w.w.q.q.w.w.q.q.w.w.q.w.q.w.w.w.w.q.w.w.w.w.w.w.w.w.q.w.q.w.0.5                           ",
"                                { w.q.w.w.w.w.w.q.w.w.q.q.w.w.q.w.w.q.w.w.w.w.w.w.w.w.w.w.q.w.w.w.w.w.w.w.w.w.w.w.w.q.w.q.w.w.q.0.w._                           ",
"                              p w.0.w.w.q.w.q.w.w.w.w.w.w.w.w.w.w.w.w.w.w.q.w.w.w.w.q.w.w.w.w.w.q.w.w.q.w.w.w.q.w.q.w.q.w.q.q.w.w._ 5                           ",
"                              ' w.q.w.q.w.w.q.w.w.w.w.w.w.w.w.w.q.w.w.q.w.w.w.w.w.w.w.w.q.w.w.q.w.w.q.w.w.q.w.w.q.w.w.q.0.w.w.[ w                               ",
"                            6 0.w.w.q.w.w.w.w.w.q.w.q.w.w.q.w.q.w.w.w.w.q.w.w.q.q.w.w.q.w.w.w.w.w.w.w.w.w.w.w.q.w.w.0.w.w. .i                                   ",
"                        O   F w.0.w.w.w.q.w.w.w.w.w.q.w.w.q.w.w.w.w.w.w.w.w.w.w.w.w.w.w.w.w.w.w.w.q.q.w.w.q.w.0.0.w.w.o.j       O                               ",
"                          O $.w.w.q.w.q.w.w.q.w.w.w.w.w.w.w.w.w.q.w.w.q.w.w.q.w.w.q.w.w.q.w.w.q.w.w.w.q.w.w.0.w.w.+.j                                           ",
"                          2 0.w.w.w.w.q.w.w.q.w.w.q.w.w.q.w.w.q.w.w.q.w.w.q.w.w.w.w.w.w.w.q.q.w.q.w.w.q.0.w.w.#.x O     o                                       ",
"                      O   b w.w.q.q.w.w.q.w.w.w.w.w.w.q.w.w.w.w.w.w.w.w.w.w.w.w.q.w.w.q.w.w.w.w.w.q.0.w.w.%.l O     O                                           ",
"                          E w.0.w.w.w.w.w.w.w.w.w.w.w.w.w.w.w.w.q.w.w.w.w.q.q.w.w.w.q.w.q.w.w.q.0.w.w.#.v O                                                     ",
"                          ' w.0.w.q.w.q.w.w.q.w.w.q.w.w.q.w.w.q.w.w.q.w.w.w.w.w.q.w.w.w.w.q.0.w.w.%.z @     O                                                   ",
"                        O O.w.w.w.w.q.w.w.w.q.w.w.q.w.w.w.q.w.w.w.w.q.w.w.w.w.w.q.w.w.q.0.w.w.-.M O     O                                                       ",
"                        @ ;.w.q.q.w.w.w.w.w.w.w.w.w.w.w.w.w.w.w.q.w.w.w.w.q.w.q.w.w.q.w.w.;.m #                                                                 ",
"                        @ 1.w.q.q.w.w.q.w.q.q.w.w.q.q.w.q.w.w.q.w.w.w.w.w.w.q.w.w.0.w.,.B O     O                                                               ",
"                        @ 3.w.w.w.w.w.w.w.w.w.w.w.w.w.w.w.w.w.w.w.w.q.w.w.w.q.w.w.w.A       O                                                                   ",
"                        # 6.w.w.q.w.w.w.q.w.w.q.w.w.w.w.w.w.w.w.q.w.w.q.w.w.q.q.w.w.) 5                                                                         ",
"                        # 2.w.q.w.w.w.w.w.w.w.w.w.q.q.w.w.q.w.q.w.w.w.w.q.w.w.w.w.q.w.w.^ 4       O                                                             ",
"                        @ >.w.q.q.w.w.q.w.w.w.w.w.w.w.w.w.q.w.w.w.w.w.w.w.w.w.w.q.w.q.w.w.q.Q <                                                                 ",
"                        O @.w.w.w.q.w.w.q.w.w.q.w.w.q.w.w.w.w.w.q.w.w.q.w.w.q.q.w.w.w.q.0.w.w.9.W 4     O                                                       ",
"                          ] w.w.q.w.w.w.w.w.q.w.w.w.w.w.q.w.w.q.w.w.q.w.w.w.w.w.w.w.q.w.w.q.q.w.w.9.T ;       o                                                 ",
"                          U w.0.w.w.q.w.w.w.w.w.q.w.w.q.w.w.w.w.w.w.w.w.q.w.q.w.w.q.w.q.q.w.w.q.9.w.w.8.T 2     O                                               ",
"                      O   j w.q.w.q.q.w.q.w.w.q.w.w.w.w.w.w.w.w.q.w.w.w.w.w.q.w.w.q.w.w.w.w.w.w.w.w.q.w.w.0.R ;       O                                         ",
"                          ; 0.w.q.w.w.w.w.w.w.w.w.q.w.w.q.w.w.q.w.w.q.w.w.w.w.w.w.w.w.w.w.q.q.w.q.q.w.w.0.w.w.8.Y 3     O                                       ",
"                             .w.q.w.w.w.w.q.w.q.w.w.q.w.w.q.w.w.w.w.w.w.w.w.w.w.w.w.q.w.w.w.w.w.w.w.w.q.w.q.q.w.w.9.U ;                                         ",
"                        O   C w.q.q.q.w.w.w.w.w.w.w.w.w.w.w.w.w.w.w.q.w.w.q.w.w.q.w.w.w.w.w.q.w.w.q.w.w.q.w.w.w.9.w.w.5.I <                                     ",
"                            = 5.w.w.w.w.w.w.w.w.q.w.w.q.q.w.w.q.q.w.q.w.w.q.w.q.w.w.w.w.q.w.q.w.q.w.w.q.q.w.q.w.w.q.q.w.w.9.T ;                                 ",
"                              ! w.q.q.q.q.w.w.q.w.w.w.w.w.w.w.w.w.w.w.w.w.w.w.w.w.w.q.w.w.w.w.w.w.w.w.w.w.w.w.q.q.w.w.w.0.w.w.8.I ;                             ",
"                              q w.w.w.w.w.w.w.w.w.w.w.w.w.w.w.w.w.w.w.w.w.w.w.w.q.w.w.q.w.w.w.w.w.w.w.w.w.w.w.w.q.w.q.w.w.q.0.w.w.9.A                           ",
"                                ( w.9.w.q.q.w.q.q.w.q.w.w.q.w.q.q.w.w.q.q.w.w.q.w.w.w.w.w.q.q.w.q.w.q.w.w.q.w.q.w.w.w.q.w.w.w.w.6.w.!   O                       ",
"                            O   ; 8.w.w.w.q.w.w.w.w.q.w.w.q.w.w.w.w.w.w.w.w.w.w.w.w.w.w.w.w.w.w.w.w.q.w.w.q.w.w.w.w.w.w.w.q.w.q.w.3.&                           ",
"                              O   A w.9.w.w.w.q.w.w.w.w.w.w.w.w.w.w.q.w.w.q.w.w.q.w.w.q.w.w.q.w.w.w.w.w.w.w.w.w.w.q.w.w.q.w.w.0.w.A   O                         ",
"                                    } w.0.w.w.w.q.w.q.w.q.w.w.q.q.w.w.q.w.w.q.w.q.w.w.q.w.w.q.w.w.w.w.w.w.w.w.w.w.w.q.w.w.w.0.w.]                               ",
"                                    - 2.w.0.q.w.w.w.w.w.w.w.w.w.w.w.w.w.w.w.w.w.w.w.w.w.w.w.w.w.w.w.q.w.w.q.w.w.w.q.w.w.w.0.w.<.*                               ",
"                                  O   r w.w.w.w.q.w.q.w.w.w.w.w.w.w.w.w.q.w.w.q.w.w.w.w.q.w.w.w.q.w.q.w.w.q.w.q.w.w.q.w.q.w.w.9                                 ",
"                                    O   k w.w.0.w.w.w.w.q.w.w.q.q.w.w.q.w.w.w.w.q.w.w.q.w.w.q.w.w.w.w.w.w.w.w.w.w.q.w.q.w.w.g   O                               ",
"                                      o   x w.w.9.w.w.q.w.q.w.w.q.w.w.q.w.q.w.w.w.q.w.w.w.w.w.w.w.w.w.w.w.w.w.q.w.w.0.w.w.g                                     ",
"                                        O   g q.w.0.w.w.w.q.w.w.w.w.w.w.w.w.w.w.w.w.w.w.w.w.q.w.q.w.w.q.w.q.q.w.w.0.w.5.u   O                                   ",
"                                              7 =.w.q.q.w.w.q.w.w.q.w.w.w.q.q.w.q.w.w.q.q.w.w.w.w.w.q.w.q.w.w.q.0.w.@.<   O                                     ",
"                                            o   # ~ w.w.q.q.w.w.q.w.q.w.w.w.w.w.w.w.w.w.w.w.q.w.q.w.q.w.w.w.0.w.w.T @   O                                       ",
"                                                    d %.w.w.0.w.w.w.0.w.q.w.q.w.w.w.q.w.q.w.q.w.w.q.w.q.q.w.w...r     O                                         ",
"                                                      @ V -.w.w.w.0.0.w.q.w.w.w.q.w.q.w.w.w.w.q.0.q.w.w.w.+.z                                                   ",
"                                                    O     # g ' 8.w.w.w.w.w.q.q.w.q.q.q.w.q.w.w.w.w.5._ s @     O                                               ",
"                                                        O       - V / ;.9.w.w.w.w.w.w.w.w.w.9.-.^ n &                                                           ",
"                                                                      # 3 r g x z z z x g r , @         O                                                       ",
"                                                                  O                               O                                                             ",
"                                                                            O O   O O     O                                                                     ",
"                                                                                                                                                                ",
"                                                                                                                                                                ",
"                                                                                                                                                                ",
"                                                                                                                                                                ",
"                                                                                                                                                                ",
"                                                                                                                                                                ",
"                                                                                                                                                                ",
"                                                                                                                                                                ",
"                                                                                                                                                                "
};
