/* XPM */
static char *_d62b752dfdf45a2ae848ee5a1ac95bbhj7qB0qFw2gK91zn[] = {
/* columns rows colors chars-per-pixel */
"64 64 92 1 ",
"  c #010101",
". c #080606",
"X c #070807",
"o c #0B0B02",
"O c #060609",
"+ c #080709",
"@ c #070909",
"# c #0B0A0B",
"$ c #120E0F",
"% c #0D110E",
"& c #131202",
"* c #181705",
"= c #1B1A02",
"- c #13130C",
"; c #0C0D19",
": c #110E11",
"> c #0E1112",
", c #131313",
"< c #191616",
"1 c #171816",
"2 c #1C1A17",
"3 c #16151A",
"4 c #1A1619",
"5 c #161818",
"6 c #1A181C",
"7 c #211D17",
"8 c #242403",
"9 c #23241F",
"0 c #1C1F20",
"q c #434301",
"w c #4B4904",
"e c #575600",
"r c #5E5D01",
"t c #605E00",
"y c #646301",
"u c #666400",
"i c #6E6D01",
"p c #6D6B09",
"a c #727106",
"s c #7B7A01",
"d c #7E7D01",
"f c #838100",
"g c #858401",
"h c #868601",
"j c #898701",
"k c #888801",
"l c #8B8A01",
"z c #8C8A00",
"x c #8F8D00",
"c c #8F8F01",
"v c #928F00",
"b c #939201",
"n c #949101",
"m c #999601",
"M c #9C9903",
"N c #93920C",
"B c #A29F00",
"V c #A4A001",
"C c #A5A201",
"Z c #B7B600",
"A c #B8B600",
"S c #CECC00",
"D c #D2CE00",
"F c #D3CF00",
"G c #D4D100",
"H c #D5D300",
"J c #D7D401",
"K c #D9D503",
"L c #DBD900",
"P c #DEDB00",
"I c #DEDD00",
"U c #E1DE00",
"Y c #E4E300",
"T c #E6E401",
"R c #E8E600",
"E c #E9E800",
"W c #EAE800",
"Q c #ECEA00",
"! c #EDEC00",
"~ c #EFEC00",
"^ c #EEEC01",
"/ c #F0EF00",
"( c #F1EF00",
") c #F3F100",
"_ c #F6F400",
"` c #F8F500",
"' c #F8F600",
"] c #FAF800",
"[ c #FCF900",
"{ c #FDFA00",
"} c #FDFB00",
"| c #FFFE00",
/* pixels */
"                      O    X       O        ,     .      O      ",
" O3 .. .                          O5 .      3O          .       ",
"    .7       .   O  O  .             #.   #                     ",
"       #O              O                  O    O                ",
"       #O    .        #       O O   +##              O@         ",
"   %X       O              O      O + O               @         ",
"   #                         X              #                   ",
"O   O  X     O   #5 #        O                .O                ",
"       #-    O   .,X                       O  .O             +# ",
"  X O  #-         #1   O          O       65O                +# ",
"                  O  X  +    .   O  # ..  :.          OX        ",
"O          O .      O    O              O                       ",
"  OO      3#              o&o&ooo&oo*oooo                       ",
"         #0   O O O     # BPGJGJHKHHHKFUv  O  #       O#        ",
"  #   %O#@        5#      A}((((_())(((}B     >    O  O>     +# ",
"  #,# ,X        +   o*&*&oA)WW(^^W^WQ^R`C-*&&&.              #6 ",
"   $#    OO  OO O @ g^LPUUT(WW(W(W(^^(W^RIIIPQf                 ",
"  O,5               l|^((((W((W^^(W^WW(W((((R|j        O  O   OO",
"   +#       .  # o=on`R^^WW(W(W^W(^^(W((QQQQW}v+*.    O$        ",
"          O  O@-;sRHY^^^^W^W^W(((^(W^(W((WQ(QQYFYr     .        ",
"  O  @         .Og|(^^^^^^^((WW(W^(W(W^^QR(W(R((}u              ",
" O   # O         f}R^^W^^((WW^(^^^W(W^(W((W(Q((R_u           #  ",
"           @#  @ f}R^W(Q^WW((^W(W((^(^(W(WWQRRWR_uO    @    .,O ",
"           #, O  d}R^Q(Q(W(^^^^((W(^W(WW(W((]}}`|a O    #  Oo-  ",
"           O  8ewC`RW((W(((W(^WW^WW^(W^((Q(DnmmbBqO.      476   ",
" #   X  :  O  p|)(Q(((W(WW(WWWW(^(^TRWRRRT)n          OO  @O+   ",
"           .  y_RR(QWWW(W^((W((WWW(]}]]}]`|C  O     O    .      ",
"       .      r`W((W(W(W(W(W((W/^(UBvvvvvvMt       ##    ,,    O",
"O      X      r_W(((W(((W(WW(WRWRQHo             . O  O5O  #    ",
" .#    X      t_T(WW(WW(WW(W(]}}`|Y& .   .       O  @  @  #, #  ",
"      @       r`W(W(W((W(QW(Uvjllldo +        X       O       O ",
"      #OOX  . r`WQQ((WW(W(((Uo         +           @   #O       ",
"    #O        t`W^WW(W((((W(I,                       O ,X       ",
"    $,        y_^W((W(WWWQW(YnNjjlso               OO           ",
"  O -,      . t`W^W(((W((W(W(]|}}|R=           .   .       X    ",
"    ..        r_^WW^(W(W(WR((RWRR(H.      O  O   O   .      O   ",
" .    #.      t`WW(W^^^(((W(^^^WQ(Yvglgljgce  #                 ",
" O    %.      t)W^(^W^(WWW^^W^^^^^^}}}}}}}|C  .      O    #     ",
"OO            y|((W(^(W((W^W^^^^^^^RWRRWWT)m                 @  ",
"              8eqB`WW^(W^(^(^^^^^^^^^^^^^W)SbmMMBq     O  O     ",
"     X ## O      f|RQ^^^^^^^^^^^^W^^Q(QQQ(Q(}]]`|i .   #        ",
"   O  O        + j}QQ((R^^^^^^^^^^^^Q((W(QQQRRWT_y              ",
"           #O    f}R^(^^^^^^^^^^^^^^QWW(QQQQQ(WW`u .         -# ",
" #       O :#    g|Q(R^^^^^^^^^^^^^^(Q((((Q((Q(Q}u oO    #   #  ",
" .       +       dQPT/W(W^^W^W^^^^((W(QQQQQ^Q(YP^y  O   O2      ",
"  #  OO      -+  &=on]T^^Q^^^^^^^^W((WW(QQ^QR}bo=&             O",
"             #      l}((((^^^^^^^(QQW(QQ((((R|l                O",
"                  + g(KPUIR^W^^^^W(QWQQ(RIIIPWf            O    ",
"          OO        o&&&&oZ)T^W^^^^WW^R)Co&*&&o                 ",
"                 <        A})_))(((_)))|B                 .     ",
"  .      O  .    ,      . VPDDHHFHHFHHDUl  ..   O O.      #,    ",
"                    .     .&oo&oooooo&ooo .O               #    ",
"                   O  O                          @              ",
"                           >           .O                       ",
"      O      O.  # 3+      @      :                          O  ",
"     O3   #   @O O $.#      O O   5           O      6+      .  ",
"      O                 O    #2                         O  #    ",
" O                      .                        .   X  9@     #",
"      O  O        O           #        O             , #2   OO #",
"     #O           ,    O           +  #              O  O    #, ",
"     O         @  ,            O# O               O, O        O ",
"                            X  O: X      @         o            ",
"   .      O                  .           :, O   O               ",
" #O                           O   O  %, #   #      +            "
};
