/* XPM */
static char *f8b290035e294335a29ced4de49659becWk2hwVy7HBulNqn[] = {
/* columns rows colors chars-per-pixel */
"64 64 89 1 ",
"  c #010101",
". c #080607",
"X c #070806",
"o c #0B0B02",
"O c #040409",
"+ c #080709",
"@ c #070909",
"# c #0B0A0A",
"$ c #120E0F",
"% c #0D110E",
"& c #131301",
"* c #1C1B00",
"= c #13130D",
"- c #1C1B0B",
"; c #0E0D11",
": c #110E11",
"> c #0E1112",
", c #131313",
"< c #1A1415",
"1 c #171816",
"2 c #1D1C15",
"3 c #16151A",
"4 c #1A1619",
"5 c #161818",
"6 c #1B1A1B",
"7 c #211D0E",
"8 c #211D17",
"9 c #201F18",
"0 c #222101",
"q c #252508",
"w c #23241F",
"e c #1E1E20",
"r c #434302",
"t c #494802",
"y c #565500",
"u c #5E5C01",
"i c #605E00",
"p c #656400",
"a c #656407",
"s c #6C6A00",
"d c #7C7B00",
"f c #807F02",
"g c #828102",
"h c #858300",
"j c #888600",
"k c #888703",
"l c #8B8A02",
"z c #8D8C05",
"x c #918F02",
"c c #909002",
"v c #929002",
"b c #979501",
"n c #999706",
"m c #9A9800",
"M c #9F9D00",
"N c #A29F01",
"B c #A4A200",
"V c #A6A202",
"C c #A7A405",
"Z c #A8A500",
"A c #A8A40F",
"S c #B7B600",
"D c #B8B600",
"F c #CDCC00",
"G c #CFCD00",
"H c #D3CF00",
"J c #D5D100",
"K c #D7D602",
"L c #DBDA01",
"P c #DEDB00",
"I c #DDDB02",
"U c #DFDD01",
"Y c #E1DE01",
"T c #E5E300",
"R c #E6E300",
"E c #E9E700",
"W c #EDE900",
"Q c #ECEA00",
"! c #EFEB01",
"~ c #EDEC00",
"^ c #F1EE00",
"/ c #F1EF00",
"( c #F2F000",
") c #F4F200",
"_ c #F6F400",
"` c #F8F600",
"' c #FAF800",
"] c #FCF900",
"[ c #FFFE00",
/* pixels */
"  O                   X    X       O        ,O   ..      O      ",
" O3 .. .                          O5 .      3            .      ",
"    .8       .   O  O  X             #.   #                     ",
"       #O .            O                  O    O                ",
"       #O    .        X.      O O   +##     O        O@         ",
"   %X       O              O      O + O               @         ",
"   #                         X              @                   ",
"O   O  X     O  O#, #        O                .X                ",
"       #=    X   .,X                       O  .O O           +# ",
"  X O  #=         #1   O          O       63O                +# ",
"  .               O  X  O           X O   ,.          O#        ",
"O          O .      O   .O   #      O   O                       ",
"  OO      3#        .        O   #  #   XX.                     ",
"         #e   O O O     O       #6O           #       O#        ",
"  #.  %O##      . 2apppsr   .          rspsppo>.   O  O>     @# ",
"  @,# ,X        # &T['_[M         ,5   C[__'W*               ;4 ",
"   $#    OX  O    #K~QT'b .       ,6  OA_TQWPo       O          ",
"  O,3        . .gzcT~~W'm   O          m'QW~Eclgo         O   OO",
"   +#          7W['W~~Q'b O .          b'Q~~~'[W&     .$        ",
"          O  X@-IWQQ~WQ'b    #        Ob'Q~WWQWI&      .        ",
"  O  @O        &I(~~W~W(FcVi O   OX uVcF(W~~~~/I-               ",
".O   #         &I(W~~~~~)`[m      . c[_(W~~~W~/Y&            #  ",
"           @#  oI(~W~~W~WT`x        k_TW/~~~W~/Yo      X    .,O ",
"           #2lCVQ~WW(~W~WE]x     O  k[WWW~W~~W~EVVxX    #  .#=  ",
"O         O oY[_~~~W~W~/WQ'x        l[QW~~/~~/W~`[To      694   ",
" O   X O$   oH(QW~W/~~~~WQ]c . +  O l'QW~~W~WW/WE/Ho  XO  XO+   ",
"           @oK(W~~~~/WW~WE]c    O#o k[QQ~~~~~W~~W)Jo     .      ",
"       X    oK(W/~~W~~~W~W]x    O#  k'QQWW/W~~~~W/J=#    ,,    O",
"O      X    oJ(~WW~/W~~/WW'bo&o  o&.z]W~~/W/~~~~W(J&   ,O O#    ",
" O#         oJ(W(~~W/~~W~W~TJTd  dQJT~W~W~~~~/~~W(Jo  O#  X, #  ",
"      @.    oJ)WQ/W/W/W/~~~(~[z  l[~~W~~~~~W/W~~W(Jo .O       O ",
"      #O #  oK)W~~~~~~~~~W~~Q'j  j'Q~(W~W/~/~~~~W)J=   #O       ",
"    XO      oJ(W~~~~~W~W~~~~W'x  l'Q~~~~W~~W~~~~W)Jo # ,@       ",
"    =,      oJ(~/W/~~/~/~W~~Q'z  l'~W~~~/~~/W/~~W(J&            ",
"  X $,      oK(WWW/W/W~~/W~WQ'n#on'W~~~~W~W/W~W~W)J&       O    ",
"    OX    X oJ~W~~W~~~W/~W~WQQTPLT~W~WW(/~~~~~/WW~Ho O      O   ",
" .    #.    oP'_~W~~~~/~~W~WWW/(//~~WW~~W~~~W~~~([Po            ",
" O    %.    oNDSQ~~WW/W~~/~~~~WWWW~~~//~/~/W~~~TSSBo O    #     ",
"OO             &I/~W~~~W~~W~~~~~~~~W~~W~~~W(~W/Io         .  X  ",
"               &I/~~W/~/~~W/~W~WW~W/WW/~/~W~~~(Y& O    . OO     ",
"     O X# O    &I(W~~~~~(Q~W~~~//~/W(~~Q~WW~W~(Y& O    #        ",
"  .O  .O       oP~E~/W/W~~~/W/~W~~~~~~~(~/W~WEWP&               ",
"           #.  &W[_W~~WW~~W(W/W/W//W~W~W~W~~~][E&            =# ",
" #       # :#  okxcQ/W~~W~~~~~~~~~~W~~~~~~W/Exlko  .O    #   #  ",
" .   .   O        .JWWQQW~~W~~~~~/~W~~~WQEEWL2O     O.  O2  O   ",
"  #  OO      =    &E[]'`_Q~~~W~~WW~W~~W_]'`[~q   OO            O",
"             #.   odkkkdZ(~WW~WW~W~QWQ~Zdlghdo                 O",
"                        r(QQQWWWQQQQWQ(t                   O    ",
"          OO          . y')___``_``_`)'u ..X                    ",
"                 <      7puuuuiuiiiuiua0                  .     ",
"  .      O  .    ,            O             O   O O.      #,    ",
"                    .    ..X .O .   ..    X.               #    ",
"                   O  O  .              O        X              ",
"                  O   .    >            .                      O",
"      O   .  O.  %O4#      #      >                  O      O#  ",
"     O5  O#   XO O #.O      O O  .3           O      4O         ",
"      O                 O    #4                         O  #    ",
" O                      .                        .   O  wX     #",
"      O  O        O           #        O             ,.#6   XO #",
"     #O           ,    O           @  #              X  X    #, ",
"     O         @  ,            X# O               O, O        O ",
"                            X  O, X      #     O  .#            ",
"   .      O                  .           :=  O                  ",
" #O                   O       O   O  %, #   #      .            "
};
