/* XPM */
static char *_6b8cd3a65654d73d56753a268644978LHFVPG9xXJR532OY[] = {
/* columns rows colors chars-per-pixel */
"80 80 46 1 ",
"  c #1E1E45",
". c #1F1F48",
"X c #201F47",
"o c #201F48",
"O c #1F2047",
"+ c #1F2149",
"@ c #202147",
"# c #23254D",
"$ c #25284F",
"% c #252751",
"& c #262952",
"* c #292B55",
"= c #2A2D59",
"- c #2B3057",
"; c #2E315C",
": c #30345E",
"> c #2E2F62",
", c #2F3262",
"< c #323465",
"1 c #333964",
"2 c #343669",
"3 c #36396C",
"4 c #383C6E",
"5 c #373B70",
"6 c #393E72",
"7 c #3C4375",
"8 c #3F4679",
"9 c #3F487B",
"0 c #40477B",
"q c #414A7D",
"w c #444D82",
"e c #465186",
"r c #485287",
"t c #475289",
"y c #49538A",
"u c #4D598D",
"i c #505A8F",
"p c #4E5C92",
"a c #515E95",
"s c #535F99",
"d c #536096",
"f c #55639C",
"g c #58669F",
"h c #5765A0",
"j c #5866A2",
"k c #5968A1",
/* pixels */
" :duqqqeaapsppppw8 ;auw9qwpappwqqq99O=ppqwaapuqqq9w9w0#%iaqqqwaaaaapppw0$$uaw9wq",
"O1gdeeeyhsfhfffdww.,ffwtrtfffswrwrtw#;fferfffftrrrwrew#=ffrwrrfffffffftw%*dftwrw",
"#;yw22%=52*=344422#=tw32236343%*4242@=tw&*3334323242*%#*we32&&33**134422$%rr5332",
"@;rq2,#%2>+%22,222@;tw22222,2<#%<22,#=rq#%<2<<<<222,%##*we2<$#<<$#<2<<2<#$we3,22",
"#;rw<22<2<@*222222+-tw222<%*222<222<#=rw222<$*<222222<#*we222222$#22223<%%we2222",
"#;tw<2222<%*2<222<#-tw222<#%22222<2<#*rw222<$%2222<222$&ee22222<%$2222<<$%we3,22",
"@;yq#%%=222>#*222<@;tw2<%*2<%*2<%*22#=rq%%%*<23<2<%*2<#*ew*$&%222<%%<332%%er52%%",
"#;r8###*222<#*<22<#-ww2,#*2,#%2<#%2<#=wq%##%<2222<#%<2#*wq&##$<<22%%<<22%*ww3,%%",
"##*%####%%####%%%%##*%$##$%%##%%##$#+$*%$$##%%%%$##$%%%o&*####&%%###%%%%##*&$#%#",
"*%$$%&&###&$&&%%*%*$$$*%%%#$**%%%**$**$$%%%%%%%%%$*$&%%*%%&&&&$#$&*%%&%%$*$%$&&%",
"dpqerwe9o1sawwwrssdddddpr9@;apwwerddspwwqeeq#-aawesssfssewwqeq%*adwwwwdaddsafdww",
"fdeeert9 1gsrrwyfshfffhdtqO,jdeterffhdtwrrtq#-ffwrfsfffsrewrew&*dfyeerffffffffyw",
"=;43424<o:yw4<%=42=;65444<@;tw42126362**2342#*rw**4443==334232#&rr52==33-=444423",
"#%2<22<<#=rq2<#&2<@%<2,22<#=ew2<2<2,2,#%<12<#*rq%%<2<<#%<22<2<%&qw3<##<<#%<<<1<2",
"<,#=222<#=ew22<23<#*22222,#=rw2<22%=2222232<#=rw<<22%*<<%*1<22%&ee222<32%&<22222",
"2<#%222<@>ew2<222<#%2<2222#=rw22<<#%22222<2<#*ew222<%%2<%%2222$&ww322222%#<22222",
"%%#*222<@<rq$%$=<<<:%*222<#-tw3<%*2<%*22%*2<#*ww*%**<<%%$%<22<%*ee*$%%<22<%%2222",
"###=222<@:r0#$#*2222#%222<@=rw<<$%2<#$22$%22#*ew###%<1$#$%2<22#*eq$#$%<222&#222<",
"%###$&%###**#$#$##&%#$%%%%#%**%%#%%%#%%%#$%%#%=*#%##$%#$##%%%*##**%#$$$%$&##%&%%",
"$%&%$#$%&$$#%%%%$$#$$%$$$$%%#%$$$$$%##$##$%%%%##%#$%$$##%*%$###*%%%%%$#$##$&$#$#",
" 2spwwweaddaaaapw0X:saqwqtspspwwwww0@;aawwsssawwwwwwwq#=aswwwwaaaadadae0*&aaqwww",
"O1hseeeyffffggfdyqX1jserttfffdereerq@:fferffgsrreereww$*ssrrrrsgffffffre&&sgrrrw",
"@:yw32*=64=<65664<#=yw24256673*-3442#*yw*=4466242252==#=rr42*=46;;464433&&er4343",
"@;ww2<o*<,@%2<<<2<#=ew2<2<2,2,#%<2<<#=rq$$<<<<2<222<###&ww2<%#<<##<2<<2<#&qr22<2",
"#;yw22<22<#*22222,+;tw222,%=22<<222<#=rw2122$*222222<<#*ew222<22%%222222$%we3222",
"@<rq22222<#*222222#=ew222,#%<232<22<#=rw222<#%22222222#&ew2<2222#%<22222$%we32<2",
"@:tq#&%*2<<<%*223,@;rw22%*2,%*2<%*2<#*eq&&&&<<2222$&22#=ew*$%&22<<*%2222%%ee3<*%",
"#;r0###*222<#*222<@;rw2,+*2<#%22#%2<#=rq###&22222<#$22#%ww$$##223<%%<222$%we2<%#",
"#%==###$%**%#%*%*%#%==%%$$%%%$%%%+%*#%==###$%*%*%*#%*%%%==####**%%%%%%%%#%==%%$$",
"###@#%#####%%##%%%%$%+$$#$$#%%$#%%%%$$##%#%%%#####%%#%%%##%#$$###%%%%%%#%%##$##%",
"dpqwwwq0.,dpwwwwpppaaaapw9+;dpwqwwpaapqwwqw9#-apweaaaaaawqwwqq%*aawwwwaaaaaasawq",
"jsrrrryq 1jdetwyjhjfghhstwO;ffrettjfjdrrtrtw#-ffryffffgfrrrrre%&sfrrwyfjhgffjfye",
";<44444<@;yw52==64;<667652#=tw44556664==4432#*yr==6664::242253#*rt63-=46;;466644",
"X%<2<<2<#,ww2<+%2,O%<<<<22+=ew<222<<2,##<22<#*ww##<2<<##<2<222%%qw2<##<<##<2<<<2",
"2<%=221<#=ew22222<#*223<2<#=ew2222%=32<22222#*rw2<3<&*<2**222<%%wr42<<22$$222222",
"2>+*222<@,ew22222<#%22<32<%=ew222<#%2222222<#=ww223<##22#%2222%%wr223222$#2222<2",
"&&#*2<3<#;tw&%%=22<<%=3<2<#=rw2<%*2,%=2<**22#=rw%%&*2<*%$%<222#*rw=%%*22<<*%<222",
"###*222<@;y8###*222<#%222<@=rw2<#*22#%2<#&2<#=ww%%#%2<$##$2222$%ww%##%<32<$$<22<",
"#%%%%***#%==%%#%&*&%#%*%**%%;=%*%#%%#%*%#%*%%%-=%%%#&&##$#**%*$#=-%%%%*%*%$$****",
"#%#########@#################@######%%########++#######$########@###############",
"@1apqwqwaapapappw0O:auqwwwppapwqwqw0#-aa0qaappww0wwww0$*aawwqwappappape9&*uawww0",
"@1jfrttyjfhfjfjdrqO<gfrrryhfjsyreryw@:ffrygfjfrerrrrre#*ffrreyffggfkgfte&%shtete",
"@<yw43=:66;<666641#;tw44456566=;4542#*yr=;7666444442==#*er54;=66<:677655&&tt5355",
"#;rq2<+%2>.%2<222<@;ew2222222>@%2<2<#=eq##<<<<2<<<2<###*ww2<##<<@@<<,22,%&we2<22",
"@;ww22,22<#*22222<#=tw2222*=22<<2222#=rw2<22&=222222<<$*rw22<<22%%222232%%ww3222",
"#>ew<2223<#*32222<#=rw222<@%2222222<#*rw222<##<222222<#*wr22222<%#22222,%%wt322<",
"@:tq%%%=2<<>%=3222%=tw22**<<&=2<%*22#*rq*%*=1<222<**22#&ew=%%*22,<*=<222%%we22=*",
"@;y9#%#*223<%%222,o=tw2<#%2<#%2<@&22#*rq###%22222<#%2<$*ew%##$2222%#2221%%wr4,%#",
"%*==#$#%****#%***%%%;=*&%%*%%%&*%%*%%%;=$%$$***%**%%*%%%;=$##%****##****%%===*#%",
"@##@######+##@+++@#@+@#@+###@@@#%#@O##@@#+####@##o#o@X@#@@####%+++##++@@##+.@@##",
"ay999qq7.,pu999wpppppppuq8+;pp999wpppuw99qq8#=uuwwipppaiwq9q99%*upq99wupppppppwq",
"gftyrryq 1kdttrpjjffjjjdtr@,jfyreyjfjftttrtw#-fftyfhggfftttrye%*fjytytfjjfjfffyy",
"11445443#;yw53;,66<1667664+;yt55556766,;4454#=yr=>676712444664%%tt63;,771,777654",
" #222<<>#;tw2,+%2> %2<2,<<#=rw2,2<<22,+%<22,#%rw#o<<<<Xo,2<,2,$*ww22#+,,#+<<<<2<",
"<>*=222<+;t922,,5<%*32322<#=rw2222%=22,<2222#=rw2<22*=<>*=2222#%er22,<22%%<22222",
"3<@*222<@;tw22232,o*22222<#=ew222<%%3222222<#*rw222<@%32#%222,%*ww32232<%$222222",
"**#*222<#;tq*=%=22<<%=222<#-rw2<%=,,*=2<*=22#*rw**&*<<=&#%<222#&ww=***22<,**2222",
"###=222<@=yq@##%222<#%222<#;rw2<%%22#%22#$2<#*rw%##$22###%<23<$&er%#+%<322%%2222",
"#%%%**=*%%,;$%$%***%%**=**%%;;**%%*=#%*%$$=%#*;;%##%&&$#%%****$$;;%%%$**%*%%%=**",
"##@+#+@@#@  @@O#@###@@@@#+@@ O##o##.%%..+#O+@@.+####@####+#+#@@@ @@@+#++#%#@@o.#",
"+<uu0qqwuuuuuuuyq0o;iu8w9wuuuu00qq00#-pu9wypuyq9000q09$*uuq09quupuuuuuq0&%uuw09q",
"+1gfttrykjjgkjkfywX1jsteryjjjftrrrrq+;fftyjjjjytryrrre#-ffytyyjjjjjjjgyw%*fjyttt",
"#;uw53=<77<1778752#=yr55557777;,4763#=yy>,7787644673;;#*yr64;<7711677754%%ry6665",
"#;rq<:O%2> %2,<<2,#=tw<222<2<,O#<<<<#=wq.%<<<<<2<<2;#+#*ww2<@o,<oo<<<<22%%ww2,<2",
"O;rw22,<22#*222222@=ew2222*=22<,222<#=ew<<2<*=222222<,#*rw22,<22%%22222<$$wr3222",
"#;tw<2322<#&32222<#;ew2222#%22222222#=ew222<#%22222222#*wr32322<%%222222$*wr3,22",
"#;yq%=*=22<>&=222<@;tw2<%=2>*=22*=2<#*rw****<<222<**2<#*ww=***22<<**222<%%ww5,==",
"O;y0@%#%2221#*222<#=yw2<#%22o%2<#%2<@=yq#$#%221221#%22#*rw%##%<24<#%2231%%wr32##",
"$%<;%%%%==*&%%===*#%<;=*#%**%%=*%%==$%<;%$%%**&=*=%%=*%%:;%%$$&=*=%%**=*%%,,=*%%",
"OO o#o#@##OX#@O+  o. OO+#+##ooo#@+O OOOO#o#@##X@@@@XXX@o O#@#@#$ O#@@oX @+    #@",
"ur899997+;uy9999uuuuuuuy97#;uy008quuuyq9qq07#=yu9qyuuuuyq99908%*yu088qyuuyuuuuq8",
"kfryyttwO1kftrrujjjjjjjfyw@:gfyrtujjkftyrryw#=ggyyjjjjjjyrrrre%*fjyyyyjkjjjjjgyt",
"13666663O,yy54,<7713778763%;yt56567777;<4643$*yy<<887733466666#%ty74,,8833888766",
" %2<222,@;rq2, %<>X#22,<2,+-ew22<<2<2> #2<2<#*eq+@,,<< @<22<2<#*we2,#O,,+O,<<<<2",
"<,*=222<@;tw22,,3<%*22222<#=ww2222==22<<2222#*rw,<3<==<<==222<%&ww32<:2<&&222222",
"3<#%222<#;rq22342<#%22222<#=tw2232@#22222221#-ew323<#@22##<222%&ww32232<##<22222",
"*&#*222<#=tq*=%=22,>*=222<#;ww32*=<:*=2<*=22#*ee=**=,,=*#*222<%%rw;&*=22<:=*2222",
"###*322<#;yq+##*222<#*2222+-tw22#%22#%2<#%2<#=rq###%22###%<223%%rw%###2222&#2222",
"###&**=*%%<;%#%%*==*#%===*#%<,=*%#**%#**#%**#&<<%%%%**%%##===*%%<<$##%==**#%***=",
"*#%#####%%+@#$#%####%#@###$#+.###%#%#%#%%%%###@@#########%#####%+@#$#%####%#####"
};
