/* XPM */
static char *result[] = {
/* columns rows colors chars-per-pixel */
"64 64 82 1 ",
"  c #171D4A",
". c #1D1D4D",
"X c #1E1E51",
"o c #211F4E",
"O c #211F51",
"+ c #1D214E",
"@ c #1F2152",
"# c #1F2A59",
"$ c #21214F",
"% c #222354",
"& c #262857",
"* c #282856",
"= c #25265A",
"- c #28265C",
"; c #26295C",
": c #29295D",
"> c #262760",
", c #282761",
"< c #262C62",
"1 c #2C2D63",
"2 c #2E2E69",
"3 c #302E65",
"4 c #312F6B",
"5 c #263061",
"6 c #2D3166",
"7 c #2E326A",
"8 c #2F3A6F",
"9 c #313166",
"0 c #32326C",
"q c #32396E",
"w c #38396C",
"e c #332E70",
"r c #2F3A74",
"t c #353472",
"y c #383674",
"u c #343B74",
"i c #393B76",
"p c #373678",
"a c #363C7A",
"s c #393D7B",
"d c #374075",
"f c #3A4075",
"g c #37427C",
"h c #3A427D",
"j c #3A3E81",
"k c #3C4483",
"l c #3D4985",
"z c #3D4688",
"x c #3E4B8A",
"c c #3F508E",
"v c #3F4F91",
"b c #3F5192",
"n c #414783",
"m c #414985",
"M c #414689",
"N c #424D8C",
"B c #494F8C",
"V c #43518E",
"C c #48538F",
"Z c #434F91",
"A c #494F91",
"S c #445293",
"D c #4A5494",
"F c #425993",
"G c #485995",
"H c #47559A",
"J c #4A5599",
"K c #475C9B",
"L c #4C5B9C",
"P c #515C9D",
"I c #4E5DA1",
"U c #515EA3",
"Y c #4F61A4",
"T c #4F64A9",
"R c #5363A5",
"E c #5669A7",
"W c #5365AB",
"Q c #5966AB",
"! c #556AAC",
"~ c #596AAD",
"^ c #546AB1",
"/ c #5A6DB3",
/* pixels */
"$i!FcVLTWWWTWSgONRccbYWWIcVND1%WISUQWJvSZNSN%q~DZZLW~WTTWHs.Z~Nx",
"%0IlhrkSzzVNvkuOlLhkkNZAkykkl1@KxuNZAMjkkksu%tIxsakZzzZZNlu.NJhk",
"%6Su6.=0X@072t3Oaxte0727- 440;%cr.1404t440* %6vp2 =4@O22242Okv7e",
"%7Dieety%:yyty4+aNtyy1=yt7yty:%Vk2yt=2ytyy00%6Sat7et==yttt1Xgx0y",
"-6Sw7tt0=:9qtt2XgN000;%00y00y=%Vh403O2yt09yy%6Vu2e0t;=0tty1ogN00",
"*0L1.@<qy0o1yp0OhCi1X0y+<u%-y<=HuO%%ppyy7$1y%7G1@@1yu7@1yy4%lSt<",
"%&q=@%:1;:%:11=%30:-O<:%-1%=1=%71%%-11:<:%;1%;u%@%;1::$:<<:+77:%",
"&%@%%%%%%%%%@@@%$$$%%%%%%O%%%%%@X%%%O%O%%%+%%$+%%=@@%%%%%O@%@%%@",
"YHxxxNyOSGzxxGILLLPDx<%UbzzNPLLxxxMh+gIxNLGLUSlMmmuXSLlmMPIIILLS",
"GxkzzxqOHKkkkSHSHHJZl<&RSzzZJJHaklMh kYglHHGFNlzMNu.SKkkhJHvDHJN",
"%=y72t1Oll0:o31o<e40t%&Na272006X=tt7.uZ@=0q0X=yeet1Xllq=+e1.4090",
"91-7tt<olz001t4$2tttt=;Vkey0=0y240t7XuS71y1=41:0tt6%gNt71y7@4ytt",
"w1$3yy<%zM7ttt2%10t0y==Bjet4%1yyt0t7XuVutt<%t3+3tt3Okl070t1@4y0t",
":%%9yy<$Nz%%%tyt<%0yy-=Dn4=-y:%y1%0tOuS:%=30%%%0yt3Xlx%%=ytt:%yt",
";%%927:%uu%%%110>=127%%gq1%=4*%0<+11%0g&%%14%%%:23<%us%%%322%%12",
"&@%%@@%%X@%O%O+%@%@@@%$++@%%O%%+%%%@oo.%%$o%*%%%@@%%OOO%oo$%%$X%",
"%9SksklVcSVVNkq@gVkhgNNClghhg1%SNaNSVmhshghh%6VkgglVSVVVVg8Xkxgg",
"$wQANMHYLLIIUCgXNRNMzGLRHlxNV6%RGzLIIDNNNZMl%qEDNlDILLYUPSg.SRNx",
"*6Da7@:y%-tttt1XsN000yyy1X4ty<%SuO4ty0t00y:@%6Sa4%<p=%ttyy1.kZet",
"*6Sa7:6t==tt0t2XsNyty6102,0tt:%Za,e0<7tttt61@7Su4,1y%%teyy2Xkx7t",
"%6Dstutt%=y00t4osNtty%%ytyyty:%Vkty4.<t00yyt%2Satyyt%=tt0y2OgN7t",
"$1J2%%1t04=2yy4$gNy1%72=2y=>y<%Ca%=:w9ty4-40%7J7%-1yq7-2yy9.lNq1",
"*9n1$%<401%1091%wh91%37%19%%0<%n0%%-00001%19%1m5%%:601%109:Osh7:",
"%.oo$oO%..$+... .  .o%OXoooo...+oo.@%o..Ooo...o+Oo%%..Oo$.... ..",
"Mgduuu6$hhddukllllxga<%lguuaklhuuua8.tluullllguuud7osxuuulllllxh",
"~IcVVHq$PEbcbWWWWW~LS1;WLSZK!WWbbSDl m!SHWRWWLbSVHf LWbZVRWWWW~L",
"%:uq0y1oxz8<@t7@<pttt=%Zjtt8tt7@:t8e+uZ;=ty0#:yttt1@lMt,@t2@2ttt",
"1,17ey:$lMt2-t2o2tttt;:Zh4t414t<1tt2.ux1<y21::27qt1Xkm02:t2+2t0t",
"i3X2yt1%lMtttt1%2ptty*=Nh4y0.1yyyyy7+ucity,%y4$1t81Xll0ywy3+4y0t",
":%%9tu:%mn==,000<>00y*=Skt<:w:=w2=77+uS1--10==%2tt1XMM-<,000:;tt",
"%%%100:$hi%%%109-%000;=mi2%=0&%01@10%un=%%<w%%%1tq1$shO%%000:%04",
":%oo.+$...X.X.%%+...o.. ..@O+%%+X@XX.. +ooO.%%.X.o....O.XXX%X.oX",
"%6xauusmnmlnnd7Oulaaalmmhsusd:%nhuhmmhiiussu%6Mhuugnmmknns7+fxuu",
"+u/DNZL^WWRWRGh.N!vZvURQPNVND6%QUNRWELNSSVVV&u/DSVGWT^WWRHg.D^NF",
"%7Haw%<a<<yttr2%ac8tttui6%7yu:%Sa@7qyuyq0y1;+7Sa0#1a<<tyuy6.kxeu",
"%7Du4-1t%=tt4t2OaV0t06101=0yt=%Sa%t0140tqy:%%7Su4-1y%@t00t1.kN70",
"%9Su0yyt%;yttt3oaNyty%%tyttty=%Szty0X1ttt0t0%6Ss0yyq%%ttty4.gZty",
"%6G9==2te2;6tt4.gVy1-32:1y1,y-%Sa%<<40tt0=4y@6D7=:1y01-2ty2.kxt2",
"%1V1@%<qt3%:0t1%uxy1X70%:t%=0==x8+%%tt4t2%1q%6Z1$%:t07O<tt3Ohn7<",
"$+&%%O%%$$%%%%%%%%O@$%%X%%%%%%+@@@%%%%O%%oo%%@%%%O%%%O%%@X%O%%OO",
"fq77005+qy776duuuuuq7;%uq77turu000q6+5s08uuduu6090<+wu707uuuuua8",
"/KNAVDu+LWNSFRWWWW~PS1;!IZZJ~WRSVNSn l~VDWTTWISNNDd LWNVSR!WTWWL",
"0qusys1%MSu71au6ajssa;;blppsjss<7pst+uH60sgs7qaaus7.xSs2;su6ajja",
"&-900t<%lM0:%01%<e0ey&&cset0100%<tt2+uN;=042%-309y1Xkl4<%01.2t2e",
"i2X0ty1OlNtqqy4%2y0t0=%Dhtt4o3y0tty7XuVu0y<%00%4yt3XlN4q0y1X4yt0",
"3=%2tt1%MM<1100:<1t0y=%Sk02111<y4100+rV7<1111:%1tt1.ll:11y0:110t",
"%%%3yy1OMk@%@0yy:%tty==Dly%-i-@u1O0q+uS&$+1y%%%3ty3@xm@@%0yi;%yy",
";+.%%=%O#%.%X%%-%$%%%@+&@%$%%$%@%O%+.%;$$%%=%$o%%%%.%=X+@%%%oO%%",
"&&65<<<6162771>@16::16765<511&%61<1675;1:1;:@;711<<7627621;X16:5",
"$i/GDDI!!~~~~JgXNESSZEQQISDSD6%/YSWQ~LVSSSDC#u~DZSK!!!!!~Hh.GQSD",
"%6Pki1tlrukkkj8XkSjsakkza1saa<%Lk1smksaassq6+6Kku1uzurkkhatomHus",
"*7Sy2O=0$%442t2@aNe77044=.20t:%Zu.3400ee00;@$6Zu2%,y%Xe40t2Ohx2t",
"%9Sa0t0y==yqtt2XsNtty=%it0yyy:%Zk0t7X2yttptt%6Suttty%%yyyy4.gV7t",
"%6Dq:1001<10tt2%sNt411114y10y==Ba<11,6tte24t%1bu122y11100y1OkN07",
"%9J1@%<yy0%1yy7ojZi1@00O<y%%y<@DsX%=ywyy0%10%7D6@@1yyqX1yy0+nVt1",
"*%1*@%%;%%$%%%%.#>%%%%=@%=%%%@@<=%%%==%=%$%%@%<%@%%>=%O%=%%X%%%@",
"6:::-<=%<1;;;<5<>>5<<%%15;:<;11=;::;+;5;115561=:<<=@;5;:>11<<55<",
"~RSSSDuXLWVSHR^!~~^YS1-~LbbH!!!SSSDl+l^HJWE!/RSSNDg.LEVSH~~!!!~L",
"uussss1%xSut7kkrkkzkg:%Gxaajzlh6qssu+uG8ylkntusssh0XNDau6khukzMg",
"@:0400<@ll7>+4<.<e22t%=Nh4t4442X-090.uN%O444.%q44y1OlM4-X2,.1t00",
"i3%4yy1%lMtt0y4%7yyty:*Sneyt%2p0tyt0XuSuty3%04%0tt3okN0t0y7+4ptt",
"0<%20y<%lz22204;110yy%%Ns471=14y0100+uN034::4<%3tt:olx34607;177t",
"%%%eiy1%lk%%%00y:%0yy;-Dkt%;i=%y1X9w+sS;$O3y%%%0yy3oNmO%%0yp<%yt",
"*%%=::%%6:%%%&::=%:-:%%3<-=%-=%-=%:=%:6%%%=-*%%%::-%11%=%:=-%%<="
};
