/* XPM */
static char *_833_116ad23cdfbadcdf1e7e0b062e8424175545843c74f9f36ed330bb354e482e8a[] = {
/* columns rows colors chars-per-pixel */
"64 64 80 1 ",
"  c #4A7E1B",
". c #4A811C",
"X c #4E8621",
"o c #4E8B23",
"O c #518623",
"+ c #548C26",
"@ c #568F29",
"# c #5A8F2B",
"$ c #55942B",
"% c #5B942E",
"& c #57992B",
"* c #5A992E",
"= c #5D9631",
"- c #5E9B33",
"; c #639632",
": c #629C35",
"> c #699936",
", c #659E39",
"< c #6A9E3A",
"1 c #5EA034",
"2 c #62A036",
"3 c #65A23A",
"4 c #6AA43D",
"5 c #66A83D",
"6 c #6AA93E",
"7 c #71A13E",
"8 c #6DA641",
"9 c #6DAA42",
"0 c #71A642",
"q c #72AC45",
"w c #78AB47",
"e c #75AE49",
"r c #79AE4A",
"t c #6FB147",
"y c #6FB148",
"u c #73B146",
"i c #75B24A",
"p c #7AB34D",
"a c #7BB94D",
"s c #7DB651",
"d c #77B850",
"f c #7DBA53",
"g c #7DC057",
"h c #7FC058",
"j c #80B34F",
"k c #82B653",
"l c #83BA55",
"z c #88BA57",
"x c #86BD59",
"c c #8ABE5B",
"v c #90BF5F",
"b c #81C057",
"n c #85C25B",
"m c #8BC25D",
"M c #90C35F",
"N c #8EC561",
"B c #8DCA62",
"V c #92C562",
"C c #98C566",
"Z c #93CA65",
"A c #99CB67",
"S c #95CC69",
"D c #9BCE6A",
"F c #96D069",
"G c #9BD26D",
"H c #9ED571",
"J c #9ED874",
"K c #A1CE6F",
"L c #A0D16E",
"P c #A2D471",
"I c #A2DA75",
"U c #AAD778",
"Y c #A5DD7A",
"T c #AADC7B",
"R c #B1DE7F",
"E c #A6E07C",
"W c #ABE37E",
"Q c #ADE481",
"! c #AFE881",
"~ c #B0E684",
/* pixels */
"nddgfghffhfspeee0qeiipaa4558ydyyBgnnbxxfppprriqiiiyyy839*$$-rsas",
"fyydyddiyiyy83,88446qe96,--35yy9dghhdssp46044433999981-1$$+=8q9q",
"fyiddispiiiq848,4<<40ue9,-139999hhnhaeqe987088889953311-oXX$4qqe",
"biddiisdipre83384666quq93335599yghffssps0qq08<8855951881$$o=9qqi",
"fieiq9q9lfksrqwqippe4,:355195333583qzNxckkkprqqe3181899334:4q09q",
"lprpq808ccmxlssspkau3--388939181-,-4mZmNMMVmkpps3,1199998644q84q",
"xspsq0q0fllsjrrppasu6,,499893813,3:<mZcVzvzzrqqe33189y994644009e",
"seri0888xxzzjsskkfp04:-:53331113=,-,cNcCvMVzkrei-1335y9949669650",
"cjkpVcNcVcmZ4qe0eqe0643398988989888qsxczvmccccll39931333353:mbln",
"AmVVPLIPDDSZ<<<:89964446yyyeyyyydersxcccNvvvVZZm331--$$*:::4GHGJ",
"mkccGGPGZZDZ4<8848484464qqyyyyyyiqqdsczkccvNZZZB9993-$$%3:-4FGGG",
"VcmMPLYHHDHN8,,,68886446iiyydyyydpdshcccCVNZZSZB595-*$$$--:9BIIE",
"zrpjNcNNNcNfe8999q9qqq9q9999y5yyy9yyrddsllzzmmcc99933---354qannm",
">%%#<:<,8899splliqqipsds---=--$=--12,,,,888qiidiyyiy999iuw661-%%",
">%;#8,8,q8y8syipqqqipsff22-----=81123,,,qqqrssss99t96669quqw;2-:",
":@#%8,8,8898fpffireepsdd-,--====---333,8qqqqpsdriuit9999qq6u;1;-",
"4*-1,3,,090qepsderrpspsp;:==<<,,4:33-,839940pzkpiuii6466qq0632-3",
"ndgy88,8ZZNn8433ZCZZCZVC000rvvvvHJJN-o$$33,8zMccmlmz3;4>66964599",
"BBBg8,,8mVBN338qNNVCCCSV<0<evNCSHIJH-=$-,,:8zVvmMmFn>%3:476999ti",
"BdBd,,,8SSSZ:,,3ZZCZSSSS088rvSNSYHFF$=$$--;6lVMMZmFM2%4:466999tt",
"Bgnf88,8AZNc4433SSVVSSVN000rvZCZKJHH$$@=,,-8zmccZmMb3;>*089999u9",
"Bdfseeqe<440dlll00eesssser0rfxskespf8rqi,8,<eeqq66674343qq9qiiii",
"gysfdsds#;==cxnx::;8esssssppfspd,8-3pfer8q884<:>@#+%467ueqqqepap",
"hdfskkrr%;;@Smxn<,,8essrrprrsssf,q88siqs48880<<4;3*%766wqqqqiapp",
"nfddsper#@#<sNNx,,:,ifsrderdslls3888ydrp44<,,;::#&&*76<7q66wpwpa",
"y98qpskkwwerkzlsy88y9yqqriir9qi9-8,8yeqelcxzkssa7777jjaappwruuqr",
"8--8pskkcvvlpqqqyrr0,,:88898==-,-3,34440GGGFZZNZ6jwanMbmppppr7qw",
"9-=,plzkcvNzr0qerrde8-3388q8,:3399928880FFDSZNNNj66anBmmpjjpw6wp",
"3-=8pfzzccczpqepyryq4,339899-131-83-48<0LLGGFSZZ6w7kmMmMjbjjw77p",
"98,8eprpcczkrqqeyyey8333y9y93---5988errrVMVmnlblaa6abMkb676jjpjk",
"yyq90877zzkjq088eyy83--1NhBf9585dfdfNZvV74<4>,::qu6pbbkk7<>7lMMM",
"iiqq8<40kkzpr00q0yiy-=-1hNBf9-38ddifNSZV76743,3>uu7akbbb4;;7nAAM",
"f9iq<867kkzk08q99iqi---:bNmm4,,8drssvSSN8888,-,,erqqlnzz3>;6MMMF",
"f9eq0q70zkzzrqeqq9yy--,,xblz<448ssshvSNn,44<3433qq9rlzjz>7:6znbM",
"8-,4pzpzDADAmmNmSSNm4,:,BZVZdkskSSCVSSNZ,,,,qqee3334urwr;;*;2226",
"83,3plrzLDGGVVZmBBNN3,<0NNNZskkkSSSSNNvn4,38erde3888uwwr:>>2;;&2",
"8818scrzDDDDNmZmNBNm,;,4NMmVjkkzhQQSVNNh,,-,0ryy3944euqw2;;42:33",
"3--8rzjcLDPGVmZNZSZN4>,4SSAAkkkzSCvCVNNN8,,4ysdd-3:4rpuw>%;2;-2:",
"fese6470DDGAkispqres7rrrMVMv0070erddsssde08rhnhh999imZmMr660::3-",
"xifd4><4LLPVr486qq8swkkjMVMc>>;><<<80eeeieishZhSiyqpZGFFj6qr2:53",
"ffsi8-,0KLPG0eq000q0kkkkvVVz7>><800yyryrdrydhQhhu99fmGFM7wq64332",
"fdpe8,<>LLGD0q00qqq8kpjrVVVk7>>><,=<ydrry0ykhhSht9qaBFGFuuuq4323",
"xdperqwwvMMvpkfp8480mmNckzzj0870hhhv,8,8hdxhydddt99uabkkqq776666",
"Ndsfllkzrpjkkmmm<:<8SGGSw0wrwrrkQQQQ=$=,NNvhy-3-utq066454466999u",
"nlfxlllzjjjjxmNc8,,8SGGZqqqqerpsKQSQ$==,hNNh8,33tt9906443<4699ii",
"mfffllkskkkrmNnf3:,qFJIFqeqqrrppSQQJ=@$,hNShy,3yttut667044449iyy",
"fiqscmczwrr0Nmmm4599mnNZqqqeqqwrNQQNy==8hhhd3---999533434,355ttt",
"93,qmZNv000<mxcxssd9t:33pirq8866yd8ydyyyy8y8-=--13:-::,3:;-2599t",
"y888SSSN8880zccxpaai83389iii946qaaakuuii6t951*$--:3,>233;2-:6q6q",
"8,,,NVNN<8<0zvcxafsi9335isii0669aaapu9t96t611*$-3::,>::;*>1;666q",
"08qevNSN88,0sxfzidit533399y966767auuapdeu6y911-1:>>,334222;:696q",
"QSCNxssr,<,,qreeafadi99q9985:=*%+++&4uqq66y3-*==ppipzblj%;**3335",
"QKQKsrrr,,,,8888fgdaiuiw335>:*-2...+0srrqqq5,=-,mmnnMmnz;;-;4446",
"KSKKsszz,,,39q99dddiiuuu,443>=;-.O.+qder0q64,,-,kkklzmnz*-%=,4,4",
"QKKKrrs0,,13999tfddaduuu94,:;%@+.O X0r4q8804,=;-lbznnmmm==%%,4,<",
"QKKKkvvs=,--1--1554555454:,0lZZM0r7wDHZKfllkrrrdlllkjuwwpspplxlm",
"KDKKVvNm#$%$$$$$*1*1122>2>>6WWWWMcmmQQ!QNBNNfffxvhvs0<00mVNNSSSG",
"UUKKVVNc#==$$$$&1;1>>233622<WIILzkzmTTQYNNNNzffzhhvs0<00mmccNZNS",
"UUKKCvNz=$=$$$$&*;;&;;2;>*>6WWWWmzmMWQQQmNNnzsffhvhs0800NCZVDDDG",
"KCCVvvNl;,;--$$-waaapuup6766ABAMiripSZDBlnlfpyiihsvhrerrkkskNVcV",
"vccvzxcl8983---3LGGAZBMBajj6a6a6;*2*iupuiiiuy3y3CvSNsshs7w00kkkc",
"vvzzzzzs0004---,AAAAMmMm6jjaaaa62;2;aipuiiii33,3vvNNvsvs0wwwkvcv",
"Cvvvccxl8983-=-,ALLAAMMMjua666662>22b6puyddyy3yyNhNNsszs007wkzzv",
"vccccmml8084:-,8AALDABMFkpababba2222bablddyyy538vNSNzzzkrrwrcvvv"
};
