/* XPM */
static char *e0e8a53f50dd4b2aa4db56e594ddc653jxlLEoMm6ZlvvjMx[] = {
/* columns rows colors chars-per-pixel */
"64 77 249 2 ",
"   c None",
".  c #000303",
"X  c #131704",
"o  c #2B1B02",
"O  c #261A05",
"+  c #3B1D00",
"@  c #342502",
"#  c #3B2B04",
"$  c #342C04",
"%  c #422503",
"&  c #452B01",
"*  c #4A2C01",
"=  c #4B2A06",
"-  c #562D01",
";  c #4C3302",
":  c #493704",
">  c #533401",
",  c #5B3601",
"<  c #533B01",
"1  c #5B3C02",
"2  c #543A09",
"3  c #4A3114",
"4  c #573A16",
"5  c #472C1D",
"6  c #622D02",
"7  c #633401",
"8  c #643C02",
"9  c #6B3C02",
"0  c #6A3503",
"q  c #713E02",
"w  c #7B3F02",
"e  c #533E28",
"r  c #5C4202",
"t  c #594604",
"y  c #554314",
"u  c #644402",
"i  c #6C4302",
"p  c #634B02",
"a  c #6C4B02",
"s  c #65490D",
"d  c #734402",
"f  c #7B4502",
"g  c #744C02",
"h  c #7B4C02",
"j  c #724809",
"k  c #645104",
"l  c #6C5302",
"z  c #685607",
"x  c #735301",
"c  c #7C5302",
"v  c #745B03",
"b  c #7C5C02",
"n  c #735609",
"m  c #69491B",
"M  c #775618",
"N  c #6C5318",
"B  c #7B6302",
"V  c #796705",
"C  c #796617",
"Z  c #5C4524",
"A  c #46422F",
"S  c #674A25",
"D  c #67583D",
"F  c #735B3A",
"G  c #73582B",
"H  c #796734",
"J  c #6C5B45",
"K  c #7B6748",
"L  c #7B735A",
"P  c #833E02",
"I  c #844602",
"U  c #834C02",
"Y  c #8B4C02",
"T  c #914E02",
"R  c #835302",
"E  c #8B5302",
"W  c #845C03",
"Q  c #8B5C02",
"!  c #835A0A",
"~  c #935402",
"^  c #935C02",
"/  c #9C5C02",
"(  c #995702",
")  c #835817",
"_  c #856302",
"`  c #8C6302",
"'  c #836B01",
"]  c #8B6C02",
"[  c #86680A",
"{  c #946302",
"}  c #9B6402",
"|  c #936B02",
" . c #9C6C02",
".. c #976A0A",
"X. c #8D7302",
"o. c #8B7508",
"O. c #947304",
"+. c #9D7302",
"@. c #937B00",
"#. c #9C7B03",
"$. c #92750B",
"%. c #957B0B",
"&. c #9B7C0C",
"*. c #98750A",
"=. c #836A10",
"-. c #886819",
";. c #8B7617",
":. c #917514",
">. c #947B12",
",. c #9C7C13",
"<. c #967B1D",
"1. c #A26C02",
"2. c #A76802",
"3. c #A47402",
"4. c #A97402",
"5. c #A47B02",
"6. c #AA7C02",
"7. c #A87B08",
"8. c #B17701",
"9. c #A37C14",
"0. c #8C7823",
"q. c #977B28",
"w. c #957A39",
"e. c #8A6B34",
"r. c #A27B22",
"t. c #8E7B4C",
"y. c #897556",
"u. c #8C734B",
"i. c #897B64",
"p. c #9D830B",
"a. c #9B8105",
"s. c #9C8115",
"d. c #9D831B",
"f. c #9E8B1C",
"g. c #958319",
"h. c #A58303",
"j. c #AB8302",
"k. c #A68903",
"l. c #AC8A04",
"z. c #A4850D",
"x. c #A58A0C",
"c. c #AC8C0B",
"v. c #A9860B",
"b. c #B18302",
"n. c #B38B02",
"m. c #B18D0C",
"M. c #B3830C",
"N. c #AC9206",
"B. c #B39204",
"V. c #B3910B",
"C. c #BA960B",
"Z. c #A38515",
"A. c #A48B13",
"S. c #AB8C13",
"D. c #A3851A",
"F. c #A38B1D",
"G. c #AA8C1C",
"H. c #AB8515",
"J. c #B38D13",
"K. c #AB9115",
"L. c #AD931C",
"P. c #A59117",
"I. c #B59314",
"U. c #B99614",
"Y. c #B69A16",
"T. c #B89915",
"R. c #B3931D",
"E. c #B49B1D",
"W. c #BB9B1E",
"Q. c #B9931A",
"!. c #8E8224",
"~. c #948424",
"^. c #9D8B2B",
"/. c #998926",
"(. c #9A8A30",
"). c #A38621",
"_. c #A48C22",
"`. c #A48C2B",
"'. c #A88E2D",
"]. c #A88A26",
"[. c #A59225",
"{. c #AC9323",
"}. c #A5912A",
"|. c #AB942C",
" X c #AD9A2D",
".X c #B49423",
"XX c #B59B23",
"oX c #B99B25",
"OX c #B39B2B",
"+X c #BB9C2B",
"@X c #B59729",
"#X c #A48935",
"$X c #A49333",
"%X c #AC9434",
"&X c #AD9A34",
"*X c #AA963A",
"=X c #AC9B3A",
"-X c #A69638",
";X c #B39C34",
":X c #B39B3A",
">X c #B99D3D",
",X c #B79934",
"<X c #B9A126",
"1X c #BBA22C",
"2X c #B7A026",
"3X c #ADA13B",
"4X c #B5A134",
"5X c #BBA332",
"6X c #B4A13C",
"7X c #BBA33C",
"8X c #C09B12",
"9X c #C2A21F",
"0X c #C19F30",
"qX c #C2A62D",
"wX c #C1A332",
"eX c #C4AA35",
"rX c #C6B239",
"tX c #9C8655",
"yX c #9E8342",
"uX c #A48B4B",
"iX c #AF9C43",
"pX c #A1944F",
"aX c #B39D4C",
"sX c #B79E42",
"dX c #AA9157",
"fX c #AD9152",
"gX c #B2A244",
"hX c #BCA543",
"jX c #B4A14C",
"kX c #BEA943",
"lX c #B6A452",
"zX c #9E8C65",
"xX c #938C6D",
"cX c #AC9A67",
"vX c #A38D6C",
"bX c #BDAB6A",
"nX c #BBAC70",
"mX c #BEB37C",
"MX c #AFA379",
"NX c #C2AD46",
"BX c #C5B44B",
"VX c #CCB549",
"CX c #C4B956",
"ZX c #C2B66A",
"AX c #B5A88D",
"SX c #CCBC8E",
"DX c #D9CAA6",
"FX c #DBD3B7",
"GX c #D2C095",
/* pixels */
"                                                                                                                                ",
"                                                                                                                                ",
"                                pXtXt.                                                                                          ",
"                                ` ` } <.yXw.q.q.q.uXuXfXdXuX                                                                    ",
"                              cX .*...` ` ` | ` { ^ ` W R Q ` =.0.-.) e.                                                        ",
"                              #X} { Q _ [ ! _ W [ ! ! j 2 i p B ' ' _ R M                                                       ",
"                            r. ...W _ ` W W W W Q Q R h u < z [ b n B [ q M cX                                                  ",
"                          #X6.9.` c W Q W ` Q Q Q ~ Y Y E 9 x _ c i i W j = x (.                                                ",
"                        fXb.J.3.R x c ` ` ` ! Q Q Q E Y Q Q R { b 8 8 c W 2 2 x tX                                              ",
"                        ].Q.5. .x c ` ` { | { Q E ~ ~ E E ( E ! ! W g [ ] 0 > 9 b cX                                            ",
"                      dX#.G.5. .E `  .+.+.1./ ~ E ~ T T Y T ~ U R W b .._ 2 > 8 i _                                             ",
"                      e.B H.6.| ] O.+.| | 6.4.8.2.~ ~ T T Y ~ Y w h c _ _ * - 9 j g uX                                          ",
"                      A ; 5.4.} 3.5.O.v z b W ` E U Y Y T T E ^ I d 9 i 1 % , d f g b                                           ",
"                      z x  .} } 1.! 1 @ X . . # [ } ^ E ( E ^ ^ ~ P f q , , 8 d f h l w.                                        ",
"                      ] W R U g 9 9 E ` n n [ z.C.C.8XM.2.^ ^ ^ ~ I f I f j q d c R g -.                                        ",
"                    MXg s 9 9 9 9 f 1.M.6.8.j.n.U.eXrX9Xb.1.^ ^ E U I E I U f h h U g c tX                                      ",
"                    H 8 1 1 i f h { j.T.XX@XoX1XrXVXVXeXC.8.1.} ^ E R Y E E R R R R c c b zX                                    ",
"                  N r 2 r g c Q {  .l.OX6XkXkXBXCXBXVXeXC.B.5. .{ Q R Q W W R R ` Q R R d x zX                                  ",
"                N t : : u x ] #.3.#.A.|.3XgXhXlXCXCXBXVXqXC.n.6. .` ! Q Q Q R Q Q R c h h d M                                   ",
"              D $ $ $ : p o.*.*.O.| ,.~.!.^.3XhXkXBXrXrXqXW.T.n.#...` Q Q R c Q Q R U h U g c R t.                              ",
"              @ $ @ o O t $.$.:.:.[ ;.V V C $X3X;X4X1X<XXXE.L.k.5. .` W R U R E R U U U R c R c _ w.                            ",
"            D o O o O @ k C ;.<.>.o.z # t V f. X4X1X5XqXXXE.c.p.*.| _ R f h R Y I f U R Y c R ! b -.                            ",
"              S O o $ y C 0.0.;.B l ; @ t =.a.2XrXrXqX<XXXK.x.#.+.| W c R R R f d f U Y U c R R x -.                            ",
"                H : : # t M n z p = r z V @.P.2XqXqXqXXXY.V.5.+.| ` W ! R U h d q h U R R R R R W W cX                          ",
"                    L xXy.z z k t v ' o.a.P.OX5XeXqXqXW.l.h.3. .} Q Q E U f f w f I f R W R c W ! c q.                          ",
"                          cXV =.' ] o.f. X2X4X5X5X5X<XY.l.3.+.{ Q E Y U I f q w I U Y R Q W W W _ W W e.                        ",
"                          FX@.>.%.>.f.3X X4X4X4X1XOXE.V.j.6. .Q Q U f f I f q f U E E R W W W b c W ! 9 N vX                    ",
"                          FX[.^.^.$X&X&X X4X4X2XOXXXV.j.3.} ^ E U f I R f q f U U Y Q Q b W b W _ W c i 7 N zX                  ",
"                          FX}.$X$X-X:X:X&X XOXXXR.S.5.3.{ E Y Y Y I I I f I Y E ~ E ^ Q b c b W b b a 8 i 8 d u.                ",
"                          DXP.#X-X$X%X%X&X X{.P.l.j.4. .} E Y Y Y Y I I Y T T ( ^ ^ { ` ` ` ` _ W h 8 d i j 9 d -.              ",
"                          SXn.%X&X-X=X%X:X:XOXL.k.5.3.1.^ ^ ~ ~ Y T ~ T ~ ( / / { { { ` ` ` ` Q h 0 q q d j 9 q U -.            ",
"                          SXJ.:X=X&X&XOX,X:X;X@XJ.j.3.1.2./ / ( ( ( / / ^ 2.1.1.+. .| ` _ ` W h 0 9 d d f i 0 j R n             ",
"                          SX.X*XsX:X:X:X>X7XhX6XE.l.j.4.2.2.} } 2.1.4.2.4.4.5.5.3.+.O.] [ Q h 9 9 j f f d 8 9 g c W tX          ",
"                          DX:XiXsXsX>X:XsXhXhXhX1XW.B.j.4.4.4.4.4.6.8.b.b.8.6.5.3. .| { ! g 9 f d h d d 9 7 i g R R e.          ",
"                          DXaXaXaXgX3XOX>XhXkXkXwXW.B.n.8.j.b.b.n.n.V.C.n.j.5.6.3.+.` W h g h h d h d 0 6 i g x b R b           ",
"                          SXaXlXlXgXgX>X7XhXNXkX1XY.B.B.B.B.B.C.C.T.I.J.m.j.6.3. .| ` R U f h f h f d 6 7 g h c R b g u.        ",
"                          mXaXlXaXjXjX7X7XkXkX7X7X+XE.E.Y.U.W.oXW.U.B.b.6.6.1. . .{ Q ^ ~ R Y h g d 6 7 q g c c c c g S         ",
"                          mXaXaXjXgXgX:X7X7X7X7XeXwX+X1X<XW.W.U.I.m.j.5.4.1.1. .} { { ^ ^ R c h f q - 0 f c h R b c d , y.      ",
"                          mXiXiXiXgXgX6X4X4X5X5X7XeXwX1XE.Y.C.B.k.h.6.5.5.4.4.+.3.5.4.} Q R R h d 9 - 0 h h R c c h s - S       ",
"                          nX*X-X=XgX3X6X&X4X5X+X1X5X1X<XY.B.n.n.n.l.b.l.h.h.6.j.M.v.4.} E c R f d 0 7 d h c c R c d 1 > 1       ",
"                          bX%X$X-X3X>X6X4X2XOX1X+X5X5X1XW.C.I.U.U.U.U.U.V.c.c.c.m.j.7.{ R c h f q 8 9 d h U h h f 9 - 4 > F     ",
"                          nX:X*X}. X;X;X4X;X,X+X+X@X@XOX.XE.XX2X<X+XoX.X.XR..X.XJ.b.3.E h h h d 9 9 9 g h c c h g 7 , , , m     ",
"                          bX=X*X}.[.|.;X;X>XwX0X+XOXoX+XoXoXE.2XoX+XoX+XoX.X.XR.T.j.1.I h x g d j 9 d h h c f h 9 , 7 1 , K     ",
"                          bX%X*X%X`._.|.&XhXsX>X4X+X+X+X+XoXXXE..X+XoX@XoX.X.XJ.j.| E U c h f d 9 d d h h h d d 9 7 8 8 m       ",
"                             X}.}.}.[.[.&X:X6X4XOX+X+X+X<XXXXXXXXXoX+X@X.X.XR.J. .Q c R h h d d q d f c c h d d 9 8 8 7 u.      ",
"                            '.F.[.f.f.f. X:X X4XOXOX+XoXXXR.E.R.R..XoXoX.XJ.v.v.` R R c h n d d d d h R h g d i 9 9 , S         ",
"                            }.x.g.p.#.,.[. X&X&XOXOXXXE.L.K.I.L.I.Q.I.Q.Q.m.h. .Q c c h h h d q d d h W g i d i s 7 4           ",
"                            }.a.p.#.O.#.f.}.&X&X|.{.L.L.K.K.V.c.m.I.m.m.v.5.3.{ E c c h d j 9 q d g g g g i a i 7 S             ",
"                            #X3.5.x.&.#.&.d.|.:X%X].A.P.S.x.x.l.l.l.l.j.3. .{ Q R h f g d d i u a x g g g g i M y.              ",
"                            q. .j.v.S.x.x.s._.|.%X%X_.G.S.x.l.k.k.h.h.3.{ { E R R R h h h d u u a g g h d n d u.                ",
"                            q.+.5.k.c.S.A.F.F._.}.|.|.{.].F.x.v.h.5.3.| ^ Q E E Y U h h g d 8 p a a g h g j a K                 ",
"                            <.+.5.j.v.c.S.F.D.d.d.F.].|.].].G.G.x.5.+.} ~ R R E R U h g a 7 8 p l a g g g i 1 F                 ",
"                            q.5.j.h.v.L.L.A.A.D.D.,.,.d.F.).D.G.z.+. .{ E E Y E R h g i t < 1 p a a g a p 1 >                   ",
"                            q.#.n.c.V.L..XL.s.&.9.*.,.,.f.f.Z.Z.A.#.+.} Q E E R Y h g 1 ; < 1 i a a p u 1 1 <                   ",
"                            ~.5.l.S.L.oX@X{.%._ ` | *.&.>.s.,.$.A.h.4. .{ E E R R U i > & < 1 u u 1 1 1 r 1 2                   ",
"                            <.5.m.{..X,XOX_.O.x u B X.X.] o.O.] *.j.6. .{ Q E E U c u < * ; < > 1 1 r r u 1 4                   ",
"                            s.6.V.G.@X,X|.D._ p ; p ' $.' ] | ' _ a.j. .{ Q Q Q R h a t & % * > < t r u u 1 4                   ",
"                          ZXG.6.m.G..XOX{.%.B r : : z ] $.$.O.X.' &.j.4.} { ^ ^ R c a u & % * > < r r r 1 2 4                   ",
"                         XK.D.3.m.L.{.XXG.o.l t p t r v :.:.%.X.] %.c.6.} } ^ Q b g a u & * * < < t 1 1 2 , Z                   ",
"                jX*X^.@.O.&.O.j.n.G.{.@XF.] a p t t 1 l =.;.;.>.X.#.l.5. .{ { Q R x g u * % * ; > < t 1 1 > J                   ",
"            =X`.g.a.X.' o.' | l.n.K.G.@XZ.B p t t # r v C ;.0.;.X.,.M.4.+.| ` Q b g x r * # & ; < < t r < 3                     ",
"        [.{.[.F.a.=.B V B x O.n.l.S.G.{.%.b l < ; t =.;.0.!./.~.<.,.b.4.1.} ` W c g g u % & & ; < 1 1 1 * e                     ",
"      P./.d.d.o.V B v B u.AX`.l.n.x.G.G.] B l k V ;.!.~.!.~./.^.^.D.v.3. .{ W c g g a t * % % * ; < > * 3                       ",
"      X.@.r B V t.          `.n.l.a.z.p.B l l B ;.g.~././././.`.`.).v.3.1.{ W c g g x p > ; & * > > ; Z                         ",
"          5                 9.b.j.#.#.X.v x v [ !.~./.`.`.`.'.'.%X).j.3. .{ W x i a l 1 = & & = - 4 K                           ",
"                            #.b.j.5.` B l l V g./.^.'.'.%X%X%X%X`.].6.3. .` b g i p p * + # + = F                               ",
"                            5.j.5.5.] v k v %.^.'.|.%X%X%X%X%X`.`.D.6. .{ Q W g i a s % + + 3                                   ",
"                        X.#.b.b.#.O.' v z o.'.;X;X|.|.;X'.`.`.).>.&.5. .` Q c i g x < + 3 e                                     ",
"          SXnXyXa.X.V ' #.j.j.j.5.]                     ].).,.X.c  .5. .^ Q c a n u D                                           ",
"      pX-X@.X.X.X.' V a.j.5.h.                                  J -.4. .{ W g j u J                                             ",
"    t x @.g.f.a.' X.x.l.j.j.c.                                    uX .*.` c j u s                                               ",
"  G p C &.z.f.@.g.P.Y.V.N.B.                                      uX4. .Q R g 1 i.                                              ",
"    a.a.a.p.s.P.P.K.I.Y.E.                                        dX1. .{ W i r                                                 ",
"    ;.#.p.p.A.P.c.c.                                                { Q | ` a S                                                 ",
"      ^.k.P.A.H.H.                                                uX{ { | ` x G                                                 ",
"        V N.a.`                                                   #X . .{ _ c G                                                 ",
"                                                                  9.3.| { ` c G                                                 "
};
