/* XPM */
static char *result[] = {
/* columns rows colors chars-per-pixel */
"80 80 235 2 ",
"   c #000000",
".  c #0A0505",
"X  c #070808",
"o  c #0A0D0D",
"O  c #170706",
"+  c #0A0D11",
"@  c #0D1213",
"#  c #0B1C1D",
"$  c #131414",
"%  c #15181A",
"&  c #270700",
"*  c #2A0300",
"=  c #370C00",
"-  c #28150B",
";  c #381606",
":  c #2D1A14",
">  c #2A221B",
",  c #162626",
"<  c #172D31",
"1  c #183A3A",
"2  c #262A27",
"3  c #263435",
"4  c #343837",
"5  c #450D00",
"6  c #4C1903",
"7  c #541900",
"8  c #5C1D01",
"9  c #641F00",
"0  c #4B230D",
"q  c #582307",
"w  c #5D2609",
"e  c #642301",
"r  c #6C2500",
"t  c #612609",
"y  c #662909",
"u  c #712700",
"i  c #722901",
"p  c #7C2D06",
"a  c #792F0A",
"s  c #7D320B",
"d  c #78330C",
"f  c #6E2F11",
"g  c #793413",
"h  c #4E3F37",
"j  c #6D4934",
"k  c #184647",
"l  c #1C4C4B",
"z  c #1D5050",
"x  c #1D5655",
"c  c #28474B",
"v  c #33464B",
"b  c #354A4D",
"n  c #364B51",
"m  c #304D54",
"M  c #225656",
"N  c #285759",
"B  c #215B5B",
"V  c #385C62",
"C  c #1F6B6B",
"Z  c #1F7170",
"A  c #27696B",
"S  c #287476",
"D  c #2B7777",
"F  c #554D44",
"G  c #485758",
"H  c #5C5D59",
"J  c #665746",
"K  c #72584B",
"L  c #5C6B53",
"P  c #76695C",
"I  c #485B61",
"U  c #48646A",
"Y  c #4F7276",
"T  c #707875",
"R  c #802D06",
"E  c #822D08",
"W  c #893307",
"Q  c #82330C",
"!  c #8D360B",
"~  c #8D380D",
"^  c #90390C",
"/  c #833B16",
"(  c #883A13",
")  c #843B18",
"_  c #8B3D19",
"`  c #903F17",
"'  c #903D18",
"]  c #8B411E",
"[  c #994215",
"{  c #92431C",
"}  c #A34415",
"|  c #AC4917",
" . c #A34619",
".. c #A5491A",
"X. c #AA4D1E",
"o. c #BB4B18",
"O. c #B4511F",
"+. c #8D4321",
"@. c #924522",
"#. c #994925",
"$. c #9B4E2C",
"%. c #9E512E",
"&. c #945738",
"*. c #A34C24",
"=. c #A3522D",
"-. c #AB5329",
";. c #B45221",
":. c #B95423",
">. c #BA5B2D",
",. c #A45531",
"<. c #AB5632",
"1. c #A65A36",
"2. c #AB5A34",
"3. c #AD5D3A",
"4. c #B35B34",
"5. c #BC5D34",
"6. c #B15F3B",
"7. c #AC633D",
"8. c #B3623D",
"9. c #BB633D",
"0. c #C15D2B",
"q. c #C96535",
"w. c #C3653B",
"e. c #D46E3D",
"r. c #DD713C",
"t. c #EE7B3F",
"y. c #8B5A43",
"u. c #A65F40",
"i. c #AF6242",
"p. c #B56443",
"a. c #BA6644",
"s. c #B56845",
"d. c #BC6945",
"f. c #B96748",
"g. c #B66B4A",
"h. c #BE6B4A",
"j. c #B2775E",
"k. c #B27B63",
"l. c #C56843",
"z. c #C36A45",
"x. c #CB6C44",
"c. c #C36D4A",
"v. c #D26E45",
"b. c #D16F48",
"n. c #CA7146",
"m. c #CB7149",
"M. c #D27046",
"N. c #DC7344",
"B. c #DF7945",
"V. c #D3724A",
"C. c #DB744B",
"Z. c #CE7551",
"A. c #ED7B43",
"S. c #E47A48",
"D. c #EB7E49",
"F. c #F27E45",
"G. c #E17951",
"H. c #AA8C7E",
"J. c #ED814B",
"K. c #F78246",
"L. c #F2824C",
"P. c #FA844D",
"I. c #EA8555",
"U. c #F78852",
"Y. c #E58E67",
"T. c #E59066",
"R. c #5C7B82",
"E. c #657D86",
"W. c #2C8686",
"Q. c #328282",
"!. c #39A8A8",
"~. c #3CBAB9",
"^. c #58888E",
"/. c #5A8C93",
"(. c #688587",
"). c #62858C",
"_. c #6D848D",
"`. c #70878F",
"'. c #638B92",
"]. c #6C8993",
"[. c #6B8C94",
"{. c #718F97",
"}. c #6B939B",
"|. c #69959B",
" X c #71949C",
".X c #77989D",
"XX c #599DA4",
"oX c #669BA2",
"OX c #6C9BA2",
"+X c #7697A0",
"@X c #749CA4",
"#X c #49ADB0",
"$X c #5AB4B9",
"%X c #65A4A9",
"&X c #73A3AB",
"*X c #77A3A9",
"=X c #64ADB3",
"-X c #69A9B1",
";X c #70AAB3",
":X c #65B1B6",
">X c #63B5BA",
",X c #64B7BC",
"<X c #5ABDC3",
"1X c #66BBC3",
"2X c #63BDC2",
"3X c #3DCDCD",
"4X c #4BC6C7",
"5X c #5CC2C6",
"6X c #59C8CB",
"7X c #56D2CB",
"8X c #59CDD2",
"9X c #49D5D6",
"0X c #46D9DA",
"qX c #58D6D8",
"wX c #55D9DC",
"eX c #62C5CA",
"rX c #66D2D6",
"tX c #54DEE1",
"yX c #4DE8E9",
"uX c #55E4E5",
"iX c #5AE4E4",
"pX c #56E7E9",
"aX c #53EBEC",
"sX c #58E9EA",
"dX c #5AEEF1",
"fX c #4CF3F2",
"gX c #4DFCFC",
"hX c #53F4F4",
"jX c #57F9F9",
"kX c #52FDFD",
"lX c #64E2E4",
"zX c #8D9092",
"xX c #AC9083",
"cX c #AA9286",
"vX c #9D9EA1",
/* pixels */
"                                                                                                                                                                ",
"                                                                                                                                                                ",
"                                                                                                                                                                ",
"                                                                                                                                                                ",
"                                                                                                                                                                ",
"                                                                              X . X     X                                                                       ",
"                                                                      X       X           X                                                                     ",
"                                                                        1 S Z Z Z Z A Z A .     X                                                               ",
"                                                                . z A C 3XkXwXiXiXiXiXiXgXS C A ,                                                               ",
"                                                        . . @ c z 4XdXuXuX6XOX].].].}.=XwXiXpXsXD c < . X                                                       ",
"                                                      . o 1 k fXjX%X[.[._.7XiX}.OXOX=XhX|.}.}.[.8XkXW.< #   .                                                   ",
"                                                    $ , k uXyXaX=X}.OX|.}.5X#XR.R.R./.4XoX}.}.}.oXqXaXjXW.# ,                                                   ",
"                                                  . M fXuXoX}.oXuX$X[.'.}.b   O X . . $ (.[._.|.wX,X}.}.<XkX!.$ .                                               ",
"                                                  B fXaXoX}.}.}.|.wXM . @ ; e e e t r q $ @ $ 4X2X}.}.}.}.5XgX~.@ .                                             ",
"                                            X . B qXoX$XwX|.|.|.2 # 0 e e r p i i i i i e e 8 , @ U @X[.5XwXoX>X~.$                                             ",
"                                              D 7XoX[.}.>XuX< $ 6 8 y i r X.e.1.3.3.3.,.i u i 8 8 > + Q.wXoX[.}.>X~.@ X                                         ",
"                                          . x 5X&X[.|.}.'.z 6 6 r u @.6.Q :.D.p.f.f.h.8.p q.>.p u q 6 > Y |.|.}.}.$X!.#                                         ",
"                                        o   W.kX$X[.OX'.3 5 r i #.=.i.V.' ;.D.p.a.a.f.6.s F.S.4.=.s i 9 : U OX}.|.wXgX@                                         ",
"                                        . M #X6X8X2X'.4 ; p ;.*.a.h.p.b._ ;.D.p.a.a.d.6.s t.M.m.c.<.*.{ 7 : U ;X8X8X5XQ., .                                     ",
"                                          !.lXE.-X#X4 ; u R K.C.f.p.z.V.' ;.D.p.a.a.d.3.p F.n.z.l.x.G.-.r 8 : U 5X].|.kX# .                                     ",
"                                      o c #X,X[.@XG O Q ( p A.v.l.a.l.V.) ;.D.p.a.z.a.6.s t.x.z.v.v.C.*.~ *.6 #  X|.oX6XD 2                                     ",
"                                    . . ~.rX_.|.'.b = g 3.R A.x.v.z.x.m./ :.D.p.x.x.a.6.s t.n.p.l.v.V.#.>.r.6 > Y }.].[.jX1                                     ",
"                                    X < #XeX%X;XI & p @.3.p A.z.x.z.x.x.) ;.D.a.v.x.d.3.s t.n.p.x.v.m.{ :.e.s 7 % |.=X>XqXA $                                   ",
"                                  X o ~.2X6XkX5Xn & ( h.2.p A.z.x.z.x.m./ ;.D.z.v.x.h.6.s t.n.p.l.v.m.] ;.U.=.7 % '.dXaXoXsXl                                   ",
"                                  X X ~.2X[.&Xv & i _ h.3.p A.z.x.M.v.n./ ;.J.f.v.x.a.6.Q t.x.p.a.x.m.+.;.U.=.p q % oXOX}.pXl                                   ",
"                                    X ~.2X[.&Xc O ' a.f.2.R A.f.9.x.z.d./ ;.J.a.N.x.f.6.p F.z.a.a.l.V.] ;.J.p.1.9 $ [.}.}.pXl                                   ",
"                                  . . ~.2X[.*Xv O { d.f.2.p A.z.p.x.d.c.) ;.D.a.v.x.f.i.s F.x.a.a.l.C.#.;.I.f.3.8 % }.}.}.pXl                                   ",
"                                  @ !.$X|.OXG : 9 _ z.f.1.p t.z.p.M.z.d.) ;.J.w.x.z.x.3.s t.z.f.a.x.C.#.;.J.p.2.u 6 2 '.}.oX4Xl                                 ",
"                                  o yXhXwXjXA * ..e.p.a.2.p A.d.8.a.f.h.) ;.J.x.n.z.M.8.s A.x.f.a.x.B.#.;.I.p.p.,.r . 4XaXtXkXB .                               ",
"                                  @ 9XqX$XrXV * ;.A.p.a.2.R A.d.a.a.p.h./ ;.P.w.d.d.x.3.Q t.z.f.8.l.S.#.;.J.8.h.p.e . #XeX<XdXB   X                             ",
"                                  @ 0X:X_.+Xv * :.L.h.c.i.s K.m.d.c.h.Z.] :.U.V.h.m.C.p.Q K.m.h.c.c.Z.#.>.U.h.c.8.t X E. X].uXx                                 ",
"                                  o 0X,X[.&XG 5 Q *._ +./ r ..] ] +.] +.i Q *.{ ] ] { ) r ..+._ ] _ ] a Q *._ ] _ 9 ; '.OX|.sXB                                 ",
"                                  o 0X:X`.R.&.|  .} } }  ...} } } } } }  . .} } } } } } ..} } } } } }  .} } } } } *.X.P `.`.uXB .                               ",
"                                  o 0X7XeXJ o.P.S.A.I.Y.D.A.D.D.D.T.I.A.D.D.D.A.I.Y.D.D.D.D.D.D.Y.I.D.D.D.A.I.Y.D.D.S.s %X5XhXM                                 ",
"                                  o 0XhXaXL o.I.p.p.j.xXf.a.f.p.p.H.j.p.f.p.f.a.j.H.p.s.p.f.p.p.xXk.9.f.f.9.j.xXp.f.8.p 5XaXkXx .                               ",
"                                  @ 0X:X{.J -.e.1.3.3.3.3.2.3.6.3.3.3.6.6.3.3.3.3.3.3.3.3.3.6.6.4.3.3.3.3.3.3.6.6.6.2.j (.}.uXB                                 ",
"                                  o 0X,X[.OXK e i u u i i i u i i i i i u u i i i i i i i i i i u u i u i i i i i i y (.|.[.sXB .                               ",
"                                  @ 0X,X[.&Xv = p u i i u u u i i i u i u u i i i i i i r i i i i u i u i i i i i e o )..X|.sXx   X                             ",
"                                  o 0X,X[.&Xb * X.r.3.p.,.p e.e.8.7.6.9./ X.S.9.6.8.8.5.s t.9.7.i.6.a.] -.N.6.w.2.e . ).|.|.sXB                                 ",
"                                  o 0XgXsXkXS * ;.D.p.h.3.R F.N.x.z.f.c./ O.P.l.a.f.z.l.p t.n.a.f.f.c.] :.L.a.M.8.e . 9XjXaXgXM                                 ",
"                                  o 0X8X%X1XN * O.D.8.z.2.Q t.z.x.z.p.c._ X.L.x.x.a.d.w.Q t.z.p.f.p.h.+.;.P.x.M.9.e X XX>X=XaXx .                               ",
"                                  @ 0X:X_.@Xn * X.K.&.K 8.p A.d.x.z.p.c.) ;.J.l.x.d.x.l.s t.x.p.f.f.c.+.;.P.l.z.q.e . ). X].uXB                                 ",
"                                  @ 0X,X[.&Xn * :.M.J T j p A.z.v.x.a.c./ O.D.f.x.z.M.9.Q t.x.p.l.d.c.+.;.U.l.d.w.e . ).OX}.sXx .                               ",
"                                  o 0X:X_.+Xb & :.u.I vX4 i A.z.z.v.a.h._ O.D.d.v.z.v.6.p F.z.p.x.l.h.@.;.P.l.z.w.e . E.{.].pXB                                 ",
"                                  o 0XtX5XrXA * O.M.K T j p A.z.8.v.x.c.) ;.D.p.x.v.b.6.Q A.n.p.x.z.h.] ;.P.l.z.w.e . $XeX6XhXB .                               ",
"                                  @ 0XaXwXdXA * ;.L.y.F 8.p A.z.p.l.v.m.) O.D.p.z.v.b.8.E t.z.p.x.l.h.@.;.P.l.x.w.e X 4XuXwXkXB   X                             ",
"                                  o 0X>X`.@Xv * O.A.y.F 2.R A.d.f.9.x.c.) O.D.i.c.v.v.3.s t.x.a.x.z.h.+.:.P.v.V.w.e X (.}.[.uXM                                 ",
"                                  @ 9X>X{.@Xn * ;.K.y.F 1.p t.c.p.a.x.m.) ;.J.p.z.v.v.3.p F.z.p.x.z.h.+.O.P.x.x.3.e X ).|.[.sXB                                 ",
"                                  o 0X>X[.@Xb * ;.A.y.F 1.p A.d.p.a.x.m./ O.D.i.z.v.v.6.Q t.x.p.x.z.h.] :.D.a.x.6.e . ).}.[.iXB .                               ",
"                                  @ 0X2X|.;Xm * ;.F.y.F 3.s t.z.a.a.l.V._ O.D.i.z.v.M.6.s t.z.a.x.l.h.+.:.J.z.v.6.e X /.%XOXsXB                                 ",
"                                  o 9XgXyXkXD * O.D.y.F 1.p t.z.a.a.a.V.' ;.D.p.z.v.m.6.s t.n.z.v.x.m.+.:.L.f.v.w.e . 9XgXaXgXB .                               ",
"                                  o 0XeXoX:Xm * O.d.H zXh i A.z.p.a.p.v.' O.D.i.d.v.v.6.Q t.z.x.v.v.m.+.:.L.a.N.w.e . |.-XoXaXB                                 ",
"                                  o 0X>X].@Xb * :.8.H vX4 p A.z.a.f.a.x.' ;.D.p.z.v.v.6.s t.z.x.v.v.m.+.;.J.f.v.8.e . ).}.[.uXB .                               ",
"                                  @ 0X,X[.&Xb * O.S.K H &.p A.d.a.a.p.v.' O.D.p.f.l.c.6.Q t.x.x.l.x.m.+.:.J.f.v.6.e . ).|.}.sXB   X                             ",
"                                  o 0X=X_..Xv * O.J.7.y.1.Q A.z.a.a.f.m.' ;.A.p.a.a.f.6.E A.M.x.z.x.V.+.:.L.p.z.8.e X E.{.].uXB                                 ",
"                                  @ 0XpX8XiXA * ;.J.8.h.1.p A.z.a.a.p.M._ ;.D.p.f.p.h.6.p A.S.l.a.w.x.+.;.L.p.h.8.e X <XwX7XhXB                                 ",
"                                  o 0XuX8XlXA * O.S.p.f.2.p D.z.p.a.p.m.' ;.D.p.f.a.f.6.p A.N.a.p.l.V.{ ;.D.p.f.3.e X $XwX7XhXx .                               ",
"                                  @ 0X:X_..Xv & :.L.f.c.3.R F.m.c.d.c.V._ :.L.f.c.d.c.8.Q K.S.m.c.x.G.*.:.U.f.h.8.e X E.}.`.pXB                                 ",
"                                  o 0X>X[.&XG 5 ` 0.$.,.@.i >.=.$.$.-.,.d [ 5.$.%.%.%.#.i 0.4.-.=.%.<._ [ w.$.=.#.e - '.OX}.sXB .                               ",
"                                  o 0X:X].[.j ^ ~ ! ! ! ~ ~ ! ~ ! ! ~ ~ ~ ! ! ~ ~ ! ~ ~ ^ ! ! ! ~ ~ ~ ~ ! ! ^ ^ ~ ^ ~ T }.[.pXB                                 ",
"                                  o 0XeX=Xj O.K.A.F.D.I.J.F.A.F.A.I.J.A.A.A.L.A.J.I.F.F.A.F.J.A.I.L.K.A.F.A.J.I.A.K.S.g [.%XaXB .                               ",
"                                  + 0XgXgXL o.I.p.9.k.cXa.a.d.d.d.xXk.a.d.d.f.9.k.cXa.d.a.d.d.d.H.k.9.a.a.a.k.cXa.d.8.d 7XfXgXM   X                             ",
"                                  o 0X,XOXJ o.J.i.a.h.f.a.a.f.s.a.s.g.d.p.d.d.a.s.g.s.a.a.s.a.a.g.a.s.s.a.a.s.g.s.a.p.g (.OXsXB                                 ",
"                                  @ 0X>X[.[.K R d s s d s d s s s s d s s s s d s s s d s s d s s d s s s d s s s d g T |.}.pXB                                 ",
"                                  @ 0X>X].&Xn 5 i e r r r r r r r r r r u r r r r r r r r r r r r r r r r r u r u e O ).|.}.pXB   .                             ",
"                                  o 0X:X_.+Xb *  .q.>.4.#.p q.2.=.4.<.<.Q  .q.%.2.4.,.=.p q.4.4.<.<.6.)  .q.,.,.=.e X ).}.[.uXB                                 ",
"                                  @ 0XaXwXdXA * ;.L.l.V.3.R A.c.d.V.m.c.) ;.U.a.V.N.m.8.s K.m.x.x.x.V.@.:.U.f.c.8.e X 4XtXwXjXM                                 ",
"                                  o 0XtX<XrXA * ;.D.9.M.2.p t.z.p.x.a.h.) ;.D.d.x.l.v.3.p F.z.z.z.x.m.+.;.D.p.f.6.e X $X8X<XhXB .                               ",
"                                  o 0X:X_..Xv * O.S.a.V.6.p A.z.z.l.a.d./ ;.D.z.m.a.b.8.s A.n.p.x.x.c.+.:.D.a.f.6.e X E.{._.iXB                                 ",
"                                  @ 9X$X[.@Xv * O.D.8.x.5.p t.f.x.a.p.c./ O.D.l.x.a.v.9.p t.z.p.l.d.c.+.;.I.a.f.6.e . ).OX}.uXB                                 ",
"                                  o yX,X}.vXN * :.D.s.c.9.W F.x.m.z.h.c._ ;.P.v.x.d.V.w.Q F.M.h.h.a.m.@.:.U.p.h.8.e . [.@X|.jXB .                               ",
"                                  @ !.^.U Y c O [ q.2.2.#.e q.5.2.,.<.4.f { e.4.<.2.4.<.t q.5.,.2.2.6.g { e.,.<.=.6 X U Y Y !.c .                               ",
"                                  X X X X o X X - t w w 0 O w t w w t t - - y w t w t 0 o q t w w w y ; : w w w 0 o . . X X . X                                 ",
"                                      .             X         X       X X             .   X         X         .       X     X                                   ",
"                                                                                                                                                                ",
"                                                                                                                                                                ",
"                                                                                                                                                                ",
"                                                                                                                                                                ",
"                                                                                                                                                                ",
"                                                                                                                                                                "
};
