/* XPM */
static char *result[] = {
/* columns rows colors chars-per-pixel */
"80 80 96 2 ",
"   c #000000",
".  c #0A0101",
"X  c #120101",
"o  c #1B0202",
"O  c #2D0202",
"+  c #230808",
"@  c #2E0909",
"#  c #320404",
"$  c #3B0404",
"%  c #310708",
"&  c #3A0708",
"*  c #3E0809",
"=  c #0D1B30",
"-  c #1C2639",
";  c #2B253B",
":  c #440606",
">  c #4C0505",
",  c #530505",
"<  c #5A0405",
"1  c #5C0809",
"2  c #5C1A1A",
"3  c #650506",
"4  c #690708",
"5  c #610809",
"6  c #790405",
"7  c #710809",
"8  c #6B1718",
"9  c #555658",
"0  c #5D5C5C",
"q  c #A20808",
"w  c #AB0809",
"e  c #BA0606",
"r  c #C60708",
"t  c #C10808",
"y  c #CC0808",
"u  c #D40202",
"i  c #DA0101",
"p  c #E10100",
"a  c #EC0101",
"s  c #F40203",
"d  c #FE0001",
"f  c #F0050B",
"g  c #F80708",
"h  c #FD0C0C",
"j  c #EE0D14",
"k  c #F00A11",
"l  c #FC0F10",
"z  c #EE1219",
"x  c #FD1314",
"c  c #FC1718",
"v  c #FA191A",
"b  c #FC2626",
"n  c #F72A2B",
"m  c #FC2C2D",
"M  c #FA2F30",
"N  c #FB3535",
"B  c #FB3B3B",
"V  c #B52A43",
"C  c #BD2A42",
"Z  c #E84349",
"A  c #F74040",
"S  c #FC4748",
"D  c #F76262",
"F  c #2A55AF",
"G  c #3E55A5",
"H  c #3E5AAA",
"J  c #2E5AB1",
"K  c #345DB2",
"L  c #385FB1",
"P  c #2C62BA",
"I  c #3660B5",
"U  c #3C64B5",
"Y  c #3A66B8",
"T  c #4C539E",
"R  c #4157A7",
"E  c #4058A8",
"W  c #495EAA",
"Q  c #4066B5",
"!  c #446AB9",
"~  c #617FBD",
"^  c #6180BD",
"/  c #EDD0D5",
"(  c #FAD3D3",
")  c #FCDBDB",
"_  c #EADEE6",
"`  c #FCE4E4",
"'  c #FCEDEE",
"]  c #FFF1EF",
"[  c #EAEDF5",
"{  c #EDF1F7",
"}  c #EBF4FA",
"|  c #F1F2F6",
" . c #FDF4F5",
".. c #F2F6FF",
"X. c #F8F7F8",
"o. c #FEFEFE",
/* pixels */
"                                                                                                                                                                ",
"                                                                                                                                                                ",
"                                                                                                                                                                ",
"                                                                                                                                                                ",
"                                                                                                                                                                ",
"                                                                                                                                                                ",
"                                                                                                                                                                ",
"                                                                                                                                                                ",
"                                                                                                                                                                ",
"                                                                                                                                                                ",
"                                                                                                                                                                ",
"                                                                                                                                                                ",
"                                                                                                                                                                ",
"                                                                                                                                                                ",
"                                                                                                                                                                ",
"                                                                                                                                                                ",
"                                                                                .   .                                                                           ",
"                                                                                                                                                                ",
"                                                                  . > > , > > > : > > > , >                                                                     ",
"                                                                  o s d d d d d d d d d d a o                                                                   ",
"                                                          .       . s d s d d d d d d d d a .                                                                   ",
"                                                      X : : : : : , s d d d d d d d d d d s , : > > : : X                                                       ",
"                                                      $ d d d d d d d d d d d d d d d d d d d d d d d d *                                                       ",
"                                                      O d d d d d d d d d d d d d d d d d d d d d d d d #                                                       ",
"                                                . @ + , d d d d d d d s d d d d d d d d d d d d d d d d 1 + @ .                                                 ",
"                                                * g s s d d d d d d d d d d d d d d d d d d d d d d s d g g g &                                                 ",
"                                                % d d d d d d d d d d d d d d d d d d d d d d d d d d d d d d $                                                 ",
"                                          X $ @ 5 d d d d d h B B B B B N d d d d d d d d d d d d N B B B B A 8 O * X                                           ",
"                                          < d g s d d d d d N o.o.o.o.o.) h d d d d d d d d d d g ( o.X.o.o.o.A s h 1                                           ",
"                                          , d d d d d d d d N o.o.o.o.o.) d d d d d d d d d d d d ( o.o.o.o.o.N d d 1                                           ",
"                                          , d d d d d h N m D o.o.o.o.o.` B N N s d d d d d M N N ) o.o.o.o.o.D n B 2                                           ",
"                                          , d d d d d N X.o.X.o.o.o.o.o.X.X.o.` x d d d d x ` o.X.o.o.o.o.o.o.X.X.o.0   .                                       ",
"                                          , d d d d d N o.o.o.o.o.o.o.o.o.o.o. .x d d d d l ` o.o.o.o.o.o.o.o.o.o.o.0                                           ",
"                                          , d s d d d B o.o.o.o.o.o.[ [ [ [ { _ l d d d d l ` o.o.o.o.o.{ [ [ [ [ ..9                                           ",
"                                          , d d d d d N o.o.o.o.o.[ ! U Y Y U W f d d d d x ` o.o.o.o.o.^ L Y U U Y -   .                                       ",
"                                          > d d d d d N o.o.o.o.o.[ U J K K J G f d d d d h ` o.o.o.o.o.~ F K K K K =                                           ",
"                                    . + X 3 d d d g d B o.o.o.o.o.[ U K K I I H f d d d d h ` o.o.o.o.o.^ J U K K U ; o o .                                     ",
"                                    > d a s d d d d d N o.o.o.o.o.[ U K I H K R f d d d d x ` o.o.o.o.o.^ F I K L P V s f >                                     ",
"                                    , d d d d d d d d B o.o.o.o.o.[ U J K K P H f d d d d h ` o.o.o.o.o.~ F L I K P C d d ,   .                                 ",
"                                    , d d d d d d d d N ' ]  .o.o.[ ! U Y G H T f d d d d x )  .] X.o.o.^ I Q E R K C d d >                                     ",
"                                    , d d d d d d d d d v h S o.o.o.[ } / z f k d d d d d d c c v ( o.o.| { { Z s j g d d >                                     ",
"                                .   , d d d d d d d d d d d N o.o.o.o.o.) h d d d d d d d d d d d ( o.o.o.o.o.B d d d d d ,                                     ",
"                                    , d d d d d d d d d d d B X.X.X.X.o.) h d d d d d d d d d d d ( o.X.X.X.X.A d d d s d ,                                     ",
"                                    1 d s d d d d d d d d d h m m m m m b d d d d d d d d d d d d b m m m m m h d d d d d ,                                     ",
"                                    , d d d d d d d d d d d d d d d d d d d d d d d d d d d d d d d d d d d d d d d d s d >                                     ",
"                                    , d d d d d d d d d d d d d d d d d d d d d d d d d d d d d d d d d d d d d d d d d d ,                                     ",
"                                    , d d d d d d d d d d d d d d d d d d d d d d d d d d d d d d d d d d d d d d d d d d ,                                     ",
"                                .   , d d d d d d d d d d d d d d d d d d d d d d d d d d d d d d d d d d d d d d d d d d ,                                     ",
"                                .   , d d d d d d d d d d d d d d d d d d d d d d d d d d d d d d d d d d d d d d d d s d >                                     ",
"                                    , d d d d d d d d d d d d d d d d d d d d d d d d d d d d d d d d d d d d d d d d d d ,                                     ",
"                                    , d d d d d d d d d d d d d d d d d d d d d d d d d d d d d d d d d d d d d d d d d d >                                     ",
"                                    , d d d s d d d d d d d d d d d d d d d d d d d d d d d d d d d d d d d d d d d d d d ,   .                                 ",
"                                    , d d d d d d d d d d d d d d d d d d d d d d d d d d d d d d d d d d d d d d d d d d >                                     ",
"                                .   , d s d d d d d d d d d d d d d d d d d d d d d d d d d d d d d d d d d d d d d d d d ,                                     ",
"                                    , d d d d d d d d d d d d d d d d d d s d d g d d d d d d d d d d d d d d d d d d s d ,                                     ",
"                                    , d d d d d u * % 4 s d d d d d d d p * & $ * $ : i d d d d d d d d 4 % * y d d d d d ,   .                                 ",
"                                .   , d d d d d t     # s d d d d d d d i             u d d d d d d d d #     e d s d d d ,                                     ",
"                                    , d d d d d y     $ d d d d d d d d i .         . u d d d d d d d d :     r d d d d d >                                     ",
"                                    , d d r > , :     X , > 6 d d d d d i .         . i d d d d s 7 > , X     : < > r d d ,                                     ",
"                                    , d d w                 # s d s d d i .         . i d d s d s +                 q d d ,                                     ",
"                                    < d d e             .   $ d d d d d p .         . p d d d d d %                 w d d ,                                     ",
"                                    o < < *                 X < < , < < >             > < < , < , .                 * 3 < o                                     ",
"                                                                                                                                                                ",
"                                      .                                                       .                                                                 ",
"                                                                                                                                                                ",
"                                                                                                                                                                ",
"                                                                                                                                                                ",
"                                                                                                                                                                ",
"                                                                                                                                                                ",
"                                                                                                                                                                ",
"                                                                                                                                                                ",
"                                                                                                                                                                ",
"                                                                                                                                                                ",
"                                                                                                                                                                ",
"                                                                                                                                                                ",
"                                                                                                                                                                ",
"                                                                                                                                                                ",
"                                                                                                                                                                ",
"                                                                                                                                                                ",
"                                                                                                                                                                "
};
