/* XPM */
static char *_0539_82a5b28c6bb393e30d7924c37d77861e62482f2e94c34c12c805a050b1444510[] = {
/* columns rows colors chars-per-pixel */
"64 64 175 2 ",
"   c black",
".  c #1D1600",
"X  c #04171C",
"o  c #0F1A1D",
"O  c #1E1B17",
"+  c #141B1D",
"@  c #1C1D1D",
"#  c #211800",
"$  c #211D17",
"%  c #211E1A",
"&  c #1F201E",
"*  c #3C2400",
"=  c #3C2B00",
"-  c #25221C",
";  c #2B261E",
":  c #2E281E",
">  c #30281D",
",  c #3E311D",
"<  c #242725",
"1  c #2C2720",
"2  c #272825",
"3  c #2C2923",
"4  c #332E25",
"5  c #332E28",
"6  c #363026",
"7  c #393126",
"8  c #363129",
"9  c #3A352B",
"0  c #3D392F",
"q  c #3E3A31",
"w  c #442C00",
"e  c #482900",
"r  c #4D3100",
"t  c #503600",
"y  c #5A3D00",
"u  c #4D3A14",
"i  c #44341C",
"p  c #4B3A1F",
"a  c #533D16",
"s  c #513C1F",
"d  c #463824",
"f  c #4C3B22",
"g  c #433C2F",
"h  c #413423",
"j  c #523E22",
"k  c #443D32",
"l  c #483F32",
"z  c #574016",
"x  c #56411D",
"c  c #5B411D",
"v  c #654200",
"b  c #6E4600",
"n  c #704700",
"m  c #744B01",
"M  c #7A4F01",
"N  c #614619",
"B  c #65491A",
"V  c #694B1B",
"C  c #6A4816",
"Z  c #734F1D",
"A  c #77501E",
"S  c #7A521D",
"D  c #4F422D",
"F  c #554022",
"G  c #5B4423",
"H  c #5E4924",
"J  c #53432E",
"K  c #5A462C",
"L  c #474033",
"P  c #4B4234",
"I  c #544530",
"U  c #594731",
"Y  c #5A4931",
"T  c #504739",
"R  c #654B27",
"E  c #694C25",
"W  c #644C2B",
"Q  c #6A4E29",
"!  c #6C522D",
"~  c #745224",
"^  c #795725",
"/  c #7E5E22",
"(  c #74552C",
")  c #78572B",
"_  c #76592F",
"`  c #7D5B2C",
"'  c #765930",
"]  c #795C30",
"[  c #77614A",
"{  c #726759",
"}  c #72685D",
"|  c #676461",
" . c #6A6661",
".. c #6E6D6C",
"X. c #776B61",
"o. c #706F6E",
"O. c #757575",
"+. c #77797A",
"@. c #7A7A7B",
"#. c #7B7875",
"$. c #865600",
"%. c #82540B",
"&. c #855617",
"*. c #885817",
"=. c #835619",
"-. c #855B1E",
";. c #8A5A1A",
":. c #8B661C",
">. c #8E691D",
",. c #92621E",
"<. c #946A1E",
"1. c #9F6C1E",
"2. c #A66E1F",
"3. c #A86E1F",
"4. c #AB701F",
"5. c #825C25",
"6. c #8A5F24",
"7. c #815D2C",
"8. c #826122",
"9. c #8D6126",
"0. c #8F6820",
"q. c #84622F",
"w. c #8D6529",
"e. c #8E682A",
"r. c #926323",
"t. c #996723",
"y. c #946A21",
"u. c #9D6C24",
"i. c #90662A",
"p. c #946B2E",
"a. c #996E2E",
"s. c #9E7125",
"d. c #9E702D",
"f. c #866430",
"g. c #896630",
"h. c #A26C23",
"j. c #A47227",
"k. c #A97224",
"l. c #A5742A",
"z. c #A9762B",
"x. c #AB792D",
"c. c #A17435",
"v. c #A47739",
"b. c #846A50",
"n. c #817366",
"m. c #837569",
"M. c #83796F",
"N. c #847D76",
"B. c #888077",
"V. c #878078",
"C. c #848484",
"Z. c #8C8986",
"A. c #8D8C8C",
"S. c #908C87",
"D. c #918E8A",
"F. c #90908F",
"G. c #9A948F",
"H. c #8F9091",
"J. c #929393",
"K. c #949698",
"L. c #9A9B9B",
"P. c #A79B8F",
"I. c #A3978B",
"U. c #A89D92",
"Y. c #ABA096",
"T. c #A4A4A4",
"R. c #A7A7A8",
"E. c #A7A8A8",
"W. c #AAABAB",
"Q. c gray74",
"!. c #C2C2C2",
"~. c #CBCBCB",
"^. c #D1D2D3",
"/. c #D7D8DA",
"(. c None",
/* pixels */
"(.k l k k q g 0 g L 0 L 0 0 L 9 k 0 k L k k l k l k L k k k k k k 0 0 g k L k k l k l l k k L l l l k k l k k l l k k 9 5 5 5 5 ",
"k T P P P L L L L L L L L L L D k k L P P P P P P P P P P P P P L k L k L P P P P P P P P P P P P P P P P P P P P P P 9 5 8 7 4 ",
"l P l l L 0 g g 0 0 L 0 0 L 0 0 0 g k l L l k l l l L l k k k k g g g g k k L L l l l k L l l l l l L P l l l L l L l 9 3 4 6 4 ",
"k P k l k 9 0 0 9 0 0 0 0 0 0 0 q q q k k k k q q k q q k q k k 0 0 0 0 0 k q q q k q k q k q q q k q q k q k q q q q 9 6 6 6 6 ",
"k P l k l I U U K D D J F D D D J D J I I I I U U U Y I J I J D J J J J K Y Y Y Y Y Y K Y Y Y Y Y U U K U U K Y Y Y Y 9 3 4 6 3 ",
"k P l k Y z.x.z.x.s.>.>.>.>.>.>.>.>.>.>.>.>.>.s.l.l.l.r.5.-.-.-.8.8.9.8.i.x.x.x.c.x.x.x.x.z.l.j.j.j.2.2.2.h.4.x.x.x.x.H X : ; ; ",
"k P l q U x.x.x.x.s.>.>.>.>.>.>.>.>.>.<.>.>.<.j.j.j.k.t.=.-.-.6.9.9.9.8.t.x.x.x.x.x.x.x.z.z.j.j.j.j.h.3.3.3.k.x.x.x.x.N X : ; - ",
"k P l k Y c.x.x.x.s.>.>.>.>.>.>.>.>.>.>.>.>.>.s.j.a.l.y.S 8.-.-.9.8.9.8.p.x.x.x.x.x.x.x.x.z.j.j.j.l.h.k.2.2.h.x.x.x.x.G X ; ; ; ",
"l l k g Y x.x.x.x.y.:.>.>.>.>.>.>.>.>.>.>.>.>.j.j.j.z.u.-.6.-.-.,.9.9.0.u.x.x.x.x.x.x.x.x.z.j.j.j.j.h.2.2.2.k.x.x.x.x.R X ; ; - ",
"k l k q I j.j.h.j.s.1.1.1.1.1.1.1.1.1.1.1.1.2.,.,.,.<.S N C B B V V V B S y.y.r.r.h.j.k.k.h.h.h.h.h.h.h.h.2.h.k.k.k.k.c + : ; ; ",
"k l l g l h.h.h.1.2.2.k.2.4.2.2.2.4.4.2.2.4.2.;.&.&.*.C u u a a u u u u B &.=.=.&.t.h.h.h.t.h.h.h.h.h.h.h.h.h.3.2.2.3.c + : : ; ",
"l l l k j h.h.h.2.2.2.2.2.2.2.2.2.2.2.2.2.2.2.;.;.;.*.A F G F F x x x x C *.;.;.;.h.h.h.h.h.h.h.h.h.h.h.h.h.h.3.3.2.4.c + : : - ",
"k l k g K h.h.h.h.2.4.2.4.2.2.k.2.4.2.4.3.3.2.;.=.;.-.b * e e e r r r w v ;.;.;.;.h.h.h.h.h.h.h.h.h.h.h.h.h.h.3.2.2.4.c o : ; ; ",
"k l k q K t.u.t.t.u.2.2.2.1.1.2.1.1.h.h.2.h.h.6.=.-.$.b.N.M.M.M.} { { X.[ %.=.=.=.t.t.t.u.h.h.h.h.t.h.h.h.t.h.h.h.2.k.c + : ; ; ",
"l l k k J / / 8.8./ / / / / / / / / e.p.p.p.p./ ^ ] m U./.~.^.^.W.E.E.W.F.r x a a ^ 5./ / 8.r.r.r.r.i.i.i.i.i.i.i.w.p.j & : 1 ; ",
"l l k k P / / / / / / / 8./ / / / / e.a.p.p.p.^ ^ ` m U.^.~.~.~.W.T.T.E.S.r x a a / :./ / 5.r.r.r.r.i.i.i.i.i.i.i.i.i.f @ : 1 1 ",
"k l k k l 5./ / / / / 5./ / / / / / e.e.p.p.p.` ~ ` m I.^.~.^.~.W.T.T.W.Z.r x a a / / / 5.6.r.9.r.r.9.i.w.w.e.i.i.9.i.j @ > : - ",
"l T k k l 6.8.8.8.5.8.8.8.8.8.8.8./ e.d.a.a.a./ / ` m P.^.~.~.~.E.T.T.W.S.r x z z / 8.5.5.9.t.r.r.t.t.i.t.p.p.p.i.p.a.j @ 4 1 1 ",
"k l k k l H H H W G G R H H H H H H W ! ! ! ! G j K e G.^.!.!.!.K.A.H.J.#.= , i i G W H G R E E E E Q W R E R E E E Q , $ - - - ",
"k k q g g 2 2 2 2 3 3 1 3 3 3 5 3 3 3 2 < 2 2 & < 2   Z.~.Q.!.!.A.C.C.C.... ; ; ; 2 3 3 3 2 2 2 2 2 < < < < < < < < < @ O O $ $ ",
"k k g g 0 4 4 6 4 6 7 7 7 8 h 8 7 7 8 8 7 7 7 > 1 5   A.~.Q.!.!.A.C.C.Z.o.# 3 : : 6 7 7 5 h 5 h 7 7 4 7 6 6 6 6 6 7 7 - O O % $ ",
"g k 0 g g 4 4 4 5 5 6 6 7 5 5 5 6 6 8 6 6 6 8 : 1 5   A.~.!.!.!.J.C.C.A.o.# 4 ; ; 6 6 6 h 5 5 8 6 7 4 4 4 4 4 4 4 4 5 - O O $ O ",
"0 k 0 g k 5 4 4 5 5 5 5 5 5 5 5 6 6 6 5 5 8 6 ; 1 5   Z.!.Q.Q.Q.Z.C.C.C.... : ; ; 4 6 5 5 5 5 5 5 8 5 5 4 4 3 5 5 3 5 % O $ $ O ",
"k P k k l Q ! Q ! ! ! Q Q Q ! ! ! ! ! ! ! ! ! H G K r N.R.T.T.T.@.O.+.@.| = i , i R ! E Q Q ! ! ! ! ! ! ! ! ! ! ! ! ! h % - 1 1 ",
"k P l l U ] ] ] ] _ _ ( ' ' ' 7._ ] ] ] ' ] ] Q W W y N.W.T.T.T.@.O.+.+. .w i i i ~ 7.7.) ) 7.' ] ] ] ] ] ] ] ] ] ] ] d - : 1 : ",
"l P l k l ] ] _ ] _ ( ( ( ' _ ' _ _ ] _ ' _ _ W R W y N.W.T.T.T.@.O.O.+. .w p i i ~ ~ Q 7.Q ' ' ' ' ' ' ' ' ' ' ' ' ] d < : 1 ; ",
"l P k k l ] ' ' ' ( ! ' ( ! ' ' ' ] ' ' ' ' _ W W W y N.W.T.R.T.@.O.O.@.| = , , , E ) Q Q ) ( ' ' ' ' ' ' ' ' ' ' ' ] d % 1 1 1 ",
"k l k k l 7.7.7.7.7.) 7.7.7.7.7.` ` q.` 7.7.7.Q R Q v M.L.L.L.L.@.+.O.+. .v c c c 5.7.7.5.7.7.7.7.7.7.7.7.7.7.) ` ` ` d % : 1 ; ",
"k l g g j t.r.r.r.r.9.9.9.9.9.9.9.9.i.6.r.r.9.S Z ~ n n.J.F.A.F.+.O.O.+.X.M S S =.6.9.9.i.r.9.r.9.i.9.9.9.i.9.5.5.5.5.p & : 1 ; ",
"k l g g l r.r.r.r.9.9.9.9.9.9.9.9.9.9.9.9.6.9.A Z ~ n m.J.F.J.J.+.O.O.+.X.M A A A 6.9.9.9.9.9.9.9.9.9.9.9.9.9.5.5.5.5.p % 1 : ; ",
"g P g g j r.r.r.r.r.9.9.9.9.9.i.r.9.9.9.9.6.6.S Z ~ n m.K.J.J.H.@.#.O.+.X.m A A =.7.9.9.9.9.9.9.9.9.9.9.9.9.6.5.5.5.6.p @ ; ; ; ",
"g l l g U r.r.r.r.9.9.9.9.9.9.9.9.9.9.9.9.i.9.~ Z E n n.H.A.A.Z.O.O.O.O.} m A A A 9.9.9.9.9.9.9.9.9.9.9.6.6.6.5.5.5.5.p & ; ; ; ",
"L P L q Y l.l.x.l.l.x.l.l.x.l.l.z.z.j.2.h.2.2.:.:.:.:.s.v.c.c.c.c.c.c.c.l.u.u.u.s.s.s.j.u.j.a.j.h.j.j.z.z.z.l.p.p.w.p.f + : ; ; ",
"L P L q Y x.x.x.x.x.x.x.x.x.x.x.x.x.j.4.2.2.2.<.>.>.:.s.x.x.x.x.z.x.x.x.x.k.j.j.z.j.j.j.j.j.l.l.j.j.x.x.x.x.c.p.p.p.a.F + : ; ; ",
"L P L q Y x.x.x.x.x.x.x.x.x.x.x.x.x.k.2.2.2.2.<.>.>.>.s.x.x.x.x.x.x.z.x.z.j.j.j.j.j.j.j.j.l.j.j.j.j.z.x.z.x.c.p.p.p.a.F + ; ; - ",
"L P L q Y x.x.x.x.x.x.x.x.x.x.x.x.x.k.2.3.2.2.<.>.>.>.s.x.x.x.x.x.x.x.x.x.j.j.l.j.j.j.j.j.j.j.j.j.d.x.x.x.x.x.p.a.p.a.F + ; ; - ",
"k L k k I s.l.l.l.l.l.s.j.l.l.l.l.d.j.k.k.k.j.<.>.y.<.s.x.x.l.x.l.j.l.j.l.u.s.s.s.s.1.s.u.j.j.k.j.j.x.x.x.x.z.e.e.e.e.F + ; ; - ",
"0 L g 0 D :.>.>.0.>.>.>.>.>.>.>.>.>.s.x.x.x.z.j.l.j.l.j.j.j.j.j.>.>.>.>.>.>.>.>.>.>.>.>.>.<.2.3.2.2.z.x.x.x.l./ / / / f & ; ; - ",
"0 k 0 0 I >.>.<.>.>.>.>.>.>.>.>.>.>.s.x.x.x.x.l.l.j.j.j.j.j.j.j.<.>.>.>.<.>.>.>.>.>.<.>.>.<.3.2.2.3.k.x.x.x.l./ / / / i & ; ; ; ",
"g L g q I >.>.>.0.>.>.>.>.>.<.>.>.>.j.x.x.x.x.j.j.j.j.j.j.j.j.j.<.>.>.>.>.>.>.>.>.>.>.>.<.<.2.2.2.2.z.x.x.x.l./ / / :.i & ; ; - ",
"g L g 0 D >.>.>.>.>.>.>.>.>.>.>.>.:.s.x.x.x.x.j.l.j.j.j.j.j.z.j.>.>.>.<.>.<.>.>.>.:.>.>.>.<.4.2.3.3.z.x.x.x.z.^ / / 8.p @ ; ; - ",
"g L k q I u.s.u.u.j.u.s.u.s.l.l.l.l.l.x.x.x.x.y.<.y.u.<.<.u.y.<.>.>.>.>.>.>.>.>.<.s.s.s.u.s.k.j.j.j.j.l.z.l.d.w.w.e.w.p + : ; ; ",
"L P L k U j.j.j.l.j.j.j.j.j.x.x.x.x.x.x.x.x.x.<.>.>.>.:.>.:.>.>.>.>.>.>.>.>.>.>.>.j.j.j.l.j.j.j.j.j.j.j.j.j.h.w.e.e.i.j + ; ; - ",
"k P L k U s.j.j.j.j.j.j.j.j.z.x.x.x.x.x.x.x.x.y.>.>.>.<.>.<.>.>.>.>.<.>.>.<.>.>.>.j.j.j.j.j.j.j.j.j.j.j.j.j.l.i.9.e.p.s + ; ; ; ",
"k P k q U j.j.j.j.j.j.j.j.j.x.x.x.x.x.x.x.x.x.<.<.>.>.>.>.<.>.>.>.>.>.>.>.>.<.>.>.s.j.j.j.j.j.j.j.j.j.j.j.j.j.g.i.w.i.j + ; ; - ",
"l P k k U d.j.j.j.h.j.j.j.j.z.k.x.z.z.k.l.l.x.y.<.<.<.<.<.<.<.<.y.y.<.<.<.<.<.<.<.j.k.k.j.j.k.j.j.j.h.j.j.h.h.w.i.i.i.s O : ; ; ",
"g l l g J h.h.t.h.h.2.3.k.2.t.h.h.h.h.t.h.h.j.2.h.h.h.h.4.2.3.3.4.2.4.4.4.4.4.2.3.2.4.2.2.2.2.2.3.3.h.h.h.h.h.6.9.9.9.a & : ; ; ",
"g l g g J h.h.h.h.2.3.2.3.2.h.h.h.h.h.h.h.h.h.t.h.h.h.h.2.2.3.2.4.2.2.2.2.2.2.2.2.3.2.2.2.2.4.2.3.3.h.h.h.h.u.9.9.9.9.p & ; ; ; ",
"g l l g K h.h.h.h.h.3.3.3.2.h.h.h.h.h.h.h.h.h.h.h.h.h.h.2.2.2.3.2.2.2.2.3.2.k.2.3.3.3.3.k.2.3.3.3.2.h.h.h.h.u.i.r.6.9.j @ ; ; ; ",
"l l d g J h.h.h.h.2.h.k.3.2.h.h.u.1.h.h.h.h.h.h.h.h.h.h.3.4.3.3.3.3.3.4.3.2.2.4.3.3.3.3.3.3.3.3.3.3.h.h.h.h.t.9.9.6.r.j @ ; ; ; ",
"k P l k U l.z.z.j.z.k.z.z.z.j.k.x.x.s.>.<.<.<.j.z.z.k.u.<.<.y.<.<.<.<.<.<.<.<.<.<.<.<.<.<.<.y.<.<.<.h.j.j.h.a.p.p.p.p.j % > ; ; ",
"l l k k Y x.x.x.x.x.x.x.x.x.x.x.x.x.s.:.>.>.>.x.x.x.x.d.:.>.>.>.>.<.>.>.>.<.>.>.>.>.>.>.>.>.>.>.>.>.s.j.j.j.j.p.p.p.a.j @ 1 1 ; ",
"k P k k Y x.x.x.x.x.x.x.x.x.x.x.x.x.s.>.>.>.>.l.x.x.x.s.>.>.>.>.>.<.>.>.>.>.>.<.<.>.>.<.>.<.>.>.<.>.s.j.j.j.d.p.p.p.a.F @ 1 1 1 ",
"l P k k U c.x.x.x.x.x.x.x.x.x.x.x.x.s.:.>.>.>.x.x.x.x.s.>.>.>.>.>.>.>.>.>.>.>.>.>.>.>.>.>.>.>.>.>.>.s.l.j.j.j.p.p.a.a.j @ 1 1 1 ",
"k P l k U z.z.c.x.l.l.l.c.l.z.l.s.x.a.0.0.0.0.x.z.z.x.d.>.>.>.>.0.y.<.>.0.y.0.y.0.0.:.:.0.>.0.<.>.0.u.j.j.j.d.e.p.p.p.j @ > 1 1 ",
"k l l k I p.p.p.p.8./ / / / / / / / e.a.p.a.p.p.p.p.p.w./ / / / p.p.p.p.p.p.p.p.p.8./ / / 8.w.i.w.i.p.p.p.p.p.f.q.f.f.f @ : 4 1 ",
"l P k k I p.p.a.a.q./ / / / / / / S e.a.p.p.p.p.p.p.p.8./ / / / e.p.p.p.p.p.p.p.p./ / / / 8.i.w.i.i.p.a.p.p.p.q.q.q.f.f & 1 1 1 ",
"k l k k I p.p.a.a.8./ / / / / 8.5./ e.p.p.p.p.p.p.p.p.w./ / / / p.p.p.p.p.p.p.p.p./ / / / 8.i.e.w.w.p.p.p.p.p.q.] q.f.f & 1 1 : ",
"l P l k I a.a.a.a.8./ / / / 8./ 8.8.w.d.a.a.a.a.a.a.a.e./ :.8.8.a.a.a.a.a.a.a.a.a.w.:.5.8.9.i.i.p.i.p.a.p.a.p.f.f.f.g.f % > 1 1 ",
"4 6 6 4 6 j F s F F F p x i F F p d j j F F F F F F F F p p p p F F F F F F F J j f i p p f F F j j j K j j j f f f j 4 % - - % ",
"% > ; % - + + + + % % % & & & & % & @ @ + @ @ @ & & O @ & & & & & & + & + + O & @ @ @ @ & % @ @ @ @ + + + + + @ @ @ @ $ $ $ $ $ ",
"1 1 ; > ; : > > : > > ; ; ; : ; ; : 1 1 : : ; > 3 : : : ; ; ; ; - ; ; ; : : ; ; : : : : ; ; ; ; 1 > ; 1 1 1 1 ; : : > - $ % $ % ",
"; 1 ; : : ; : : : : ; : : : ; ; ; 1 1 1 ; : : : : : : ; : : ; ; ; ; ; ; ; ; ; ; > : : > 1 1 1 ; 1 1 1 % 1 % - 1 : : : % $ % % $ ",
"; ; : - ; - ; - ; ; ; ; ; ; ; ; 1 1 - 1 - 1 ; - ; ; : ; ; ; ; ; - ; ; ; ; ; ; ; - : - - ; ; ; ; ; 1 - 1 1 - 1 1 1 - : - $ $ $ $ "
};
