/* XPM */
static char *_6559_26622dafe735dd0fd0fa6dae94d0ed86bb3cb5b8a74a9e1e0e1a83da19869d8c[] = {
/* columns rows colors chars-per-pixel */
"64 64 135 2 ",
"   c #000000",
".  c #0B0B0B",
"X  c #121212",
"o  c #1D1D1D",
"O  c #242324",
"+  c #282728",
"@  c #2D2D2D",
"#  c #2F302F",
"$  c #333333",
"%  c gray24",
"&  c #403F40",
"*  c #444444",
"=  c #4A4A4A",
"-  c #940000",
";  c #9A0000",
":  c #950413",
">  c #9A0313",
",  c #9C0B15",
"<  c #94121B",
"1  c #9A141C",
"2  c #A30000",
"3  c #A90000",
"4  c #A50215",
"5  c #A50916",
"6  c #AA0A17",
"7  c #A90E18",
"8  c #B60D1B",
"9  c #B80E1B",
"0  c #A5151F",
"q  c #AA111A",
"w  c #B6111C",
"e  c #BA121D",
"r  c #A51720",
"t  c #A61820",
"y  c #AA1A21",
"u  c #BA1820",
"i  c #962C32",
"p  c #9B2D32",
"a  c #AB383C",
"s  c #C50000",
"d  c #CB0000",
"f  c #D60000",
"g  c #DA0000",
"h  c #C50011",
"j  c #CA0012",
"k  c #C90F13",
"l  c #C30D19",
"z  c #C80E19",
"x  c #CD1215",
"c  c #C4121C",
"v  c #CA131B",
"b  c #CD1A1C",
"n  c #D01114",
"m  c #D5121C",
"M  c #DA141C",
"N  c #D11A1B",
"B  c #EE0000",
"V  c #EE000A",
"C  c #EF0A0E",
"Z  c #F10000",
"A  c #F2050C",
"S  c #F30B0E",
"D  c #EF1817",
"F  c #ED1C1E",
"G  c #F01817",
"H  c #F01C1E",
"J  c #D61E24",
"K  c #D91E24",
"L  c #ED1E20",
"P  c #F01E20",
"I  c #CB2527",
"U  c #CD2628",
"Y  c #C7282A",
"T  c #CD292B",
"R  c #D02526",
"E  c #DA2126",
"W  c #D42925",
"Q  c #D02628",
"!  c #D0292A",
"~  c #C42A31",
"^  c #C82B31",
"/  c #CF3331",
"(  c #CF3836",
")  c #C5353A",
"_  c #CA363A",
"`  c #C63A3C",
"'  c #CA3B3D",
"]  c #D33633",
"[  c #D33835",
"{  c #D43B3B",
"}  c #D93C3F",
"|  c #ED2224",
" . c #ED2A2A",
".. c #F02325",
"X. c #EE302F",
"o. c #E53636",
"O. c #EB3232",
"+. c #E53937",
"@. c #E73638",
"#. c #E53B38",
"$. c #EA3E3F",
"%. c #D3423E",
"&. c #EC3F40",
"*. c #CD4344",
"=. c #CF4C4B",
"-. c #D44440",
";. c #D34E4C",
":. c #EA4646",
">. c #9E9A9E",
",. c #A3979C",
"<. c #A9979C",
"1. c #A4989D",
"2. c #AA999D",
"3. c #9F9BA0",
"4. c #A49EA3",
"5. c #AC9CA1",
"6. c #B09CA1",
"7. c #A6A1A6",
"8. c #A9A2A6",
"9. c #A5A5AA",
"0. c #A9A5A9",
"q. c #A6A8AC",
"w. c #ABA8AC",
"e. c #B6B6B6",
"r. c #BDBDBD",
"t. c #C7BFBF",
"y. c #CBBFBF",
"u. c #C0BFC0",
"i. c #C3C3C3",
"p. c #CCC1C1",
"a. c #C9C7C8",
"s. c #C6CBCB",
"d. c #CACBCB",
"f. c #CAD0D0",
"g. c gray82",
/* pixels */
"%.%.%.-.#.+.#.+.E K E J e e 8 u %.%.%.%.#.+.#.+.E K E N e e 8 e [ [ ] ] #.+.#.+.E K E J e w e e %.%.%.%.#.+.#.+.E E E J e e e 8 ",
"%.-.%.%.#.#.#.o.E K E K e w 8 u %.%.%.%.#.+.+.+.E K E E e w 8 e / [ [ ] +.#.+.+.E K K J e w w u %.%.%.%.#.+.#.+.E N E J e 8 e e ",
"-.%.-.%.#.+.#.+.E K E J e w 9 u %.%.%.%.#.#.#.+.E K E K e w e e / ] [ ] #.+.#.+.E K E J e e 9 e %.-.-.%.#.+.+.+.E E E J e w e 8 ",
"%.%.%.%.#.+.#.+.E K K K e w 8 u %.%.%.%.#.+.+.+.E K E K e w 8 e / [ ] ] +.+.+.+.E K E J e w 8 e %.%.%.%.+.+.+.o.E E K K e 8 w w ",
"[ [ [ ]  . . . .M m M M 6 5 4 q / ] [ ]  . . . .M M M m 7 7 4 q ] ] ] ]  . . . .M M M m 6 5 5 q / { ] [ X. . . .M M M m 6 5 6 5 ",
"] ] ] ]  . . ...M m M m 6 5 4 7 ] ] [ ]  . . . .M M M m 6 5 4 q / ] ] ]  . . . .M M M m 6 5 4 q / ] ] ]  . . . .M M M m 6 5 5 5 ",
"] ] [ ]  . . . .K M M M 6 5 4 q / ] [ ]  . . . .M M M m 6 5 4 q / ] [ ]  . . . .M M M m 6 5 4 q / [ ] ]  . . . .M M M m 6 5 6 5 ",
"] ] ] ]  . .X. .M M M M 6 5 4 q ] ] [ ]  . . . .M M M m 6 5 4 q ] ] [ ]  . . . .M M M m 6 5 4 q / [ ] ]  . . . .M M M m 6 4 5 5 ",
"] ] ] ]  . . . .M M M M 6 5 4 q / ] ] ]  . . . .M M M m 6 5 4 q / ] [ ]  . . . .F M M m 6 5 4 q ] ] ] ]  . ... .M M M M 7 5 5 5 ",
"] ] ] ]  . . . .M M M m 6 5 4 q ] ] ] ] X... . .M M M m 6 5 4 q / ] ] ]  . . . .m m M m 6 5 4 q / ] [ ]  . . . .M M M m 6 5 5 5 ",
"] ] [ ]  . . . .M M M m 6 5 4 7 ] ] ] ]  . . . .M M M m 6 5 4 q ] ] ] ]  . . . .M M M m 6 5 4 q / ] ] ]  . . . .M M M m 6 5 5 5 ",
"] ] [ ]  . . . .M M M m 6 5 4 q ] ] ] ]  . . . .M m M m 7 5 4 q ] ] ] ]  . . . .M M M m 6 5 4 q ] ] ] ]  . . . .M M M m 6 5 4 6 ",
"] ] [ ]  . . . .M m M M 6 5 4 q ] ] ] ]  . . . .M M M m 6 5 4 q / ] ] ]  . . . .M M M m 6 5 4 q ] ] [ ]  . . . .M M M m 6 5 4 5 ",
"] [ ] ]  . . . .M m M m 6 5 4 q / [ ] ]  . . . .M M M m 7 5 4 q / ] ] ]  . . . .M M M m 6 5 4 q / [ ] ]  . . . .M M M m 6 5 6 5 ",
"] ] ] ]  . . . .K M M m 7 5 4 q / ] ] ]  . . . .M M M m 6 5 4 q / ] ] ]  . . . .M m M m 6 5 4 q ] ] ] ]  . . . .M M M m 7 5 5 5 ",
"] ] ] ]  . . .P M m M J 7 5 4 q ] [ ] ]  . . . .M M M m 6 5 4 q / ] ] ]  . . . .M M M m 6 5 4 q ] ] [ ]  . . . .M M M m 6 4 6 5 ",
"] ] ] ]  . . . .M M M m 6 5 4 7 / [ [ ]  . . . .M M M m 6 5 4 q ] [ ] ]  . . . .M M M m 6 5 4 q / [ [ ]  . . . .M m M m 6 4 5 5 ",
"} } { [ X.X.X. .K K K J y 0 0 y [ { [ [ O.X.O. .E K K J y 0 0 y ( { [ { O.X.O. .K K K J 0 t 0 y [ [ [ [ X.X.X.X.E K K J y r y 0 ",
"E W W W D D D D g g g f 3 2 2 3 U W W W D G G D g g g g 3 2 2 3 U W W W G G G G g g g g 3 2 2 3 W W W W H G G G g g g f 2 2 2 2 ",
";.;.;.;.:.:.:.:.} } } { a a a a ;.;.;.;.:.:.:.:.} { } { a a a a =.;.;.;.:.:.:.:.} { } { a a a a ;.;.;.;.:.:.:.:.} } } { a a a a ",
"y.y.p.y.p.p.p.p.p.p.p.p.i.t.t.p.p.p.p.p.p.p.p.p.y.y.y.y.t.t.t.p.y.p.p.y.p.p.p.p.u.u.u.u.p.i.t.p.p.p.p.p.p.p.p.p.p.p.y.p.t.p.u.t.",
"f.f.f.f.f.f.f.s.d.d.d.f.d.f.d.d.f.d.f.d.f.f.s.s.f.f.d.f.f.f.f.f.f.s.f.f.d.d.d.f.g.d.g.g.d.d.d.f.d.s.d.d.f.d.d.d.s.f.d.f.d.f.d.f.",
"a.a.a.a.a.a.a.a.d.d.d.d.d.d.a.d.a.d.d.d.a.a.a.a.d.d.d.d.a.a.a.a.a.a.a.a.d.d.d.d.p.a.p.d.d.d.d.d.s.d.d.d.d.d.d.d.a.a.a.a.a.a.d.d.",
"d.d.d.d.d.a.d.d.i.t.i.i.i.i.i.i.i.i.i.i.d.d.d.d.i.i.t.i.a.a.d.d.d.d.d.a.i.i.t.i.g.d.d.d.i.i.i.i.i.i.i.i.i.i.i.i.a.d.a.d.d.d.d.d.",
"d.d.d.d.d.a.f.u.= o $ # $ @ @ $ # $ o = u.g.a.i.* @ + * i.d.a.s.d.a.f.i.* + @ * i.d.g.t.= o $ # @ # # @ # $ o = t.g.a.d.d.d.d.d.",
"a.d.d.a.d.a.d.t.#   X             .   $ u.g.d.u.O     O i.d.a.a.d.d.d.i.+     O i.d.d.u.$   .             X   $ t.f.a.d.a.d.d.a.",
"d.d.d.d.a.a.f.r.#   .   . X X X       $ u.d.s.i.$     $ a.g.d.d.d.a.d.t.$     $ i.a.f.u.$       X X X X   .   $ r.d.a.d.d.d.d.d.",
"d.d.a.d.d.a.g.t.= O $ # .     . @ $ O = u.f.d.t.#     # e.i.i.i.a.d.d.i.#     # i.d.d.u.= O $ @ .     . # $ o = u.f.d.d.d.d.a.d.",
"a.d.d.a.d.d.d.a.i.u.i.r.+     # e.a.i.i.a.d.f.i.#   X . @ $ O = i.g.a.i.$     @ i.d.d.a.i.i.i.e.$     @ r.i.r.i.d.a.a.d.a.a.d.d.",
"d.d.d.d.d.a.a.d.f.f.g.i.#     $ i.g.d.d.d.a.d.i.#   X     X   $ r.d.a.i.@     @ i.g.a.d.d.d.g.i.$     @ i.g.f.d.d.d.d.d.d.d.a.d.",
"d.d.d.d.d.d.d.d.a.d.d.i.@     $ u.d.d.a.d.a.g.i.#   X         @ i.g.d.i.$     @ i.d.d.d.a.a.d.i.$     @ i.d.d.a.a.d.a.d.a.d.d.d.",
"a.d.d.a.d.a.a.d.d.a.d.i.@     $ u.d.d.d.d.s.d.t.@   X . $ % @ = e.i.i.e.@     # i.d.d.d.d.s.a.i.$     @ i.d.a.d.d.d.d.d.d.d.a.d.",
"a.d.d.d.d.d.d.d.d.d.d.i.@     $ u.g.d.d.d.d.d.i.@     @ e.i.i.e.= @ % $ . X   $ i.d.d.d.d.a.f.t.$     @ i.d.d.d.d.s.a.d.d.d.d.a.",
"d.d.a.s.a.d.d.s.d.d.d.i.@     $ u.d.a.d.a.d.d.i.@     $ i.f.g.i.@         X   @ i.d.d.d.d.a.d.i.$     @ i.d.a.d.d.d.d.d.d.a.d.d.",
"d.d.d.d.d.d.a.d.d.d.d.i.@     $ i.d.s.d.d.d.d.i.@     @ i.a.d.t.$   X     X   # i.g.d.d.d.a.f.t.$     @ i.d.a.a.d.d.d.s.a.d.d.a.",
"d.a.d.a.a.a.s.i.a.a.a.r.@     $ u.g.a.s.a.a.a.r.@     $ i.a.f.i.= O $ @ . X   @ i.d.a.d.a.a.d.i.$     @ i.a.a.s.a.a.a.a.d.d.d.d.",
"d.d.d.a.0.0.0.0.0.0.0.4.+     $ u.f.d.a.w.7.q.4.+     # i.d.d.a.i.i.i.e.@     @ i.d.d.d.d.a.d.i.$     O 4.0.0.0.0.0.8.w.a.d.a.d.",
"d.a.d.a.0.4.7.7.7.4.7.3.+ X   $ u.d.a.a.0.4.8.4.@ .   $ i.d.a.d.d.f.g.i.$     $ i.d.d.d.d.d.d.i.$   X @ >.0.4.4.7.7.4.0.a.d.d.d.",
"d.d.d.a.0.7.7.7.7.7.0.>.o     @ t.f.d.a.0.7.0.>.o     @ i.d.d.d.d.a.d.i.+     + i.d.d.d.d.d.f.i.@     X 3.0.7.7.7.7.7.0.a.f.d.d.",
"a.a.d.i.0.7.7.7.0.0.0.4.$ O o & r.d.d.i.w.8.0.4.$ O o % r.s.a.a.a.a.a.r.* + @ * i.a.a.i.a.a.a.r.* + # % 4.7.7.7.7.7.8.0.i.a.i.a.",
"0.0.0.9.7.7.7.9.i.a.a.a.4.>.>.1.8.0.8.w.i.a.a.i.4.>.3.4.7.0.0.0.0.0.0.0.u.i.i.u.w.8.0.0.0.0.0.q.t.i.i.i.8.8.0.4.7.7.7.7.0.0.0.0.",
"7.1.7.7.8.8.2.8.a.a.a.a.0.7.7.9.4.7.4.0.a.d.a.d.0.4.7.8.4.4.4.4.4.7.1.8.d.d.d.a.8.5.4.4.4.4.4.7.a.d.d.a.8.4.4.4.7.8.7.7.4.4.1.7.",
"9.9.9.9.9.9.9.9.s.f.d.s.0.0.0.9.9.9.9.q.d.f.f.d.q.9.9.9.0.0.9.9.9.9.9.q.s.d.s.s.9.9.0.9.0.0.0.w.s.d.g.a.q.9.9.9.9.9.9.9.9.0.0.9.",
"2.2.2.2.<.6.2.8.t.p.p.t.1.1.1.1.2.2.<.5.y.p.y.y.5.<.2.2.1.1.1.1.2.2.2.2.y.p.p.t.5.<.2.2.1.1.,.4.t.p.u.t.6.2.6.2.<.<.<.<.1.1.1.1.",
"' ' ' ' o.o.O.o._ ) _ ) i i i p ` ' ' ' #.&.&.&.^ ~ ~ ~ p i i p ` %.' ' $.$.&.&.^ ~ ~ ~ p i i p *.*.*.*.@.O.@.@.~ ~ ~ ~ p i i i ",
"N b b N S A S A d s d s ; - - ; b N b N B Z Z B d d d s - - - ; b b b N B Z Z B d s d s ; - - ; k x x n C A S V d s d s ; - ; - ",
"T ^ T T | L L L v c v c 1 < < 1 I T T T  ... .| z l l l 1 < < 1 Y T T T  .| ..| v l z l 1 < < 1 T T T T | | | L v l l l 1 < < < ",
"U Q U Q L P L L j j j h > : : , I T U R F H F F j h j h > , : , Y U U U F H H F j h j h > : : , Y Q T ! L P P F j j j h > : , : ",
"[ ] ] ]  . . ...M M M m 6 5 4 q / ] ] ]  ... . .M m M m 6 5 4 q / ] ] ]  . . . .M m m m 6 5 4 q / [ ] ]  . . . .F n M m 6 5 5 5 ",
"[ ] ] ]  . . . .M M M m 6 5 4 q ] ] ] ]  . . . .M M M m 6 5 4 q / ] ] ]  . . . .M M M m 6 5 4 q / [ ] ]  . . . .M M M m 6 5 5 5 ",
"] ] ] ]  . . . .M M M m 5 5 4 q ] ] ] ]  . . . .M m M m 6 5 4 q / ] ] ]  . . . .M m M m 6 5 4 q / [ ] ]  . . . .M m M m 6 5 5 5 ",
"] ] ] ]  . . . .M M M m 7 5 4 7 ] ] ] ]  . . . .M M M m 6 5 4 q / ] ] ]  . . . .M M M m 6 5 4 q / ] ] ]  . . . .M M M m 6 4 5 5 ",
"] ] ] ]  . . . .M m M M 6 5 4 q / [ ] ]  . . ...M M M m 6 5 4 q / ] ] ]  . . . .M M M m 6 5 4 7 ] ] ] ]  . . . .M M M m 6 5 5 5 ",
"] ] ] ]  . . . .M M M m 6 5 4 q ] ] ] ]  . . . .M M M m 6 5 4 q / ] ] ]  . . . .M M M m 6 5 5 7 ] ] ] ]  . ... .M M M m 6 5 4 5 ",
"] ] [ ]  . . . .K m M m 7 5 4 7 ] ] ] ]  . . . .M M M m 6 5 4 q ] [ ] ]  . . . .M m M m 6 5 4 q / ] [ ]  . . . .M M M m 6 5 6 5 ",
"] ] [ ]  . . . .M M M J 6 5 4 q ] ] [ [  . . . .M M M m 6 5 4 q ] [ ] ]  . . . .M M M m 6 5 4 7 / ] [ ]  . . . .M M M m 6 4 6 5 ",
"] ] ] ]  . . .| M M M m 6 6 4 7 ^ ] ] ]  . . . .M M M m 6 5 4 q / ] ] ]  . . ...M M M m 6 5 4 7 ] ] ] ]  ... . .M M M m 6 5 6 5 ",
"] ] ] ]  . . . .M M M m 6 4 4 7 ] ] ] ]  . . . .M M M m 6 5 4 q ] ] ] ]  . . . .M m M m 6 5 5 7 ] [ ] ]  . . . .M m M m 6 5 5 5 ",
"[ ] [ ]  . . . .M M M m 7 5 4 q ] ] [ [  . . . .M M M m 6 5 4 q / ] ] ]  . . . .M M M m 6 5 4 q / ] ] ]  . . . .M M M m 6 5 6 5 ",
"] ] [ [  . . .| M m M m 6 6 4 7 / ] ] ]  . . . .M m m m 7 5 4 q / ] ] ]  . . . .M m m m 6 5 4 q / ] ] ]  . . . .M M M m 6 5 5 5 ",
"U Q U Q L L P F j h h h 6 5 4 7 I U U Q L H L F j h j h 6 5 4 7 I Q U Q F H P F j h j h 6 5 5 6 I Q U Q L F P L M M M m 6 5 5 5 ",
"I I U Q F H H F j h j h 6 5 5 7 I Q I Q L H F F j h j h 5 5 5 6 I U I R F H F F j h j h 5 5 5 7 I I I Q L H H F M M M m 6 5 6 4 ",
"U U U R L F L F j h j h 7 5 4 6 I U U R L F L F j h j h 6 5 4 7 I U U U L H H F j h j h 4 5 4 7 I U U Q L H F F M M M m 6 5 5 4 ",
"U U U R L H P F j h j h 6 5 4 5 I U U R L H F F j h j h 6 4 5 7 I U U Q L H L F j h j h 6 5 5 7 I U U Q F F H D M M M m 6 5 5 6 "
};
