/* XPM */
static char *_3905623392d4279b0c4106e8306641do2hJ3wvSSNqY0F7e[] = {
/* columns rows colors chars-per-pixel */
"80 80 122 2 ",
"   c black",
".  c #000002",
"X  c #030400",
"o  c #040400",
"O  c #050503",
"+  c #080800",
"@  c #0A0A02",
"#  c #0C0D00",
"$  c #0C0C02",
"%  c #0F0F03",
"&  c #131302",
"*  c #191903",
"=  c #1C1C02",
"-  c #1D1D05",
";  c #1D1E04",
":  c #232303",
">  c #262602",
",  c #272704",
"<  c #272803",
"1  c #282903",
"2  c #2B2B03",
"3  c #282804",
"4  c #2E2E04",
"5  c #343403",
"6  c #313104",
"7  c #343404",
"8  c #363604",
"9  c #393A03",
"0  c #383804",
"q  c #3A3A04",
"w  c #3F4004",
"e  c #454603",
"r  c #424204",
"t  c #464605",
"y  c #4E4E04",
"u  c #4F5004",
"i  c #525203",
"p  c #565604",
"a  c #575704",
"s  c #585903",
"d  c #595A03",
"f  c #5D5E03",
"g  c #5E5E03",
"h  c #595A05",
"j  c #5F5F04",
"k  c #616101",
"l  c #646403",
"z  c #626205",
"x  c #636404",
"c  c #666704",
"v  c #6E6F01",
"b  c #696904",
"n  c #6A6B04",
"m  c #6D6D04",
"M  c #6F7004",
"N  c #747500",
"B  c #767703",
"V  c #727304",
"C  c #7A7B02",
"Z  c #797A04",
"A  c #7B7C05",
"S  c #838403",
"D  c #818105",
"F  c #858507",
"G  c #858607",
"H  c #8B8B04",
"J  c #8A8A06",
"K  c #8B8C07",
"L  c #8D8E04",
"P  c #969703",
"I  c #919207",
"U  c #969704",
"Y  c #999903",
"T  c #9A9B03",
"R  c #999A04",
"E  c #9C9D04",
"W  c #9C9D05",
"Q  c #9F9F04",
"!  c #9FA004",
"~  c #A4A502",
"^  c #A1A104",
"/  c #A4A505",
"(  c #A8A903",
")  c #A8A904",
"_  c #ABAC04",
"`  c #B1B204",
"'  c #B6B704",
"]  c #B5B606",
"[  c #BEBF03",
"{  c #B8B904",
"}  c #BBBD04",
"|  c #C6C703",
" . c #C6C705",
".. c #C8C903",
"X. c #CCCD04",
"o. c #CDCE04",
"O. c #CFD004",
"+. c #D1D203",
"@. c #D2D303",
"#. c #D6D703",
"$. c #D4D504",
"%. c #D7D803",
"&. c #D9DA02",
"*. c #DCDD03",
"=. c #DDDE02",
"-. c #D8D905",
";. c #DCDD05",
":. c #E0E103",
">. c #E2E303",
",. c #E4E602",
"<. c #E7E903",
"1. c #EBEC02",
"2. c #EDEE02",
"3. c #EFF000",
"4. c #F1F203",
"5. c #F3F402",
"6. c #F6F700",
"7. c #F7F901",
"8. c #FAFB00",
"9. c #F9FA02",
"0. c #FBFC00",
"q. c #FFFF01",
/* pixels */
"                                                                                                                                                                ",
"                                                                                                                                                                ",
"                                                                                                                                                                ",
"                                                                                                                                                                ",
"                                                                                                                                                                ",
"                                                                                                                                                                ",
"                                                                                                                                                                ",
"                                                                                                                                                                ",
"                                                                                                                                                                ",
"                                                                                                                                                                ",
"                                                                                                                                                                ",
"                                                    o                                                     o                                                     ",
"                                                o                                                                                                               ",
"                                                  q ] 7                                                 F / =                                                   ",
"                                          o   $ L 8.q.`                                               1 7.q.2.V     o                                           ",
"                                        o   q &.q.q.8.q.e   o                                     o   P q.6.q.q.} *   o                                         ",
"                                          z q.q.7.q.0.q.[                                       o   > 6.q.0.0.7.q.,.q   X                                       ",
"                                        A q.q.8.q.0.0.0.q.y                                     o   R q.8.q.q.q.8.q.q.p   X                                     ",
"                                      K q.0.0.q.0.q.q.0.q.|                                       1 6.q.0.q.0.q.q.8.q.q.p                                       ",
"                                o   A q.0.0.q.q.q.q.0.0.0.q.h   o                             o   Y q.8.q.0.q.0.0.q.0.q.q.y   o                                 ",
"                              o   h q.0.0.q.0.q.0.q.0.q.0.q.o.                                  > 6.q.0.q.q.q.0.0.0.0.0.q.4.1   o                               ",
"                                7 7.q.0.q.q.q.0.q.0.q.0.q.8.q.s   o                         o   R q.8.q.0.0.q.q.q.q.q.q.8.q.O.@                                 ",
"                                o.q.0.q.q.0.0.q.q.q.q.0.0.0.q.O.o                             1 8.q.0.q.q.0.q.0.q.0.q.q.q.8.q.P                                 ",
"                          o   V q.8.q.0.q.0.q.q.q.0.q.q.0.q.0.q.z   o                     o   Y q.8.q.0.q.q.q.q.q.q.0.q.0.q.0.q.r   X                           ",
"                            : 5.q.0.q.0.0.q.q.q.q.q.q.0.q.0.0.q.@.o                         1 7.q.0.0.q.0.q.0.q.q.0.q.0.q.q.0.q...                              ",
"                            P q.8.q.0.q.q.q.q.0.q.0.q.q.q.0.q.0.q.z                     o   Y q.0.q.q.0.q.q.q.q.q.q.0.q.0.q.0.8.q.x   o                         ",
"                          : 3.q.0.q.q.0.q.0.q.q.q.0.q.0.q.0.q.0.q.+.o                     4 0.q.0.q.q.q.q.q.0.q.q.q.q.q.0.q.q.0.q.@.o                           ",
"                      o   Z q.8.q.0.q.q.q.q.0.q.q.q.q.q.q.q.0.q.8.q.c   o             o   W q.8.q.0.0.q.q.0.q.q.0.q.0.q.q.0.q.0.0.q.u   o                       ",
"                        @ &.q.0.0.q.q.0.q.q.q.0.q.0.q.q.q.0.q.0.8.q.#.@                 < 6.q.q.0.q.q.0.0.q.q.q.0.q.0.q.q.0.q.0.8.q._                           ",
"                    o   w q.q.0.q.0.q.q.0.q.q.q.q.q.0.q.q.q.0.q.q.8.q.c   o         o   W q.8.q.q.0.q.q.q.q.q.0.q.q.q.q.q.q.q.q.q.q.4.*                         ",
"                        L q.8.q.0.0.q.0.q.0.q.0.q.q.q.q.0.q.0.0.8.8.q.#.o         o   4 0.q.q.0.q.0.q.0.0.q.0.q.q.q.0.q.0.q.0.q.q.8.q.n   o                     ",
"                        ..q.0.q.q.q.q.q.q.q.q.q.0.q.0.q.q.q.q.q.q.q.8.q.n   o         W q.8.0.q.0.q.q.q.q.q.q.q.q.0.q.q.q.q.q.0.q.8.q.~   o                     ",
"                      - 3.q.0.q.0.q.q.q.q.q.q.q.q.q.q.q.q.q.q.0.q.8.0.q.%.@         4 8.q.q.0.q.q.q.q.q.0.q.q.q.q.q.0.q.q.q.q.0.q.0.q.-.@                       ",
"                      p q.0.q.q.q.0.q.0.q.0.q.0.q.0.q.0.q.0.q.q.q.q.q.0.q.n         ^ q.7.q.q.0.q.0.q.0.q.q.q.0.q.0.q.q.q.0.q.q.0.q.q.7.,                       ",
"                  o   v q.8.q.0.q.q.q.q.0.q.q.q.0.q.q.q.0.q.q.q.q.q.8.0.q.&.@     5 q.0.q.0.q.q.0.q.q.q.0.q.0.q.q.q.q.q.q.0.q.0.0.0.q.q.e                       ",
"                  o   N q.8.0.0.0.q.q.0.q.q.q.0.q.q.q.0.q.q.0.q.q.8.q.8.8.q.V     _ q.0.0.q.0.q.q.q.q.0.q.q.q.q.q.0.q.0.q.q.q.q.q.q.0.q.p   o                   ",
"                  o   A q.8.0.q.q.0.q.q.q.q.0.q.0.q.0.q.q.q.q.q.q.0.q.q.q.q.=.  9 q.q.0.q.0.q.q.q.q.0.q.q.q.0.q.q.0.q.0.q.q.q.0.0.0.0.q.k   o                   ",
"                  o   G q.8.q.q.q.q.0.q.q.0.q.q.q.q.q.q.0.q.0.q.q.q.0.0.q.8.q.Z ] q.0.q.0.q.0.q.q.0.q.q.q.0.q.q.q.q.q.q.0.q.q.q.q.q.0.q.c   o                   ",
"                      L q.7.0.q.q.q.q.q.q.q.q.q.q.q.0.q.q.q.q.0.q.q.0.q.q.0.q.q.q.0.q.q.q.q.q.0.q.q.q.q.q.q.q.q.q.0.q.q.q.0.q.0.q.0.0.q.n                       ",
"                  o   H q.0.0.q.0.q.0.q.q.0.q.0.q.0.q.q.0.q.q.q.q.0.q.q.0.q.q.0.0.q.0.0.q.0.q.q.q.0.q.0.q.0.q.0.q.q.0.q.q.q.q.q.q.q.0.q.c   o                   ",
"                  o   G q.8.0.q.q.q.q.0.q.0.q.q.q.q.q.q.q.0.q.q.q.q.q.q.q.0.q.0.q.q.0.q.q.0.q.0.q.q.q.q.q.q.q.q.q.0.q.q.q.q.q.0.q.0.0.q.k   o                   ",
"                  o   C q.8.0.q.0.q.q.q.q.q.0.q.0.q.0.q.q.q.0.q.q.0.q.0.0.q.0.q.0.q.0.q.q.q.q.q.q.0.q.0.q.0.q.0.q.q.0.q.0.q.q.q.q.0.0.q.h   o                   ",
"                  o   V q.8.q.q.q.0.q.0.q.q.q.q.q.q.q.0.q.q.q.q.0.q.q.q.0.q.0.q.q.q.q.q.q.0.q.q.0.q.q.q.0.q.q.q.q.q.q.q.q.0.q.0.0.q.q.q.e                       ",
"                      f q.8.q.0.q.q.q.q.0.q.0.q.0.q.q.q.0.q.0.q.q.q.q.0.q.q.q.q.0.q.0.q.q.q.0.q.q.q.q.0.q.q.q.0.0.q.0.q.q.q.q.q.q.8.q.7.1                       ",
"                      3 6.q.q.0.0.q.q.q.q.0.q.q.q.q.q.q.q.0.q.0.q.q.0.q.q.q.0.q.q.q.q.0.q.q.q.0.0.q.0.q.q.q.0.q.q.q.q.q.q.q.q.0.q.0.q.=.$                       ",
"                      o O.q.0.q.q.q.0.q.q.q.0.q.0.q.0.q.q.q.q.q.q.0.q.q.q.0.q.q.0.q.q.q.0.q.q.q.q.q.q.q.q.0.q.q.q.0.q.0.0.q.q.0.0.8.q.(                         ",
"                        Y q.0.0.0.q.q.0.q.q.q.q.q.q.q.0.q.0.q.q.q.q.q.q.q.q.q.q.q.0.q.0.q.0.q.0.q.q.0.q.q.q.q.q.0.q.q.q.q.q.q.0.q.8.q.V   o                     ",
"                    o   y q.0.q.0.q.q.q.0.q.0.q.0.q.q.q.q.q.0.q.q.0.q.0.q.0.q.0.q.q.q.q.q.q.q.q.q.0.q.q.q.0.q.0.q.q.q.0.q.0.q.q.q.q.4.-                         ",
"                        & ,.q.8.0.q.q.q.q.0.q.q.q.q.q.0.q.q.q.q.q.q.q.q.q.q.q.q.q.q.q.q.q.q.q.q.0.q.0.q.q.q.0.q.0.q.q.q.0.q.q.0.0.q.{                           ",
"                      o   G q.8.q.0.0.q.q.q.0.q.0.q.q.q.0.q.0.q.q.0.q.0.q.0.q.0.q.0.q.0.q.0.q.0.q.q.q.q.q.0.q.q.q.q.q.0.q.0.0.q.0.q.h                           ",
"                          > 6.q.0.q.q.0.q.q.q.q.q.0.q.0.q.q.q.0.0.q.q.q.0.q.q.q.0.q.q.q.0.q.q.q.q.q.0.q.q.q.q.q.0.q.0.q.0.q.q.0.q.&.$                           ",
"                            R q.0.q.0.q.0.q.0.q.q.q.q.q.0.q.q.q.q.q.q.0.q.q.q.0.q.q.q.0.q.q.q.0.q.0.q.q.q.0.q.0.q.q.q.q.q.0.q.0.q.V   o                         ",
"                            > 6.q.q.8.q.0.q.q.q.q.0.q.q.q.0.q.q.0.q.0.q.q.q.0.q.0.q.0.q.q.q.0.q.0.q.q.q.0.q.q.q.q.q.q.0.0.q.0.q.-.@                             ",
"                          o   A q.7.q.0.0.q.0.q.q.q.0.q.q.q.0.q.q.q.q.q.q.0.q.q.q.q.q.q.q.0.q.q.q.q.q.0.q.q.q.0.q.q.0.q.q.0.0.q.i                               ",
"                              o o.q.8.q.q.0.q.0.q.q.q.q.q.q.q.q.q.q.0.q.q.q.q.q.q.q.0.q.q.q.q.q.0.q.0.q.0.q.0.q.0.q.0.q.q.8.q.~                                 ",
"                                6 7.q.0.q.q.q.0.0.q.0.q.0.q.0.q.q.0.q.q.q.0.q.0.q.0.q.q.q.0.q.0.q.q.q.q.q.q.q.q.q.0.0.q.8.q.=.$                                 ",
"                              o   z q.q.0.q.0.q.0.q.q.q.q.q.q.q.0.q.q.q.0.q.0.q.q.q.0.q.0.q.q.q.q.q.q.q.q.q.q.0.0.q.q.0.q.8.7   o                               ",
"                                o   D q.8.q.q.0.q.0.q.0.q.0.q.0.q.q.q.0.q.q.q.q.q.0.q.q.q.q.q.0.0.q.0.q.0.q.0.q.0.q.0.0.q.h                                     ",
"                                      I q.0.0.q.0.q.q.q.0.q.q.q.0.q.0.q.q.q.0.q.q.q.q.q.0.q.0.q.q.q.q.0.q.0.0.q.q.0.q.q.z   o                                   ",
"                                        J q.q.0.q.0.0.q.0.q.q.0.q.q.q.q.q.0.q.q.q.0.q.0.q.q.q.q.0.q.q.q.0.q.q.q.0.q.q.f   o                                     ",
"                                          m q.q.7.q.q.0.0.q.0.q.q.0.q.0.0.q.0.q.q.q.0.q.q.q.q.q.q.0.q.0.q.q.0.7.q.1.t                                           ",
"                                            r >.q.0.0.q.q.0.q.q.0.q.q.q.q.q.q.q.q.0.q.q.q.0.q.0.0.q.0.q.0.8.q.q.[ :   o                                         ",
"                                          o   & ! q.q.0.0.0.q.q.q.0.q.q.q.q.0.q.q.q.q.q.0.0.0.q.q.0.q.0.q.q.6.A     o                                           ",
"                                                  e | q.q.q.8.0.0.q.0.q.0.0.q.0.q.0.0.q.0.q.q.0.0.8.q.q.q.) ,                                                   ",
"                                                      i } 9.q.q.q.0.8.0.0.q.q.8.q.8.0.0.0.8.0.q.q.q.6.) q     X                                                 ",
"                                                  o       7 D #.0.q.q.q.q.q.q.q.q.q.q.q.q.q.q.8. .N ,                                                           ",
"                                                      o       o 6 n W } O.=.<.2.3.1.>.#.} U g 1         X                                                       ",
"                                                            o           X @ @ # $ @ @ o           o                                                             ",
"                                                                o o                         o                                                                   ",
"                                                                                                                                                                ",
"                                                                                                                                                                ",
"                                                                                                                                                                ",
"                                                                                                                                                                ",
"                                                                                                                                                                ",
"                                                                                                                                                                ",
"                                                                                                                                                                ",
"                                                                                                                                                                ",
"                                                                                                                                                                ",
"                                                                                                                                                                ",
"                                                                                                                                                                "
};
