/* XPM */
static char *_e3d6ecf69d049df8f1161fe8d34c3be6toxr0u3QpcPTn9F[] = {
/* columns rows colors chars-per-pixel */
"64 64 213 2 ",
"   c #5C2E23",
".  c #5A3326",
"X  c #56362B",
"o  c #5B362B",
"O  c #5D392D",
"+  c #5C3B31",
"@  c #632F21",
"#  c #643325",
"$  c #6A3625",
"%  c #65352B",
"&  c #6B362B",
"*  c #643C2D",
"=  c #6B3C2D",
"-  c #683927",
";  c #73362B",
":  c #723C2D",
">  c #793F2E",
",  c #703827",
"<  c #653E31",
"1  c #6B3C31",
"2  c #743D32",
"3  c #7B3F33",
"4  c #5E4337",
"5  c #5E4339",
"6  c #66402E",
"7  c #6F402E",
"8  c #73412E",
"9  c #7A412E",
"0  c #644132",
"q  c #6B4233",
"w  c #64443B",
"e  c #6B443C",
"r  c #6F493C",
"t  c #754334",
"y  c #7C4434",
"u  c #734837",
"i  c #7C4937",
"p  c #75453A",
"a  c #7C4539",
"s  c #744A3D",
"d  c #7C493A",
"f  c #664E44",
"g  c #6C4D41",
"h  c #764D43",
"j  c #7A4E43",
"k  c #6C5044",
"l  c #735346",
"z  c #7C5144",
"x  c #7C5149",
"c  c #7B594F",
"v  c #7E5B51",
"b  c #7C5751",
"n  c #85442E",
"m  c #824535",
"M  c #884634",
"N  c #824836",
"B  c #8B4B35",
"V  c #82463A",
"C  c #884639",
"Z  c #834A3B",
"A  c #8B4C3B",
"S  c #924E3D",
"D  c #8E523D",
"F  c #87503C",
"G  c #9D5636",
"H  c #9D5837",
"J  c #94533E",
"K  c #9B553C",
"L  c #9C5A3C",
"P  c #965A3E",
"I  c #A3563F",
"U  c #A25B3C",
"Y  c #A35A38",
"T  c #864C41",
"R  c #8B4D42",
"E  c #974F41",
"W  c #815245",
"Q  c #8D5343",
"!  c #83544B",
"~  c #8B554B",
"^  c #8D5A4C",
"/  c #8D5A47",
"(  c #955443",
")  c #9A5544",
"_  c #955A45",
"`  c #9B5945",
"'  c #96554A",
"]  c #9D5649",
"[  c #945C4D",
"{  c #9C5B49",
"}  c #875C54",
"|  c #8E5C53",
" . c #885751",
".. c #945E51",
"X. c #995E52",
"o. c #A05746",
"O. c #A25B44",
"+. c #A45C4B",
"@. c #AA5D4B",
"#. c #A35749",
"$. c #AD5F52",
"%. c #8F634D",
"&. c #926047",
"*. c #986047",
"=. c #95614B",
"-. c #99614D",
";. c #8D6153",
":. c #8E6459",
">. c #956153",
",. c #9B6254",
"<. c #936459",
"1. c #966A5B",
"2. c #A5614D",
"3. c #AC644A",
"4. c #AC694D",
"5. c #AF6246",
"6. c #B46B4D",
"7. c #BB6C4D",
"8. c #B56649",
"9. c #A36454",
"0. c #AE6351",
"q. c #A56A55",
"w. c #AD6B55",
"e. c #A6665B",
"r. c #AB675D",
"t. c #A76A5A",
"y. c #AD6B5D",
"u. c #B26453",
"i. c #B56C52",
"p. c #BA6E51",
"a. c #AD755E",
"s. c #B17056",
"d. c #BD7153",
"f. c #B3735A",
"g. c #B9745D",
"h. c #926761",
"j. c #9C7F7B",
"k. c #9D7B72",
"l. c #AA7661",
"z. c #A17F7D",
"x. c #C16E4D",
"c. c #C06A47",
"v. c #C36E51",
"b. c #C86F51",
"n. c #C37255",
"m. c #C97156",
"M. c #C27458",
"N. c #96837B",
"B. c #9C847C",
"V. c #9C897E",
"C. c #998276",
"Z. c #A38376",
"A. c #AA8477",
"S. c #A4847C",
"D. c #A9857C",
"F. c #A3897E",
"G. c #AA897B",
"H. c #AD8876",
"J. c #B0857C",
"K. c #9C8682",
"L. c #968D86",
"P. c #9D8A84",
"I. c #9D8789",
"U. c #9D8B89",
"Y. c #9E9087",
"T. c #9E918A",
"R. c #A38681",
"E. c #A98780",
"W. c #A28B84",
"Q. c #A98D84",
"!. c #A38D89",
"~. c #A98B89",
"^. c #B28F8C",
"/. c #B08982",
"(. c #A59186",
"). c #AE9286",
"_. c #A3928B",
"`. c #AD948B",
"'. c #AD998E",
"]. c #B29587",
"[. c #B3948B",
"{. c #BA958C",
"}. c #B4998D",
"|. c #BC9A8D",
" X c #BC9787",
".X c #A49491",
"XX c #AC9693",
"oX c #A69B94",
"OX c #AD9C94",
"+X c #AD9698",
"@X c #AD9C9A",
"#X c #B49592",
"$X c #BC9692",
"%X c #B29C94",
"&X c #BC9D93",
"*X c #B39D9A",
"=X c #BF9C98",
"-X c #ADA096",
";X c #AEA19B",
":X c #B4A195",
">X c #BAA396",
",X c #B4A39B",
"<X c #BAA39C",
"1X c #B7A99C",
"2X c #AD9CA2",
"3X c #B29EA1",
"4X c #AEA3A1",
"5X c #B5A3A2",
"6X c #B8A5A1",
"7X c #B6AAA3",
"8X c #B9ABA2",
"9X c #C29D8C",
"0X c #C19D94",
/* pixels */
"Y Y Y U 7.v.7.p.b.b.m.g. X'.XX[...' ' ) ) K ) ) J B R ( { @.@.O.` J J L @.@.@.#.E R T  .[.*X@X#Xw . o O * 0 6 6 6 6 6 6 : 7 7 8 ",
"H Y L U 7.x.6.p.v.b.m.g.{.`.#X^.X.) E ] o.o.] ( J ( R ' [ 2.#.O.` L K O.@.@.@.+.A E T  .[.*X*X+Xw . o * * 0 0 6 6 * = 7 7 : 7 7 ",
"H U L 2.7.7.6.p.n.b.n.f. X'.XX^.[ K J ` ` O.{ { R A D ( { { +.#.J J ` ` #.+.@.+.S S T ^ {.*X%X$Xe . o % * q * q = 6 = = = : : 8 ",
"L L L Y 6.p.6.p.v.x.v.f.{.OX%X[.{ I ) #.J ( { ( Q Q R ( ' { { { { _ ` { +.2.+.2.A A T ~ [.>X%X%Xw . o O * < * 6 6 = = q 8 = 8 = ",
"H U L Y 7.7.6.7.c.c.x.f.|.:X>X|.w.@.0.+.C m T V : > ; : ; ; ; ; y > y y m > 9 > A Z V ! `.:X:X}.w . o + o * o O 0 = 1 6 = 7 = q ",
"H U L U 7.7.6.7.c.7.7.f.9X>X1X0Xy.3.i.$.C 2 a p 2 2 : 2 ; ; & & V V i a y 3 y y V V T x ).:XOX'.w . O O o o . o 0 0 0 * 6 = * = ",
"L L L L 6.7.6.6.7.6.i.a.>X<X8X>Xt.3.w.2.C > d i & = = = 1 1 & 1 a a a a y 2 t t Z j d c `.:X-XOXw o + O X o X O 0 0 0 < < 0 0 6 ",
"L L L L 6.7.s.s.6.6.s.l.=X,X7X=Xt.@.3.3.M 9 N t 2 2 1 1 1 % < % a y a t y y 9 y V T Z ! ).:X-X-X5 X + + X o X O 0 0 0 0 0 0 < 6 ",
"U U U U Y U U L L L L -.|.,X%X|.{ K K I 5.i.w.4.m i y y t : 2 > y y m y y y y y N m y T ).:X'.'.e o X + o o o o O O + + % + o % ",
"G L L L G Y L L U U P %.|.,XOX}.' K K I 5.8.6.4.n m a p t t 2 > m y i i m N N y m i t z ).:X'.'.e o X + < + + + o O + + o o + + ",
"L L L P L L L ` *.P D &.{.&X%X[.>.` ) O.0.6.i.w.n y y t t 2 2 2 i i t y t i i t a a p z '.1X:XOX5 X X + X X X X X X X X X X X X ",
"&._ =.&.&._ =.[ =.%.%.1.[.*X%X}.:...[ -.2.q.q.q.d i h h h h s s s s d s s j z s j h j ! (.-XOXXXf 5 5 5 w + w + < 5 + 5 5 f 5 5 ",
"G.G.G.G.G.G.G.S.Z.Z.Z.B.3X3X2X@XR.S.S.A.H.H.H.G.Z.Z.V.V.B.B.C.B.G.S.S.S.S.S.F.F.S.S.Z.F.8X7X7X7XI.N.C.V.C.B.B.N.j.C.N.V.L.P.P.P.",
"_.!.!.!.Y.W.P.W.W.F.(.W.3X3X4X;XP.R.F.V.F.V.F.V.W.W.Y.F.W.P.R.P.W.W.W.~.~.W.(.(.W.R.(.V.,X;X*X*XI.U.W.W.W.W.!.P.P.P.P.U._._._._.",
"_._.!.T.P.P.!.U.V.B.F.V.*X@X,X;XW.W.W.R.P.P.R.W.P.R.V.R.K.B.K.I.P.K.P.R.R.P.P.Y.V.V.F.V.1X,X<X<XK.P.P.P.K.R.R.K.K.N.N.K.T.T.T.T.",
"F.W.E.R.F.F.F.S.G.Z.G.D.$X$X&X[.G.G.S.S.F.F.S.F.S.S.D.F.R.B.K.R.S.S.G.R.E.G.W.F.Z.V.F.G.>X:X0X$XG.S.R.E.z.E.R.S.S.z.B.R._.oXT._.",
"W ~ Q / ^ [ [ >.[ ' { X.[ X.>.{ [ X.[ ^ [ / / / _ [ [ <. XOX%X%X<.<...X.,.X.,.,.-.-.=.-.[ X.X.X...X...X.{ X.>.>...^ | h.#XOX@X@X",
"Z B B B J _ J ( ] ) { { ( ( ) J ) ' ( J J A D B J J ( >.].%X:X#X,.+.+.+.$.@.#.] ` ` _ ` ) ) E ) E ) ) ( J ( ( ( ( E ' ..#X#X@X@X",
"B B n B P _ _ K ) J ) ] ( ( _ ` ) ) _ P ( J J D ` K ) X. X&X%X|.,.9.+.+.@.+.@.$.+.` ` ` ) ) ' ) ' { ' ) ` ( ` _ ] ) ' <.}.}.OX@X",
"B D B J J ( ( ( ) K ) ] J ( _ ` ( D Q D D J D D J ( ( [ [.%XOX#X>.#.#.#.] ] { #.` _ _ J ' ) ( E ( ( Q ( ( ( J J ) ( E X.[.:XOXOX",
"K K ) S B m m m ) K ) ( C C C C 2 2 > t i i y y m n y W ).,XOX#X,.) ) ) C C C C m 3 3 M C C C C 3 3 3 3 V V N M m m m ~ ].:XOX;X",
"E ) ] ( m > y n ' E E E C 3 m 3 & - - = 2 y t y 9 y 2 j `.,X@X#X{ ) ( ( C 3 a 3 2 ; ; > 3 y 3 a & 1 1 1 3 3 y 9 m y 3 W }.:XOX,X",
") ) ` ( Z t i i Q ( ( ( C 3 V j 2 1 1 t 3 a d d d d p x `.,XOX%X[ J ( ' d i j d y 2 2 y i a d u 2 1 1 2 a V a t C m i z }.,X-X;X",
") K ) ( Z t a t _ ( ' ( V a a p 2 = 1 1 3 h d p 2 y 2 h `.,XOX}.-.) _ Q t t a t t 2 2 2 i d t t 2 1 2 2 3 a t y y y 2 z }.1X-X;X",
"K K ] ( : $ & $ Z A A M > & & 2 y a i t ; % & & 3 i a s &X:X:X&Xt.O.2.` y : 9 = V Z Z m y > 8 y a y a a i m y i y m 3 ! [.:X%X%X",
") J { R , @ $ $ N F B N 3 1 2 t a d t t ; % % % a a a s &X:X:X X9.O.2.*.9 , 9 : Z Z B V y > 9 t V i a y m m y i Z V 3 j ~.%X'.'.",
"' [ { ~ &   # % Z T Z d 2 1 1 1 p p a t & % % % s i s x &X>X=X$X9.+.9.[ t $ : = d Z Z m y 9 2 t y p p a a y p p d 2 h x `.,X*X#X",
"| | ..~ e < e 1 ! ! ! z h e e e j h h r h 1 w w h r h c XX*X,X0X1.>.,.>.s q s u z W z z s s s h j j j j j h h h h h h b Q.OXXXXX",
"S.S.R.S.j.j.B.B.S.S.S.S.B.B.B.F.F.Z.G.B.S.j.j.K.E.W.F.F.6X,X*X#XQ.S.F.E.C.B.V.B.B.C.F.Z.Z.V.V.B.S.S.S.S.D.R.z.B.S.R.z.K.1X,X@X*X",
"P.P.K.W.W.Q.!.(.R.W.W.W.P.U.Y.W.R.R.W.Q.~.~..X!.V.F.R.E.@X*X*X3XW.N.V.W.W.P.(.(.P.K.V.P.P.P.Y.(.R.F.W.E.W.W.W.!.W.~.~.R.,XOXXX*X",
"!.P.R.R.W.P.R.R.R.R.I.K.P.P.V.B.P.V.V.V.I.!.U.U.P.R.R.~.@X3X3X$XW.P.K.P.K.V.P.P.V.B.V.P.V.P.L.P.V.V.P.P.R.P.K.I.K.R.W.W.,X*X,X*X",
"K.K.R.S.F.S.B.S.S.F.F.K.V.L.P.P.F.S.S.S.S.R.W.W.F.S.S./.[.0X0X{.S.S.S.S.z.S.S.S.D.Z.F.S.W.P.U.V.G.G.S.Z.S.D.S.S.D.D.J.A.|. X{.9X",
"e e e e u u u u u s w l }.:X*X%X| ^ ' [ ..[ ^ ..,.,.X.9.r.y.y.r.[ X.....X.[ [ ^ [ ' ^ :.`.%XOX`.%.&.&.*.w.a.s.s.g.g.g.g.f.s.f.f.",
"0 q * 1 7 7 8 8 8 8 * h `.%X@X#X| ( E ( ( ) ( ) #.o.o.@.$.u.u.0.o.] ` ` ( ) ` J ) ( Q ..].:X-X}.&.L L U 6.p.7.p.M.n.n.n.7.6.7.6.",
"1 < = = = 8 8 8 7 8 - h ].*X*X$X' ( ( ) ( ) ) ) +.+.#.2.$.u.u.u.o.O.` ` ] ) ` _ { ] ' .. X:X'.].&.P L U 4.p.7.7.M.n.M.M.d.p.d.d.",
"< < 1 = q 7 8 8 7 8 = l [.%X*X#X[ ' ( ( ( ( J ) ` ` ) +.+.@.+.$.] ) ) ) ) ) _ ' ( ( ~ | ].%XOX X&.H H 2.6.p.p.7.v.p.n.d.6.6.6.w.",
"o * o - - - 6 - - q O r Q.OXXX`.^ J Q ( V C V V V V C C N B B B S B A D S S A F m y a T Q.%X`.].*.L G U 7.7.7.7.x.7.7.6.U Y Y Y ",
"o o o o 6 - - 6 6 q 6 r '.XXXX`.^ F Q A m 3 m y y y y y y 9 3 > M N M N M Z Z Z 3 y 3 j ).OX'.[.*.L G U 6.7.7.7.7.7.7.8.Y Y Y G ",
"O O O O O 6 6 6 6 6 4 r `.%X-X}.^ D ( ( V 3 a p a a a a a a y i N N F Z Z A F F i V t z ).'._.[.*.L K O.6.i.6.i.6.6.d.4.U Y L ` ",
"X o O O 4 4 6 6 6 6 4 w `.OXOX[.[ J ' ( V 3 T d a d s a a a V m N Z Z Z B B F F > y t z ).}.'.[.=.L J U w.6.6.p.p.p.d.4.U J H L ",
"O O . o o O o O O O O 0 >X1X=X=X{ ) ) K m 9 i t & & # & y i m y 8 = : > m C Z C m m i T Q.%X%X{.*.O.U L U U U Y H H Y L L L U L ",
"O O 4 0 O O O - o X o 4 $X<X,X=X{ J ( ' m y Z t # . @ % 3 i a a 2 1 = 2 V Z Z N m i y x ].%X#X[.{ L L L K G G H H H H L H H H L ",
"X X X X X X . . + + X w #X<X<X$XX.( ( Q d t s u   .   % 2 p p p < < < 1 p d d i d t p x ).,X*X{.=.` P L L ` L L L L L P L P P P ",
"4 4 4 4 5 5 4 4 + + 4 f '.1X<X<X<.[ | ^ z h h h w w < e h x x h g w g h j j z z z j h b (.OXXX[.%.=.[ &._ -.[ =.*.&.&._ &.&.&.&.",
"C.C.C.B.V.V.C.C.C.B.C.N.<X<X@X@XE.z.D.G.S.S.S.K.B.B.j.j.R.R.z.B.j.j.V.B.S.S.F.B.Z.Z.S.C.1X1X<X,XS.S.S.S.F.D.G.G.S.A.Z.D.G.G.G.Z.",
"(.(.(.P.Y.(.(.(.V.B.N.P.;X,X;X*X~.R.R.E.W.R.R.W.!.!.R.R.!.!.R.I.!.!.P.R.E.W.P.P.W.W.Q.V.:XOXOX%XW.P.I.W.W.W.Q.W.B.B.V.B.V.V.P.P.",
"V.V.B.V.K.K.P.K.K.P.K.P.OX;X@X,X!.W.I.K.R.K.K.I.I.R.I.K.I.I.K.L.I.I.K.I.I.I.K.K.P.K.W.K.,X-X:X,XP.P.P.P.W._._._.P.V.P.P.P.(.(.P.",
"S.Z.z.S.S.S.S.S.Z.z.k.S.[.=X#X#XS.F.B.S.E.G.S.G.S.S.B.K.P.U.U.P.B.S.F.S.S.E.z.R.F.B.G.S.:X}.&X|.S.B.S.F.F.F.G.F.Z.S.Z.F.V.P.P.P.",
"{ X.[ [ ,.X.X.,.9.9.q.9.X.[ [ X.[ [ [ [ ..[ [ [ Q ~ ! } ).XXXXXX} ^ ' [ e.r.r.t.[ [ [ [ ......X.[ [ | | [ ............<.=X<X,X,X",
"` O.] #.#.` ] ) #.+.O.O.) K E ) ) ' _ ) ) ) ( ' ( A R | Q.`.XX[.>.Q E o.$.u.0.0.) K ) J ( ) E ) E E E E ( ' ( ( { { ' ,.&X1X,X,X",
"` ` ` ` _ ` ` ` 2.2.2.2.` ( ( ) ' ` ` ` #.] ' ` ' ' ~ | ^.%X+X^.^ J A ] $.u.u.u.) ` _ _ ) _ ) ) ( ( ) ( ) ) ' { ' ] ' <.0X<X<X7X",
"K ` ` ` ( ( ` ' ` 2.` ` ` ( ( ( ( ( ( ( E E ' ( R R T  .^.+X#X^.^ J J ` #.$.2.+.( K ( ( ( ' ( ( ( ( ( ( ( ( ( ( ) ( ( X.0X<X*X6X",
"o.K ) ( M m C m C C M M m m M m N N i N m m i d : 2 2 h ~.+X+X^.>._ ( ( B m M M C m i m N N Z i m m m i m C V m T T T  .{.,XXX@X",
") K ' ( m m a 3 > 3 3 3 y n n 3 y y 9 9 y y y t & & % 2 ~.+X+X[.>.( ' _ m : > y y y y y t y t y y 3 t y > y y 3 C 3 3 ! [.*X@X@X",
"` J _ _ V y T a y a a a a a V V i i i i m d d i : 2 & g ~.*XXXXX>.( ' _ m y i a a V a a d a a i t i d a V a V V V V a ! [.5X*X2X",
"L J ` ( y y a t a t y y i a y y y y y y y y y p : 1 % h ~.,XXX[.[ J ( ( y 3 y y a y V a V a t i i y i i y V a a V 3 a ! `.,X*X@X",
"K J ` D : $ : = i d Z Z i y 9 y t t i i m 3 a a 3 V a x `.%X%X{.{ ) ` ( m 9 N 9 y V m 3 m y y 9 i N m i m 3 y y 3 V a j [.%X%X*X",
"L P ` ( 9 ; 3 2 T T T Z m y y i i a i a a V T a T j p x ).OXOX[.' J _ ( y 9 N y V a y V m a i i N N Z a C m y i V T a W {.>X%X&X",
"_ ( ' R > & & & T T j d V a y a p p p p a a h p 3 h p x `.1X,X%X>._ ' Q N t i t 2 a p y a a t p i i d a a a p p 3 j 2 x `.%XXX#X",
"..^ ..! j q p e x z j W j j j j h h h h j j h h h h h c (.'.OX[.:...>.^ z s j h d h j j j h h h z z x j j j h h h h x v `.,X,X,X",
"F.S.S.E.j.j.B.B.S.B.S.B.R.F.R.R.F.B.S.F.S.F.F.S.z.S.Z.j.1X;X,X,XG.D.G.D.S.Z.S.S.S.Z.z.S.S.S.S.F.S.S.F.F.S.z.S.S.S.F.Z.j.OXoX.X.X",
"K.K.P.P.P.P.P.P.V.K.C.P.W.!.!.!.~.W.W.W.W.(.Y.Y.S.R.W.F.;XoXoXOXW.~.~.W.F.R.W.R.B.V.F.B.R.R.P.W.W.(.W.W.W.R.P.W.B.R.Q.P.;XoX@X*X",
"I.P.P.P.L.K.K.K.B.N.N.K.P.P.P.U.I.I.P.U.P.U.L.L.N.V.W.R.,X;X3X5X!.!.(.P.P.V.V.V.N.L.N.V.P.P.P.V.P.P.U.L.I.L.P.L.V.V.W.P.oX.X@X+X",
"K.U.P.P.P.U.P.P.K.K.V.K.!.U.!.P.I.I.I.L.U.U.L.L.U.I.!.R.,X@X3X*XI.!.P.P.P.L.V.P.V.V.V.P.P.P.Y.W.L.L.Y.P.P.P.P.P.P.V.Q.P.oX.X@X+X"
};
